{"glyphs":{"0":{"ha":918,"x_min":0,"x_max":0,"o":"m 476 885 b 35 300 232 885 35 624 b 476 -286 35 -24 232 -286 b 918 300 721 -286 918 -24 b 476 885 918 624 721 885 z m 476 -260 b 299 300 386 -260 299 -10 b 476 860 299 608 386 860 b 654 300 565 860 654 608 b 476 -260 654 -10 565 -260 z "},"1":{"ha":413,"x_min":0,"x_max":0,"o":"m 413 -278 b 354 -44 374 -206 354 -126 l 354 875 l 35 744 b 92 590 89 714 92 631 l 92 -44 b 35 -278 92 -126 72 -206 z "},"2":{"ha":893,"x_min":0,"x_max":0,"o":"m 656 -43 b 451 -235 564 -75 519 -186 b 406 -250 436 -246 421 -250 b 308 -167 363 -250 321 -215 b 300 -96 303 -146 300 -121 b 435 163 300 -1 340 110 b 893 542 622 267 893 313 b 481 915 893 749 708 915 b 161 793 372 915 239 892 b 99 626 135 760 99 697 b 128 524 99 593 107 558 b 374 411 194 418 339 411 l 381 411 b 322 622 358 446 322 529 b 324 651 322 632 322 642 b 481 888 332 768 399 888 b 631 540 564 888 631 732 b 400 188 631 539 631 308 b 101 -219 139 50 101 -129 b 107 -278 101 -256 107 -278 l 674 -278 b 868 -318 818 -278 868 -318 l 868 -149 b 828 -57 868 -114 854 -79 b 740 -26 808 -40 781 -26 b 656 -43 717 -26 689 -31 z "},"3":{"ha":868,"x_min":0,"x_max":0,"o":"m 482 456 b 796 875 769 593 796 875 l 271 875 b 76 915 126 875 76 915 l 76 744 b 117 653 76 710 90 676 b 193 626 135 636 160 626 b 267 640 214 626 239 631 b 465 846 369 676 363 824 b 482 847 471 847 476 847 b 546 813 508 847 532 835 b 567 717 561 788 567 754 b 532 579 567 668 554 614 b 333 440 486 503 397 461 b 311 433 325 438 318 436 b 274 419 299 429 286 425 b 204 379 250 408 226 394 l 329 289 b 436 429 339 400 393 429 l 442 429 b 604 83 544 426 604 275 b 456 -264 604 -108 538 -264 b 297 -28 374 -264 307 -144 b 296 1 296 -18 296 -8 b 356 213 296 94 332 178 l 349 213 b 103 100 314 213 168 206 b 72 -4 81 65 72 29 b 135 -169 72 -74 108 -136 b 456 -292 214 -268 346 -292 b 868 83 683 -292 868 -124 b 482 456 868 282 697 443 z "},"4":{"ha":871,"x_min":0,"x_max":0,"o":"m 871 28 l 871 54 l 781 54 l 781 564 l 518 458 l 518 54 l 135 54 b 500 642 353 229 439 403 b 508 708 506 664 508 686 b 358 875 508 800 457 875 l 157 875 b 207 608 157 875 199 725 b 210 540 208 585 210 563 b 35 69 210 210 35 69 l 69 28 l 518 28 l 518 -44 b 460 -278 518 -126 499 -206 l 838 -278 b 781 -44 800 -206 781 -126 l 781 28 z "},"5":{"ha":856,"x_min":0,"x_max":0,"o":"m 643 424 b 458 463 585 451 522 463 b 369 456 428 463 399 461 b 229 419 324 449 243 424 b 375 613 288 457 375 500 b 344 743 375 647 367 690 b 338 776 339 756 338 767 b 410 847 338 818 374 844 l 656 847 b 672 840 667 847 672 844 b 578 769 672 825 596 783 b 476 638 564 758 476 707 b 479 614 476 629 476 622 b 619 515 508 522 619 515 l 800 515 b 761 631 800 515 775 561 b 753 726 758 640 753 699 l 753 733 b 785 869 754 776 763 824 b 786 875 785 871 786 872 l 253 875 l 253 874 l 90 874 b 129 656 107 806 125 699 b 132 586 132 631 132 608 b 93 392 132 453 93 392 l 140 347 b 246 388 168 361 219 383 b 315 394 271 392 293 394 b 593 83 560 394 593 124 b 443 -264 593 -111 526 -264 b 318 -154 392 -264 347 -217 b 286 -28 301 -115 290 -72 b 285 1 285 -18 285 -8 b 343 213 285 96 321 178 l 335 213 b 103 117 300 213 172 207 l 90 100 b 61 -1 69 65 61 31 b 103 -139 61 -54 82 -103 b 113 -154 106 -144 110 -149 b 124 -169 117 -160 121 -164 b 443 -292 201 -268 335 -292 b 856 83 671 -292 856 -124 b 643 424 856 229 778 357 z "},"6":{"ha":889,"x_min":0,"x_max":0,"o":"m 479 465 b 299 268 479 465 344 450 b 289 421 299 271 289 336 b 443 828 289 554 314 740 b 526 847 461 840 496 847 b 571 839 543 847 560 844 b 592 808 588 829 592 818 b 575 769 592 793 581 779 b 494 636 554 732 494 692 b 497 614 494 629 494 621 b 636 515 522 522 636 515 l 818 515 b 778 631 818 515 792 561 b 769 718 774 657 769 686 l 769 733 b 803 875 771 778 781 826 l 497 875 b 35 296 231 875 35 619 b 458 -290 35 -99 239 -282 l 494 -290 b 889 83 714 -281 861 -178 l 889 88 b 546 471 889 411 674 471 b 479 465 518 471 496 468 z m 478 -257 b 317 143 379 -233 317 -26 b 329 265 317 188 321 229 b 476 432 353 361 413 425 l 483 432 b 626 85 565 432 625 272 b 492 -258 626 -157 557 -258 b 478 -257 488 -258 482 -258 z "},"7":{"ha":814,"x_min":0,"x_max":0,"o":"m 607 410 b 794 854 781 554 794 785 l 794 875 l 247 875 b 35 915 89 875 35 915 l 35 711 b 156 563 35 682 40 563 b 236 578 178 563 204 567 b 381 783 315 604 339 725 b 485 844 417 832 457 844 b 596 631 550 844 596 744 b 479 367 596 535 563 428 b 161 -183 206 167 161 -60 b 171 -278 161 -242 171 -278 l 513 -278 b 421 43 453 -165 421 -58 b 607 410 421 179 479 303 z "},"8":{"ha":921,"x_min":0,"x_max":0,"o":"m 599 443 b 865 661 754 474 865 560 b 478 890 865 788 692 890 b 89 661 264 890 89 788 b 357 443 89 560 201 474 b 35 83 171 399 35 254 b 478 -290 35 -124 233 -290 b 921 83 722 -290 921 -124 b 599 443 921 254 785 399 z m 351 658 b 482 860 351 769 424 860 b 604 658 542 860 604 769 b 482 458 604 547 542 458 b 351 658 424 458 351 547 z m 478 -262 b 297 85 389 -262 297 -107 b 478 432 297 276 389 432 b 658 85 567 432 658 276 b 478 -262 658 -107 567 -262 z "},"9":{"ha":889,"x_min":0,"x_max":0,"o":"m 443 132 b 624 328 443 132 578 146 b 635 176 624 325 635 261 b 479 -232 635 42 608 -143 b 399 -251 461 -243 428 -251 b 353 -242 381 -251 364 -249 b 331 -211 336 -232 331 -221 b 349 -172 331 -196 343 -182 b 429 -39 369 -135 429 -94 b 426 -17 429 -32 429 -24 b 286 82 400 75 286 82 l 106 82 b 144 -33 106 82 131 35 b 154 -122 150 -60 154 -90 l 154 -136 b 119 -278 153 -182 143 -229 l 426 -278 b 889 301 693 -278 889 -22 b 464 886 889 696 683 878 b 447 888 458 888 453 888 b 429 886 440 888 435 888 b 35 514 210 878 63 775 l 35 510 b 378 126 35 186 250 126 b 443 132 404 126 426 129 z m 444 854 b 607 450 544 831 607 621 b 594 331 607 406 603 365 b 447 165 571 235 511 172 l 440 165 b 297 513 357 165 297 326 b 431 856 297 754 368 856 b 444 854 436 856 440 856 z "}," ":{"ha":354,"x_min":0,"x_max":0,"o":""}," ":{"ha":354,"x_min":0,"x_max":0,"o":""},"!":{"ha":413,"x_min":0,"x_max":0,"o":"m 354 -149 b 222 -17 354 -75 294 -17 b 92 -149 150 -17 92 -75 b 222 -279 92 -221 150 -279 b 354 -149 294 -279 354 -221 z m 413 874 l 35 874 l 38 871 b 222 24 74 800 222 24 b 411 871 222 24 374 800 z "},"\"":{"ha":613,"x_min":0,"x_max":0,"o":"m 167 874 b 35 743 94 874 35 815 b 158 613 35 674 90 617 b 163 574 161 599 163 586 b 132 476 163 517 132 476 b 297 735 288 544 297 699 l 297 743 b 167 874 297 815 239 874 z m 600 743 b 469 874 600 815 542 874 b 339 743 397 874 339 815 b 463 613 339 674 393 617 b 467 576 465 600 467 588 b 435 476 467 518 435 476 b 600 735 590 544 600 699 z "},"#":{"ha":1429,"x_min":0,"x_max":0,"o":"m 1421 506 l 1429 532 l 1067 532 l 1190 874 l 1163 874 l 1038 532 l 596 532 l 719 874 l 692 874 l 568 532 l 204 532 l 194 506 l 558 506 l 408 90 l 44 90 l 35 64 l 399 64 l 275 -278 l 303 -278 l 426 64 l 869 64 l 744 -278 l 772 -278 l 897 64 l 1261 64 l 1269 90 l 906 90 l 1057 506 z m 878 90 l 436 90 l 586 506 l 1029 506 z "},"$":{"ha":1076,"x_min":0,"x_max":0,"o":"m 774 324 l 592 438 l 592 833 b 744 751 669 833 744 796 b 615 563 744 657 615 646 l 615 554 b 758 467 621 492 663 467 l 986 467 b 897 722 986 467 897 594 b 958 874 897 776 913 829 l 592 874 l 592 1031 l 565 1031 l 565 874 l 554 874 b 443 867 514 874 476 871 b 143 556 253 838 143 697 b 296 301 143 461 192 367 l 333 276 l 565 132 l 565 -243 b 522 -246 551 -244 536 -246 b 486 -243 510 -246 499 -244 b 386 -164 438 -235 386 -214 b 519 42 386 -44 519 -65 b 365 129 519 106 460 129 l 143 129 b 221 -117 143 129 221 8 b 156 -278 221 -174 204 -231 l 565 -278 l 565 -433 l 592 -433 l 592 -278 l 621 -278 b 881 -203 722 -276 797 -257 b 1014 18 971 -144 1014 -64 b 856 272 1014 113 957 208 z m 532 475 b 406 669 454 522 406 597 b 458 788 406 711 422 753 b 565 833 488 815 526 829 l 565 454 z m 686 -189 b 592 -237 665 -217 625 -231 l 592 115 b 725 -87 669 61 725 -12 b 686 -189 725 -121 713 -156 z "},"%":{"ha":876,"x_min":0,"x_max":0,"o":"m 646 874 l 228 -278 l 256 -278 l 674 874 z m 422 624 b 228 879 422 765 335 879 b 35 624 122 879 35 765 b 228 368 35 482 122 368 b 422 624 335 368 422 482 z m 150 624 b 228 868 150 758 189 868 b 306 624 268 868 306 758 b 228 379 306 489 268 379 b 150 624 189 379 150 489 z m 683 233 b 490 -22 576 233 490 119 b 683 -278 490 -164 576 -278 b 876 -22 790 -278 876 -164 b 683 233 876 119 790 233 z m 683 -267 b 606 -22 644 -267 606 -157 b 683 222 606 113 644 222 b 761 -22 722 222 761 113 b 683 -267 761 -157 722 -267 z "},"&":{"ha":1181,"x_min":0,"x_max":0,"o":"m 1150 419 b 975 572 1115 549 975 572 b 978 539 975 572 978 558 b 732 357 978 481 950 364 b 375 218 485 349 375 218 l 389 189 b 493 235 389 189 425 235 b 572 215 515 235 542 229 b 657 47 639 183 657 111 b 644 -46 657 10 651 -25 b 478 -253 611 -172 539 -253 b 296 94 389 -253 296 -97 b 524 415 296 392 507 415 l 525 415 b 350 669 525 415 350 465 b 482 871 350 781 424 871 b 604 669 540 871 604 781 b 536 511 604 639 586 549 l 568 510 l 586 510 b 799 560 664 510 753 525 b 865 671 840 590 865 631 b 478 900 865 799 692 900 b 89 671 263 900 94 797 l 89 661 b 418 421 89 508 267 451 b 35 94 233 376 35 303 b 478 -279 35 -112 233 -279 b 789 -172 599 -279 708 -239 b 888 0 840 -128 882 -68 b 889 28 889 10 889 18 b 557 269 889 232 665 269 b 507 265 535 269 517 267 b 592 286 526 276 551 286 b 854 219 646 286 726 269 b 967 196 896 203 933 196 b 1156 379 1090 196 1156 292 b 1150 419 1156 393 1153 407 z "},"'":{"ha":310,"x_min":0,"x_max":0,"o":"m 167 874 b 35 743 94 874 35 815 b 158 613 35 674 90 617 b 163 574 161 599 163 586 b 132 476 163 517 132 476 b 297 735 288 544 297 699 l 297 743 b 167 874 297 815 239 874 z "},"(":{"ha":661,"x_min":0,"x_max":0,"o":"m 661 1036 l 661 1063 b 35 299 315 1063 35 719 b 661 -467 35 -124 315 -467 l 661 -440 l 660 -440 b 294 299 458 -440 294 -110 b 660 1036 294 706 458 1036 z "},")":{"ha":661,"x_min":0,"x_max":0,"o":"m 36 1036 b 401 299 238 1036 401 706 b 36 -440 401 -110 238 -440 l 35 -440 l 35 -467 b 661 299 381 -467 661 -124 b 35 1063 661 719 381 1063 l 35 1036 z "},"*":{"ha":739,"x_min":0,"x_max":0,"o":"m 739 961 l 639 1135 l 393 876 z m 488 1222 l 286 1222 l 386 881 z m 135 1135 l 35 961 l 381 876 z m 35 786 l 135 613 l 381 871 z m 286 525 l 488 525 l 386 867 z m 639 613 l 739 786 l 393 871 z "},"+":{"ha":644,"x_min":0,"x_max":0,"o":"m 644 311 l 353 311 l 353 603 l 326 603 l 326 311 l 35 311 l 35 285 l 326 285 l 326 -7 l 353 -7 l 353 285 l 644 285 z "},",":{"ha":310,"x_min":0,"x_max":0,"o":"m 297 -147 b 167 -17 297 -75 239 -17 b 35 -147 94 -17 35 -75 b 158 -278 35 -217 90 -274 b 163 -317 161 -292 163 -304 b 132 -414 163 -374 132 -414 b 297 -156 288 -346 297 -192 z "},"-":{"ha":643,"x_min":0,"x_max":0,"o":"m 35 285 l 643 285 l 643 311 l 35 311 z "},"­":{"ha":643,"x_min":0,"x_max":0,"o":"m 35 285 l 643 285 l 643 311 l 35 311 z "},".":{"ha":296,"x_min":0,"x_max":0,"o":"m 296 -147 b 165 -17 296 -75 238 -17 b 35 -147 93 -17 35 -75 b 165 -278 35 -219 93 -278 b 296 -147 238 -278 296 -219 z "},"/":{"ha":479,"x_min":0,"x_max":0,"o":"m 451 874 l 35 -278 l 63 -278 l 479 874 z "},":":{"ha":296,"x_min":0,"x_max":0,"o":"m 296 -147 b 165 -17 296 -75 238 -17 b 35 -147 93 -17 35 -75 b 165 -278 35 -219 93 -278 b 296 -147 238 -278 296 -219 z m 296 365 b 165 496 296 438 238 496 b 35 365 93 496 35 438 b 165 235 35 293 93 235 b 296 365 238 235 296 293 z "},";":{"ha":308,"x_min":0,"x_max":0,"o":"m 296 365 b 165 496 296 438 238 496 b 35 365 93 496 35 438 b 165 235 35 293 93 235 b 296 365 238 235 296 293 z m 296 -147 b 165 -17 296 -75 238 -17 b 35 -147 93 -17 35 -75 b 158 -278 35 -217 89 -274 b 163 -314 161 -290 163 -303 b 131 -414 163 -372 131 -414 b 296 -156 286 -346 296 -192 z "},"<":{"ha":479,"x_min":0,"x_max":0,"o":"m 479 464 l 479 493 l 35 303 l 479 113 l 479 142 l 101 303 z "},"=":{"ha":644,"x_min":0,"x_max":0,"o":"m 35 192 l 644 192 l 644 218 l 35 218 z m 35 347 l 644 347 l 644 374 l 35 374 z "},">":{"ha":479,"x_min":0,"x_max":0,"o":"m 35 142 l 35 113 l 479 303 l 35 493 l 35 464 l 413 303 z "},"?":{"ha":800,"x_min":0,"x_max":0,"o":"m 376 -22 b 250 -149 307 -22 250 -79 b 376 -274 250 -218 307 -274 b 501 -149 446 -274 501 -218 b 376 -22 501 -79 446 -22 z m 403 874 b 96 757 299 874 171 851 b 35 597 71 725 35 665 b 64 499 35 565 43 532 b 300 390 128 397 265 390 l 307 390 b 250 593 285 424 250 503 b 251 621 250 601 250 611 b 403 849 260 733 324 849 b 547 560 481 849 547 742 l 547 554 b 421 299 546 515 546 424 b 335 161 361 239 335 206 b 342 118 335 147 338 133 b 371 17 353 69 371 17 b 381 74 371 17 376 38 b 503 218 396 165 443 192 b 800 558 653 283 800 393 b 403 874 800 757 622 874 z "},"@":{"ha":1129,"x_min":0,"x_max":0,"o":"m 610 844 b 581 846 600 844 590 846 b 35 300 279 846 35 600 b 581 -244 35 0 279 -244 b 872 -160 688 -244 788 -214 l 857 -137 b 581 -219 778 -189 682 -219 b 61 300 293 -219 61 14 b 579 819 61 588 293 819 b 628 817 596 819 611 818 b 1099 296 893 793 1099 560 b 1096 240 1099 278 1099 260 b 1042 60 1086 160 1063 99 b 985 -15 1026 32 1008 7 b 917 -42 969 -29 949 -42 b 881 -37 906 -42 894 -40 b 844 68 853 -31 844 14 l 844 507 b 739 647 844 589 790 628 b 644 664 692 664 644 664 l 421 664 b 281 692 317 664 281 692 l 281 576 b 310 515 281 553 290 531 b 374 494 324 504 344 494 b 435 506 390 494 411 497 b 582 635 504 528 528 601 b 624 646 594 642 610 646 b 674 619 644 646 664 638 b 688 564 683 599 688 581 b 476 417 688 450 497 422 b 246 169 299 371 246 275 b 504 -50 246 54 342 -50 b 540 -49 515 -50 528 -50 b 654 18 624 -42 654 18 b 826 -94 654 18 679 -94 b 850 -93 835 -94 842 -93 b 958 -65 850 -93 903 -93 b 972 -57 964 -62 968 -60 b 1054 31 1007 -36 1033 -4 b 1125 297 1100 110 1125 200 l 1125 318 b 610 844 1117 599 889 831 z m 543 -19 b 436 169 483 -17 436 57 b 564 411 436 240 436 346 b 654 463 622 440 654 463 l 654 169 b 543 -19 654 56 635 -19 z "},"A":{"ha":963,"x_min":0,"x_max":0,"o":"m 669 682 b 660 764 664 713 660 739 b 685 858 660 804 669 836 l 697 874 l 292 874 b 333 714 292 874 333 828 b 311 554 333 671 328 618 l 147 -85 b 35 -278 135 -129 90 -253 l 276 -278 b 436 -206 276 -278 390 -278 b 460 -131 453 -181 460 -156 b 403 -4 460 -83 433 -39 b 296 336 310 101 296 251 l 296 363 b 307 436 297 388 300 413 b 383 708 307 436 379 703 b 568 -67 389 708 568 -67 b 578 -150 572 -85 578 -117 b 524 -278 578 -199 567 -251 l 963 -278 b 838 -53 908 -235 865 -167 z "},"B":{"ha":933,"x_min":0,"x_max":0,"o":"m 351 401 b 874 633 672 401 874 457 b 633 874 874 767 765 874 l 35 874 l 40 863 b 93 642 75 794 93 718 l 93 -46 b 35 -278 93 -126 74 -207 l 585 -278 b 933 42 778 -278 933 -151 b 351 401 933 286 629 401 z m 501 -246 b 354 8 365 -246 354 -56 l 354 29 b 192 379 354 235 257 335 b 179 401 183 385 179 393 b 197 426 179 413 186 422 b 354 642 264 450 354 508 l 354 643 b 435 846 354 789 392 846 b 540 657 485 846 540 764 b 246 408 540 463 344 424 b 239 400 242 408 239 404 b 246 390 239 396 242 392 b 639 -46 403 353 639 263 b 501 -246 639 -124 607 -246 z "},"C":{"ha":933,"x_min":0,"x_max":0,"o":"m 522 874 l 497 872 b 35 292 239 858 35 603 b 521 -290 35 -31 251 -290 b 904 -35 638 -290 800 -279 b 647 -199 889 -64 799 -199 b 553 -182 618 -199 586 -194 b 325 292 460 -149 325 -15 b 618 847 325 589 443 847 l 632 847 b 725 750 696 847 725 801 b 685 650 725 715 711 678 b 504 454 611 576 543 511 b 464 325 478 415 464 368 b 628 167 464 242 515 167 l 910 167 b 826 463 874 217 826 315 b 847 642 826 515 832 575 b 933 874 878 771 933 874 z "},"D":{"ha":942,"x_min":0,"x_max":0,"o":"m 35 874 b 93 642 72 801 93 722 l 93 -46 b 86 -124 93 -72 90 -97 b 85 -135 86 -128 86 -132 b 83 -143 85 -137 83 -140 b 78 -165 82 -151 81 -158 l 78 -168 b 35 -278 68 -206 54 -243 l 467 -278 b 938 297 501 -278 929 -267 l 938 311 b 546 874 938 635 794 861 z m 354 -237 l 354 642 b 356 646 354 643 356 644 b 357 683 356 658 356 671 b 358 694 357 686 357 690 b 364 735 360 707 361 721 b 365 743 364 738 365 740 b 471 847 379 804 407 847 l 475 847 b 643 311 499 847 643 825 l 643 297 b 367 -237 639 -207 419 -237 z "},"E":{"ha":903,"x_min":0,"x_max":0,"o":"m 540 633 b 539 614 539 626 539 619 b 668 493 539 504 668 493 l 903 493 b 826 671 890 504 826 550 b 872 874 826 722 839 789 l 35 874 l 40 863 b 92 642 74 794 92 718 l 92 -32 b 35 -278 92 -118 72 -201 l 872 -278 b 826 -75 839 -193 826 -126 b 903 103 826 46 890 92 l 667 103 b 539 -10 667 103 539 92 b 547 -57 539 -24 542 -39 b 593 -128 551 -72 586 -114 b 601 -164 599 -140 601 -153 b 485 -253 601 -214 554 -253 b 463 -251 478 -253 469 -253 b 383 -197 428 -249 401 -233 b 354 -46 364 -162 354 -111 l 354 -10 b 156 249 354 150 217 224 b 144 264 156 249 144 253 l 144 265 b 161 278 144 272 151 278 l 235 278 b 460 190 235 278 365 274 b 504 174 472 179 488 174 b 556 197 524 174 543 182 b 685 296 611 261 685 296 b 557 389 628 318 585 356 b 506 413 543 406 525 413 b 458 394 489 413 471 407 b 235 304 411 353 336 306 l 157 304 b 144 319 151 304 144 310 b 156 335 144 331 156 335 b 354 593 217 360 354 432 l 354 642 b 463 847 354 722 357 839 b 488 850 471 849 479 850 b 603 758 546 850 603 810 b 593 721 603 746 600 733 b 540 633 571 679 543 651 z "},"F":{"ha":903,"x_min":0,"x_max":0,"o":"m 558 389 b 506 413 544 406 525 413 b 458 394 489 413 472 407 b 236 304 413 353 338 306 l 158 304 b 146 319 153 304 146 310 l 146 321 b 157 335 146 331 157 335 b 279 413 188 346 238 371 b 356 593 321 454 356 513 l 356 642 b 464 847 356 722 358 839 b 492 849 474 849 483 849 b 604 753 561 849 604 813 b 539 614 604 707 539 674 b 676 493 539 496 676 493 l 903 493 b 828 669 892 504 828 550 b 874 874 828 722 839 789 l 35 874 l 40 863 b 93 642 75 794 93 718 l 93 -46 b 35 -278 93 -126 74 -207 l 413 -278 b 356 -46 375 -207 356 -126 l 356 -10 b 157 249 356 150 218 224 b 146 264 157 249 146 253 l 146 265 b 163 278 146 272 153 278 l 236 278 b 461 190 236 278 367 274 b 504 174 474 179 489 174 b 557 197 524 174 543 182 b 686 296 613 261 686 296 b 558 389 628 318 586 356 z "},"G":{"ha":936,"x_min":0,"x_max":0,"o":"m 488 874 b 35 292 235 858 35 604 b 510 -290 35 -29 247 -290 b 635 -278 549 -290 590 -286 b 667 -269 646 -276 657 -274 b 779 -251 703 -257 742 -251 b 910 -278 824 -251 868 -260 l 913 -278 l 913 282 l 429 282 b 650 25 429 282 650 243 l 650 -190 b 604 -260 647 -243 628 -260 b 511 -214 571 -260 529 -226 b 318 292 424 -147 318 29 b 604 847 318 589 433 847 l 618 847 b 683 790 663 847 683 821 b 672 751 683 778 679 764 b 553 644 651 717 590 690 b 506 524 521 606 506 563 b 622 403 506 457 550 403 l 936 403 b 847 631 881 485 849 528 l 847 638 b 936 874 847 781 936 874 z "},"H":{"ha":932,"x_min":0,"x_max":0,"o":"m 932 874 l 649 874 b 564 821 613 874 578 854 b 554 768 557 803 554 785 b 760 500 554 640 719 518 b 783 467 775 493 783 481 b 746 429 783 447 769 429 l 732 429 b 525 533 636 432 567 489 b 483 553 514 546 499 553 b 442 533 468 553 453 546 b 235 429 400 489 331 432 l 219 429 b 182 467 196 429 182 447 b 206 500 182 481 190 493 b 417 757 246 518 417 621 b 401 826 417 779 413 803 b 328 874 389 856 360 874 l 35 874 l 46 853 b 93 653 76 790 93 722 l 93 -32 b 35 -278 93 -118 72 -201 l 221 -278 b 419 -83 332 -278 419 -189 b 417 -54 419 -74 418 -64 b 224 268 403 36 353 147 b 178 347 193 297 178 325 b 268 403 178 379 208 401 l 271 403 b 314 396 283 403 303 400 b 321 393 317 396 319 394 b 439 307 371 376 411 340 b 483 286 451 293 467 286 b 528 307 500 286 517 293 b 686 401 563 349 618 397 b 697 403 690 403 694 403 b 799 346 764 403 799 381 b 753 267 799 324 783 296 b 553 -26 633 153 576 54 b 544 -81 547 -44 544 -64 b 743 -278 544 -186 631 -278 l 932 -278 b 874 -46 894 -207 874 -126 l 874 644 b 925 860 874 719 892 793 z "},"I":{"ha":413,"x_min":0,"x_max":0,"o":"m 413 -278 b 354 -46 374 -207 354 -126 l 354 642 b 410 871 354 721 374 800 l 413 874 l 35 874 l 36 871 b 92 642 74 800 92 721 l 92 -46 b 35 -278 92 -126 72 -207 z "},"J":{"ha":413,"x_min":0,"x_max":0,"o":"m 40 863 b 93 642 75 794 93 718 l 93 -144 b -115 -446 93 -264 24 -407 l -47 -446 b 354 -44 175 -446 354 -267 l 354 642 b 411 869 354 721 374 800 l 413 874 l 35 874 z "},"K":{"ha":933,"x_min":0,"x_max":0,"o":"m 882 -132 b 933 42 914 -83 933 -25 b 351 401 933 286 629 401 b 874 633 672 401 874 457 b 863 704 874 658 869 682 b 858 715 861 708 860 713 b 849 767 851 735 849 751 b 922 874 849 843 922 874 l 660 874 b 517 754 607 874 517 836 b 574 567 517 653 574 633 b 571 542 574 558 572 550 b 440 439 564 501 513 464 b 231 415 392 422 282 415 l 188 415 b 174 428 179 415 174 422 b 181 439 174 432 176 436 b 354 642 244 474 354 546 l 354 649 b 410 869 356 725 375 801 l 413 874 l 35 874 l 36 869 b 93 633 74 796 93 715 l 93 -46 b 35 -278 93 -126 72 -207 l 467 -278 b 354 13 358 -203 354 -37 l 354 29 b 183 372 354 222 236 332 b 179 379 181 374 179 376 b 189 389 179 385 183 389 l 256 389 b 599 146 374 389 529 328 b 608 88 603 138 608 115 b 571 -18 608 56 600 15 b 529 -136 547 -46 529 -92 b 701 -278 529 -208 572 -278 l 933 -278 b 868 -182 933 -278 868 -243 b 882 -132 868 -167 872 -150 z "},"L":{"ha":811,"x_min":0,"x_max":0,"o":"m 492 -46 b 497 -94 492 -62 493 -79 b 501 -126 500 -106 501 -115 b 371 -251 501 -193 443 -251 l 193 -251 b 181 -240 186 -251 181 -246 b 186 -231 181 -236 182 -233 b 354 150 243 -187 354 -74 l 354 642 b 413 874 354 722 374 801 l 35 874 b 92 628 72 797 92 714 l 92 -46 b 36 -275 92 -125 74 -204 l 35 -278 l 782 -278 b 735 -74 747 -193 735 -126 b 811 103 735 46 799 92 l 650 103 b 492 -46 635 103 492 99 z "},"M":{"ha":983,"x_min":0,"x_max":0,"o":"m 983 874 l 664 874 l 546 593 b 492 557 536 569 514 557 b 438 593 469 557 447 569 l 319 874 l 35 874 b 40 861 38 869 39 865 l 58 818 l 58 817 b 90 638 81 760 90 700 l 90 -43 b 35 -278 90 -124 71 -206 l 238 -278 b 386 -122 301 -278 386 -242 b 383 -83 386 -110 385 -97 b 117 572 369 33 117 243 l 117 638 b 118 676 117 651 117 664 l 168 557 l 168 556 l 188 510 b 189 508 188 510 188 508 b 358 346 217 446 276 346 b 542 515 456 346 521 469 b 549 533 546 526 549 533 l 664 806 l 664 -46 b 606 -278 664 -126 643 -207 l 983 -278 b 925 -46 944 -207 925 -126 l 925 633 b 981 869 925 715 944 797 z "},"N":{"ha":865,"x_min":0,"x_max":0,"o":"m 682 874 b 590 835 647 874 614 861 b 557 751 574 815 557 790 b 572 675 557 731 561 706 b 785 196 633 503 785 494 l 785 -43 b 782 -99 785 -61 783 -79 l 354 810 b 254 874 336 849 297 874 l 35 874 l 49 846 l 49 844 b 90 638 76 779 90 710 l 90 -43 b 35 -278 90 -124 72 -206 l 219 -278 b 311 -239 254 -278 288 -265 b 342 -151 328 -219 342 -192 b 325 -67 342 -128 338 -100 b 117 456 263 113 117 104 l 117 638 b 119 693 117 657 118 675 l 556 -232 b 628 -278 568 -260 596 -278 l 865 -278 l 853 -250 b 810 -43 825 -185 810 -114 l 810 638 b 865 874 810 719 829 800 z "},"O":{"ha":983,"x_min":0,"x_max":0,"o":"m 508 882 b 35 296 247 882 35 619 b 508 -289 35 -28 247 -289 b 983 296 771 -289 983 -28 b 508 882 983 619 771 882 z m 592 -203 b 510 -264 565 -242 538 -264 b 318 296 413 -264 318 -12 b 333 501 318 369 324 438 b 485 256 351 424 392 325 b 533 215 503 242 518 228 b 643 -31 604 151 643 61 b 592 -203 643 -90 626 -150 z m 678 46 b 500 276 658 126 600 200 b 450 322 482 290 465 306 b 376 553 393 390 376 475 b 407 747 376 633 394 706 b 447 822 415 775 428 801 b 510 856 468 844 489 856 b 700 296 606 856 700 606 b 678 46 700 206 692 121 z "},"P":{"ha":874,"x_min":0,"x_max":0,"o":"m 354 29 b 192 379 354 235 257 335 b 179 401 183 385 179 393 b 197 426 179 411 186 422 b 354 642 263 450 354 508 l 354 643 b 433 846 354 789 392 846 b 539 657 483 846 539 764 b 246 408 539 463 344 421 b 236 400 239 407 236 404 b 246 390 236 396 239 392 b 428 378 246 390 325 378 b 874 633 614 378 874 417 b 633 874 874 767 765 874 l 35 874 l 40 863 b 93 642 75 793 93 718 l 93 -46 b 35 -278 93 -126 72 -207 l 504 -278 b 354 18 364 -176 354 -24 z "},"Q":{"ha":983,"x_min":0,"x_max":0,"o":"m 983 292 b 508 876 983 615 771 876 b 35 292 246 876 35 615 b 508 -294 35 -32 246 -294 b 692 -250 574 -294 635 -278 b 685 -289 690 -262 689 -275 b 506 -454 657 -399 582 -454 b 433 -437 481 -454 457 -449 b 188 -343 322 -381 264 -343 b 121 -351 167 -343 146 -346 b -50 -529 -21 -386 -50 -529 b 32 -510 -50 -529 -21 -510 b 218 -576 76 -510 140 -524 b 411 -639 283 -621 350 -639 b 679 -460 533 -639 638 -564 b 719 -239 717 -378 719 -264 l 719 -233 b 983 292 876 -137 983 61 z m 658 -44 b 508 -268 622 -181 565 -268 b 318 292 413 -268 318 -18 b 332 496 318 364 324 433 b 485 250 350 418 392 319 b 642 67 569 185 607 143 b 660 -19 656 36 660 7 b 658 -44 660 -28 658 -36 z m 678 44 b 500 271 638 163 576 213 b 450 318 481 285 465 301 b 376 547 393 385 376 469 b 407 743 376 628 394 701 b 447 818 415 769 428 796 b 508 851 467 839 488 851 b 700 292 606 851 700 600 b 678 44 700 203 692 119 z "},"R":{"ha":932,"x_min":0,"x_max":0,"o":"m 350 401 b 872 633 672 401 872 457 b 632 874 872 767 765 874 l 35 874 l 40 863 b 92 642 74 793 92 718 l 92 -46 b 35 -278 92 -126 72 -207 l 475 -278 b 354 1 364 -197 354 -58 l 354 29 b 190 379 354 235 257 335 b 179 400 182 385 179 393 b 197 426 179 411 185 422 b 354 642 263 450 354 508 l 354 643 b 433 846 354 789 392 846 b 539 657 483 846 539 764 b 246 408 539 463 344 424 b 238 399 240 407 238 403 b 244 390 238 396 240 392 b 599 146 363 363 526 332 b 607 89 601 138 607 115 b 571 -18 607 56 599 15 b 528 -136 546 -46 528 -92 b 701 -278 528 -207 572 -278 l 932 -278 b 868 -183 932 -278 868 -243 b 882 -132 868 -168 872 -150 b 932 42 914 -83 932 -25 b 350 401 932 286 629 401 z "},"S":{"ha":906,"x_min":0,"x_max":0,"o":"m 665 324 l 424 475 b 297 669 346 522 297 597 b 350 788 297 711 314 753 b 481 833 385 821 433 833 b 636 751 560 833 636 797 b 507 563 636 657 507 646 l 507 554 b 650 467 513 492 554 467 l 878 467 b 789 722 878 467 789 594 b 850 874 789 776 804 829 l 446 874 b 335 865 406 874 368 871 b 35 556 144 838 35 697 b 188 301 35 461 83 367 l 225 276 l 464 128 b 617 -86 551 74 617 -6 b 578 -189 617 -121 604 -156 b 472 -240 554 -219 508 -233 b 415 -246 454 -243 435 -246 b 378 -243 403 -246 390 -244 b 278 -164 329 -235 278 -214 b 411 42 278 -44 411 -65 b 257 128 411 104 351 128 l 35 128 b 113 -117 35 128 113 7 b 47 -278 113 -174 96 -232 l 513 -278 b 772 -203 614 -276 689 -257 b 906 18 863 -144 906 -64 b 747 272 906 113 849 208 z "},"T":{"ha":940,"x_min":0,"x_max":0,"o":"m 940 874 l 35 874 b 82 717 61 804 78 751 b 90 636 88 682 90 656 b 85 586 90 617 88 600 b 60 521 78 557 69 535 b 38 493 50 506 42 497 l 206 493 b 240 499 215 493 226 494 b 282 515 254 501 268 507 b 317 551 294 524 307 536 b 331 614 326 567 331 588 b 308 672 331 638 324 657 b 257 713 293 688 275 700 b 203 767 229 729 211 747 b 201 778 201 771 201 774 b 217 810 201 790 207 800 b 268 838 229 822 247 831 b 325 847 289 844 307 847 l 329 847 b 382 835 344 847 363 843 b 433 785 403 825 421 808 b 450 708 444 764 450 739 b 447 667 450 696 450 682 b 350 496 440 618 407 561 b 122 225 243 383 168 293 b 54 10 78 157 54 85 b 56 -17 54 1 56 -8 b 101 -140 60 -65 75 -106 b 185 -221 126 -175 154 -201 b 381 -281 244 -261 310 -281 b 415 -279 392 -281 404 -281 b 638 -237 489 -272 563 -258 b 704 -224 667 -229 689 -225 b 733 -224 718 -224 728 -224 b 774 -226 749 -224 763 -224 b 813 -240 789 -231 803 -235 b 836 -258 822 -247 831 -253 b 849 -275 842 -265 846 -271 b 850 -279 849 -276 849 -278 l 851 -282 b 853 -281 851 -281 851 -281 b 854 -278 853 -279 853 -279 b 864 -264 857 -274 860 -269 b 892 -215 872 -251 882 -236 b 913 -153 901 -194 908 -174 b 919 -97 918 -132 919 -114 b 917 -57 919 -85 919 -71 b 865 65 910 -10 892 31 b 754 128 839 100 801 121 l 747 128 b 738 129 746 128 742 128 b 693 124 726 129 711 128 b 631 96 674 119 653 110 b 561 31 607 81 585 60 b 494 -87 538 1 515 -39 b 446 -175 479 -125 463 -154 b 397 -224 429 -197 413 -214 b 358 -240 381 -233 368 -239 b 335 -243 349 -242 340 -243 b 314 -240 328 -243 321 -242 b 289 -231 303 -237 294 -235 b 282 -228 286 -229 283 -229 l 281 -228 b 279 -226 281 -226 281 -226 b 242 -149 254 -203 242 -178 b 250 -107 242 -136 244 -122 b 315 11 267 -62 289 -24 b 468 200 371 88 422 150 b 558 306 497 233 528 268 b 603 447 588 347 603 394 b 594 517 603 469 600 493 b 514 735 576 599 550 671 b 504 769 507 746 504 758 b 521 811 504 783 510 797 b 628 847 540 835 576 847 l 632 847 b 640 846 635 846 638 846 b 671 840 649 844 658 843 b 708 824 683 836 696 831 b 739 792 721 815 731 804 b 751 740 747 778 751 761 b 739 708 751 728 747 718 b 708 678 731 699 721 688 b 657 614 685 661 668 640 b 651 578 653 600 651 589 b 657 549 651 567 653 557 b 692 511 665 532 676 519 b 761 493 714 499 738 493 l 940 493 b 918 519 936 496 928 504 b 896 574 908 533 900 551 b 889 635 890 596 889 615 b 893 699 889 654 890 675 b 940 874 900 744 915 803 z "},"U":{"ha":881,"x_min":0,"x_max":0,"o":"m 710 874 b 547 750 657 874 576 835 b 539 676 547 750 539 725 b 665 318 539 604 560 479 b 774 25 747 193 774 96 b 735 -104 774 -39 753 -82 b 564 -192 715 -126 651 -192 b 354 18 482 -192 354 -151 l 354 642 b 407 863 354 718 372 794 l 413 874 l 35 874 l 36 869 b 92 642 72 800 92 721 l 92 99 b 442 -278 92 -99 244 -268 l 458 -278 b 825 89 661 -278 825 -114 l 825 638 b 881 874 825 719 844 800 z "},"V":{"ha":974,"x_min":0,"x_max":0,"o":"m 567 801 b 543 726 550 776 543 751 b 600 600 543 679 569 635 b 710 265 692 496 710 351 b 708 233 710 254 708 243 b 699 160 708 208 706 183 b 621 -112 699 160 624 -108 b 433 663 615 -112 433 663 b 424 746 429 681 424 711 b 479 874 424 794 435 847 l 35 874 b 161 649 89 831 133 763 l 332 -86 b 340 -167 338 -117 340 -143 b 317 -262 340 -208 332 -240 l 303 -278 l 714 -278 b 671 -119 714 -278 671 -233 b 694 42 671 -76 678 -24 l 860 681 b 974 874 872 725 917 849 l 729 874 b 567 801 729 874 614 874 z "},"W":{"ha":1443,"x_min":0,"x_max":0,"o":"m 1039 801 b 1017 726 1024 776 1017 751 b 1072 600 1017 679 1042 635 b 1181 260 1167 493 1181 344 l 1181 233 b 1169 160 1179 208 1176 183 b 1093 -112 1169 160 1096 -108 b 906 663 1088 -112 906 663 b 897 726 903 676 899 700 l 897 738 b 940 853 897 781 911 822 b 968 874 950 863 958 869 l 725 874 b 569 808 725 874 618 874 b 564 801 567 806 565 804 b 540 726 547 776 540 751 b 597 600 540 679 567 635 b 706 260 692 493 706 344 l 706 233 b 694 160 704 208 701 183 b 618 -112 694 160 621 -108 b 431 663 613 -112 431 663 b 421 746 426 681 421 711 b 476 874 421 794 432 847 l 35 874 b 160 649 89 831 132 763 l 329 -86 b 339 -168 335 -117 339 -144 b 314 -262 339 -210 329 -240 l 301 -278 l 710 -278 b 668 -119 710 -278 668 -233 b 690 42 668 -76 674 -22 l 735 214 l 804 -86 b 814 -168 810 -117 814 -144 b 789 -262 814 -210 804 -240 l 776 -278 l 1185 -278 b 1143 -119 1185 -278 1143 -233 b 1165 42 1143 -76 1149 -22 l 1331 681 b 1443 874 1343 725 1388 849 l 1201 874 b 1039 801 1201 874 1086 874 z "},"X":{"ha":1039,"x_min":0,"x_max":0,"o":"m 785 874 b 579 743 628 874 579 813 b 654 575 579 681 619 611 b 724 458 694 533 724 501 b 554 313 724 340 600 317 b 549 311 553 311 551 311 l 524 311 b 519 313 522 311 521 313 b 350 458 474 317 350 340 b 418 575 350 501 385 547 b 488 728 456 607 488 669 b 289 874 488 803 438 874 l 35 874 b 124 721 104 835 124 774 b 100 613 124 663 100 613 b 86 542 90 588 86 564 b 354 300 86 418 229 336 b 81 49 232 272 81 189 b 99 -37 81 22 86 -7 b 117 -133 99 -37 117 -81 b 35 -278 117 -183 100 -242 l 375 -278 b 501 -121 411 -278 501 -212 b 424 25 501 -76 481 -26 b 350 138 390 54 350 94 b 519 283 350 256 474 279 b 538 285 531 285 538 285 b 554 283 538 285 543 285 b 724 138 600 279 724 256 b 650 19 724 94 681 50 b 578 -125 597 -32 578 -82 b 690 -278 578 -214 653 -278 l 1039 -278 b 954 -118 972 -231 954 -169 b 978 -11 954 -58 978 -11 b 993 76 989 21 993 50 b 721 300 993 233 819 288 b 992 533 842 335 992 399 b 967 635 992 563 985 597 b 953 714 967 635 953 669 b 1039 874 953 764 969 828 z "},"Y":{"ha":1022,"x_min":0,"x_max":0,"o":"m 768 874 b 608 725 654 874 608 803 b 674 567 608 668 633 607 b 760 386 735 504 760 442 b 688 242 760 325 729 274 b 674 232 683 239 678 235 b 660 225 669 229 664 228 b 619 208 646 218 632 213 b 538 197 593 201 565 197 b 490 201 522 197 506 199 b 397 226 461 206 426 213 b 385 232 393 228 389 231 b 369 242 379 235 375 239 b 297 386 328 274 297 325 b 383 567 297 442 322 504 b 449 725 424 607 449 668 b 289 874 449 803 403 874 l 35 874 b 96 699 85 817 96 750 b 85 610 96 647 85 610 b 76 538 79 585 76 561 b 304 232 76 382 197 276 l 317 225 b 397 92 367 199 397 147 l 397 -46 b 340 -278 397 -126 378 -207 l 717 -278 b 660 -46 679 -207 660 -126 l 660 93 b 740 226 660 149 690 200 b 753 232 747 229 751 232 b 981 538 860 276 981 382 b 972 610 981 561 978 585 b 961 699 972 610 961 647 b 1022 874 961 750 974 817 z "},"Z":{"ha":913,"x_min":0,"x_max":0,"o":"m 718 7 b 490 -242 614 -35 588 -242 b 393 -193 451 -242 417 -224 b 321 29 356 -149 321 -64 b 519 331 321 139 369 257 b 914 826 872 501 914 729 b 910 874 914 856 910 874 l 264 874 b 51 914 106 874 51 914 l 51 711 b 172 561 51 682 57 561 b 253 576 194 561 221 565 b 454 782 332 604 404 731 b 540 843 493 825 514 843 b 594 753 575 843 593 804 l 594 739 b 407 374 594 653 569 465 b 35 -162 89 193 35 -29 b 50 -278 35 -232 50 -278 l 696 -278 b 910 -319 854 -278 910 -319 l 910 -124 b 785 21 910 -94 885 21 b 718 7 765 21 743 17 z "},"[":{"ha":556,"x_min":0,"x_max":0,"o":"m 556 1036 l 556 1063 l 35 1063 l 35 -467 l 556 -467 l 556 -440 l 297 -440 l 297 1036 z "},"\\":{"ha":479,"x_min":0,"x_max":0,"o":"m 63 874 l 35 874 l 451 -278 l 479 -278 z "},"]":{"ha":556,"x_min":0,"x_max":0,"o":"m 35 1036 l 293 1036 l 293 -440 l 35 -440 l 35 -467 l 556 -467 l 556 1063 l 35 1063 z "},"^":{"ha":471,"x_min":0,"x_max":0,"o":"m 253 1274 l 35 1029 l 53 1013 l 253 1196 l 453 1013 l 471 1029 z "},"_":{"ha":643,"x_min":0,"x_max":0,"o":"m 35 -278 l 643 -278 l 643 -251 l 35 -251 z "},"`":{"ha":261,"x_min":0,"x_max":0,"o":"m 242 1013 l 261 1028 l 82 1275 l 35 1239 z "},"a":{"ha":963,"x_min":0,"x_max":0,"o":"m 669 682 b 660 764 664 713 660 739 b 685 858 660 804 669 836 l 697 874 l 292 874 b 333 714 292 874 333 828 b 311 554 333 671 328 618 l 147 -85 b 35 -278 135 -129 90 -253 l 276 -278 b 436 -206 276 -278 390 -278 b 460 -131 453 -181 460 -156 b 403 -4 460 -83 433 -39 b 296 336 310 101 296 251 l 296 363 b 307 436 297 388 300 413 b 383 708 307 436 379 703 b 568 -67 389 708 568 -67 b 578 -150 572 -85 578 -117 b 524 -278 578 -199 567 -251 l 963 -278 b 838 -53 908 -235 865 -167 z "},"b":{"ha":933,"x_min":0,"x_max":0,"o":"m 351 401 b 874 633 672 401 874 457 b 633 874 874 767 765 874 l 35 874 l 40 863 b 93 642 75 794 93 718 l 93 -46 b 35 -278 93 -126 74 -207 l 585 -278 b 933 42 778 -278 933 -151 b 351 401 933 286 629 401 z m 501 -246 b 354 8 365 -246 354 -56 l 354 29 b 192 379 354 235 257 335 b 179 401 183 385 179 393 b 197 426 179 413 186 422 b 354 642 264 450 354 508 l 354 643 b 435 846 354 789 392 846 b 540 657 485 846 540 764 b 246 408 540 463 344 424 b 239 400 242 408 239 404 b 246 390 239 396 242 392 b 639 -46 403 353 639 263 b 501 -246 639 -124 607 -246 z "},"c":{"ha":933,"x_min":0,"x_max":0,"o":"m 522 874 l 497 872 b 35 292 239 858 35 603 b 521 -290 35 -31 251 -290 b 904 -35 638 -290 800 -279 b 647 -199 889 -64 799 -199 b 553 -182 618 -199 586 -194 b 325 292 460 -149 325 -15 b 618 847 325 589 443 847 l 632 847 b 725 750 696 847 725 801 b 685 650 725 715 711 678 b 504 454 611 576 543 511 b 464 325 478 415 464 368 b 628 167 464 242 515 167 l 910 167 b 826 463 874 217 826 315 b 847 642 826 515 832 575 b 933 874 878 771 933 874 z "},"d":{"ha":942,"x_min":0,"x_max":0,"o":"m 35 874 b 93 642 72 801 93 722 l 93 -46 b 86 -124 93 -72 90 -97 b 85 -135 86 -128 86 -132 b 83 -143 85 -137 83 -140 b 78 -165 82 -151 81 -158 l 78 -168 b 35 -278 68 -206 54 -243 l 467 -278 b 938 297 501 -278 929 -267 l 938 311 b 546 874 938 635 794 861 z m 354 -237 l 354 642 b 356 646 354 643 356 644 b 357 683 356 658 356 671 b 358 694 357 686 357 690 b 364 735 360 707 361 721 b 365 743 364 738 365 740 b 471 847 379 804 407 847 l 475 847 b 643 311 499 847 643 825 l 643 297 b 367 -237 639 -207 419 -237 z "},"e":{"ha":903,"x_min":0,"x_max":0,"o":"m 540 633 b 539 614 539 626 539 619 b 668 493 539 504 668 493 l 903 493 b 826 671 890 504 826 550 b 872 874 826 722 839 789 l 35 874 l 40 863 b 92 642 74 794 92 718 l 92 -32 b 35 -278 92 -118 72 -201 l 872 -278 b 826 -75 839 -193 826 -126 b 903 103 826 46 890 92 l 667 103 b 539 -10 667 103 539 92 b 547 -57 539 -24 542 -39 b 593 -128 551 -72 586 -114 b 601 -164 599 -140 601 -153 b 485 -253 601 -214 554 -253 b 463 -251 478 -253 469 -253 b 383 -197 428 -249 401 -233 b 354 -46 364 -162 354 -111 l 354 -10 b 156 249 354 150 217 224 b 144 264 156 249 144 253 l 144 265 b 161 278 144 272 151 278 l 235 278 b 460 190 235 278 365 274 b 504 174 472 179 488 174 b 556 197 524 174 543 182 b 685 296 611 261 685 296 b 557 389 628 318 585 356 b 506 413 543 406 525 413 b 458 394 489 413 471 407 b 235 304 411 353 336 306 l 157 304 b 144 319 151 304 144 310 b 156 335 144 331 156 335 b 354 593 217 360 354 432 l 354 642 b 463 847 354 722 357 839 b 488 850 471 849 479 850 b 603 758 546 850 603 810 b 593 721 603 746 600 733 b 540 633 571 679 543 651 z "},"f":{"ha":903,"x_min":0,"x_max":0,"o":"m 558 389 b 506 413 544 406 525 413 b 458 394 489 413 472 407 b 236 304 413 353 338 306 l 158 304 b 146 319 153 304 146 310 l 146 321 b 157 335 146 331 157 335 b 279 413 188 346 238 371 b 356 593 321 454 356 513 l 356 642 b 464 847 356 722 358 839 b 492 849 474 849 483 849 b 604 753 561 849 604 813 b 539 614 604 707 539 674 b 676 493 539 496 676 493 l 903 493 b 828 669 892 504 828 550 b 874 874 828 722 839 789 l 35 874 l 40 863 b 93 642 75 794 93 718 l 93 -46 b 35 -278 93 -126 74 -207 l 413 -278 b 356 -46 375 -207 356 -126 l 356 -10 b 157 249 356 150 218 224 b 146 264 157 249 146 253 l 146 265 b 163 278 146 272 153 278 l 236 278 b 461 190 236 278 367 274 b 504 174 474 179 489 174 b 557 197 524 174 543 182 b 686 296 613 261 686 296 b 558 389 628 318 586 356 z "},"g":{"ha":936,"x_min":0,"x_max":0,"o":"m 488 874 b 35 292 235 858 35 604 b 510 -290 35 -29 247 -290 b 635 -278 549 -290 590 -286 b 667 -269 646 -276 657 -274 b 779 -251 703 -257 742 -251 b 910 -278 824 -251 868 -260 l 913 -278 l 913 282 l 429 282 b 650 25 429 282 650 243 l 650 -190 b 604 -260 647 -243 628 -260 b 511 -214 571 -260 529 -226 b 318 292 424 -147 318 29 b 604 847 318 589 433 847 l 618 847 b 683 790 663 847 683 821 b 672 751 683 778 679 764 b 553 644 651 717 590 690 b 506 524 521 606 506 563 b 622 403 506 457 550 403 l 936 403 b 847 631 881 485 849 528 l 847 638 b 936 874 847 781 936 874 z "},"h":{"ha":932,"x_min":0,"x_max":0,"o":"m 932 874 l 649 874 b 564 821 613 874 578 854 b 554 768 557 803 554 785 b 760 500 554 640 719 518 b 783 467 775 493 783 481 b 746 429 783 447 769 429 l 732 429 b 525 533 636 432 567 489 b 483 553 514 546 499 553 b 442 533 468 553 453 546 b 235 429 400 489 331 432 l 219 429 b 182 467 196 429 182 447 b 206 500 182 481 190 493 b 417 757 246 518 417 621 b 401 826 417 779 413 803 b 328 874 389 856 360 874 l 35 874 l 46 853 b 93 653 76 790 93 722 l 93 -32 b 35 -278 93 -118 72 -201 l 221 -278 b 419 -83 332 -278 419 -189 b 417 -54 419 -74 418 -64 b 224 268 403 36 353 147 b 178 347 193 297 178 325 b 268 403 178 379 208 401 l 271 403 b 314 396 283 403 303 400 b 321 393 317 396 319 394 b 439 307 371 376 411 340 b 483 286 451 293 467 286 b 528 307 500 286 517 293 b 686 401 563 349 618 397 b 697 403 690 403 694 403 b 799 346 764 403 799 381 b 753 267 799 324 783 296 b 553 -26 633 153 576 54 b 544 -81 547 -44 544 -64 b 743 -278 544 -186 631 -278 l 932 -278 b 874 -46 894 -207 874 -126 l 874 644 b 925 860 874 719 892 793 z "},"i":{"ha":413,"x_min":0,"x_max":0,"o":"m 413 -278 b 354 -46 374 -207 354 -126 l 354 642 b 410 871 354 721 374 800 l 413 874 l 35 874 l 36 871 b 92 642 74 800 92 721 l 92 -46 b 35 -278 92 -126 72 -207 z "},"j":{"ha":413,"x_min":0,"x_max":0,"o":"m 40 863 b 93 642 75 794 93 718 l 93 -144 b -115 -446 93 -264 24 -407 l -47 -446 b 354 -44 175 -446 354 -267 l 354 642 b 411 869 354 721 374 800 l 413 874 l 35 874 z "},"k":{"ha":933,"x_min":0,"x_max":0,"o":"m 882 -132 b 933 42 914 -83 933 -25 b 351 401 933 286 629 401 b 874 633 672 401 874 457 b 863 704 874 658 869 682 b 858 715 861 708 860 713 b 849 767 851 735 849 751 b 922 874 849 843 922 874 l 660 874 b 517 754 607 874 517 836 b 574 567 517 653 574 633 b 571 542 574 558 572 550 b 440 439 564 501 513 464 b 231 415 392 422 282 415 l 188 415 b 174 428 179 415 174 422 b 181 439 174 432 176 436 b 354 642 244 474 354 546 l 354 649 b 410 869 356 725 375 801 l 413 874 l 35 874 l 36 869 b 93 633 74 796 93 715 l 93 -46 b 35 -278 93 -126 72 -207 l 467 -278 b 354 13 358 -203 354 -37 l 354 29 b 183 372 354 222 236 332 b 179 379 181 374 179 376 b 189 389 179 385 183 389 l 256 389 b 599 146 374 389 529 328 b 608 88 603 138 608 115 b 571 -18 608 56 600 15 b 529 -136 547 -46 529 -92 b 701 -278 529 -208 572 -278 l 933 -278 b 868 -182 933 -278 868 -243 b 882 -132 868 -167 872 -150 z "},"l":{"ha":811,"x_min":0,"x_max":0,"o":"m 492 -46 b 497 -94 492 -62 493 -79 b 501 -126 500 -106 501 -115 b 371 -251 501 -193 443 -251 l 193 -251 b 181 -240 186 -251 181 -246 b 186 -231 181 -236 182 -233 b 354 150 243 -187 354 -74 l 354 642 b 413 874 354 722 374 801 l 35 874 b 92 628 72 797 92 714 l 92 -46 b 36 -275 92 -125 74 -204 l 35 -278 l 782 -278 b 735 -74 747 -193 735 -126 b 811 103 735 46 799 92 l 650 103 b 492 -46 635 103 492 99 z "},"m":{"ha":983,"x_min":0,"x_max":0,"o":"m 983 874 l 664 874 l 546 593 b 492 557 536 569 514 557 b 438 593 469 557 447 569 l 319 874 l 35 874 b 40 861 38 869 39 865 l 58 818 l 58 817 b 90 638 81 760 90 700 l 90 -43 b 35 -278 90 -124 71 -206 l 238 -278 b 386 -122 301 -278 386 -242 b 383 -83 386 -110 385 -97 b 117 572 369 33 117 243 l 117 638 b 118 676 117 651 117 664 l 168 557 l 168 556 l 188 510 b 189 508 188 510 188 508 b 358 346 217 446 276 346 b 542 515 456 346 521 469 b 549 533 546 526 549 533 l 664 806 l 664 -46 b 606 -278 664 -126 643 -207 l 983 -278 b 925 -46 944 -207 925 -126 l 925 633 b 981 869 925 715 944 797 z "},"n":{"ha":865,"x_min":0,"x_max":0,"o":"m 682 874 b 590 835 647 874 614 861 b 557 751 574 815 557 790 b 572 675 557 731 561 706 b 785 196 633 503 785 494 l 785 -43 b 782 -99 785 -61 783 -79 l 354 810 b 254 874 336 849 297 874 l 35 874 l 49 846 l 49 844 b 90 638 76 779 90 710 l 90 -43 b 35 -278 90 -124 72 -206 l 219 -278 b 311 -239 254 -278 288 -265 b 342 -151 328 -219 342 -192 b 325 -67 342 -128 338 -100 b 117 456 263 113 117 104 l 117 638 b 119 693 117 657 118 675 l 556 -232 b 628 -278 568 -260 596 -278 l 865 -278 l 853 -250 b 810 -43 825 -185 810 -114 l 810 638 b 865 874 810 719 829 800 z "},"o":{"ha":983,"x_min":0,"x_max":0,"o":"m 508 882 b 35 296 247 882 35 619 b 508 -289 35 -28 247 -289 b 983 296 771 -289 983 -28 b 508 882 983 619 771 882 z m 592 -203 b 510 -264 565 -242 538 -264 b 318 296 413 -264 318 -12 b 333 501 318 369 324 438 b 485 256 351 424 392 325 b 533 215 503 242 518 228 b 643 -31 604 151 643 61 b 592 -203 643 -90 626 -150 z m 678 46 b 500 276 658 126 600 200 b 450 322 482 290 465 306 b 376 553 393 390 376 475 b 407 747 376 633 394 706 b 447 822 415 775 428 801 b 510 856 468 844 489 856 b 700 296 606 856 700 606 b 678 46 700 206 692 121 z "},"p":{"ha":874,"x_min":0,"x_max":0,"o":"m 354 29 b 192 379 354 235 257 335 b 179 401 183 385 179 393 b 197 426 179 411 186 422 b 354 642 263 450 354 508 l 354 643 b 433 846 354 789 392 846 b 539 657 483 846 539 764 b 246 408 539 463 344 421 b 236 400 239 407 236 404 b 246 390 236 396 239 392 b 428 378 246 390 325 378 b 874 633 614 378 874 417 b 633 874 874 767 765 874 l 35 874 l 40 863 b 93 642 75 793 93 718 l 93 -46 b 35 -278 93 -126 72 -207 l 504 -278 b 354 18 364 -176 354 -24 z "},"q":{"ha":983,"x_min":0,"x_max":0,"o":"m 983 292 b 508 876 983 615 771 876 b 35 292 246 876 35 615 b 508 -294 35 -32 246 -294 b 692 -250 574 -294 635 -278 b 685 -289 690 -262 689 -275 b 506 -454 657 -399 582 -454 b 433 -437 481 -454 457 -449 b 188 -343 322 -381 264 -343 b 121 -351 167 -343 146 -346 b -50 -529 -21 -386 -50 -529 b 32 -510 -50 -529 -21 -510 b 218 -576 76 -510 140 -524 b 411 -639 283 -621 350 -639 b 679 -460 533 -639 638 -564 b 719 -239 717 -378 719 -264 l 719 -233 b 983 292 876 -137 983 61 z m 658 -44 b 508 -268 622 -181 565 -268 b 318 292 413 -268 318 -18 b 332 496 318 364 324 433 b 485 250 350 418 392 319 b 642 67 569 185 607 143 b 660 -19 656 36 660 7 b 658 -44 660 -28 658 -36 z m 678 44 b 500 271 638 163 576 213 b 450 318 481 285 465 301 b 376 547 393 385 376 469 b 407 743 376 628 394 701 b 447 818 415 769 428 796 b 508 851 467 839 488 851 b 700 292 606 851 700 600 b 678 44 700 203 692 119 z "},"r":{"ha":932,"x_min":0,"x_max":0,"o":"m 350 401 b 872 633 672 401 872 457 b 632 874 872 767 765 874 l 35 874 l 40 863 b 92 642 74 793 92 718 l 92 -46 b 35 -278 92 -126 72 -207 l 475 -278 b 354 1 364 -197 354 -58 l 354 29 b 190 379 354 235 257 335 b 179 400 182 385 179 393 b 197 426 179 411 185 422 b 354 642 263 450 354 508 l 354 643 b 433 846 354 789 392 846 b 539 657 483 846 539 764 b 246 408 539 463 344 424 b 238 399 240 407 238 403 b 244 390 238 396 240 392 b 599 146 363 363 526 332 b 607 89 601 138 607 115 b 571 -18 607 56 599 15 b 528 -136 546 -46 528 -92 b 701 -278 528 -207 572 -278 l 932 -278 b 868 -183 932 -278 868 -243 b 882 -132 868 -168 872 -150 b 932 42 914 -83 932 -25 b 350 401 932 286 629 401 z "},"s":{"ha":906,"x_min":0,"x_max":0,"o":"m 665 324 l 424 475 b 297 669 346 522 297 597 b 350 788 297 711 314 753 b 481 833 385 821 433 833 b 636 751 560 833 636 797 b 507 563 636 657 507 646 l 507 554 b 650 467 513 492 554 467 l 878 467 b 789 722 878 467 789 594 b 850 874 789 776 804 829 l 446 874 b 335 865 406 874 368 871 b 35 556 144 838 35 697 b 188 301 35 461 83 367 l 225 276 l 464 128 b 617 -86 551 74 617 -6 b 578 -189 617 -121 604 -156 b 472 -240 554 -219 508 -233 b 415 -246 454 -243 435 -246 b 378 -243 403 -246 390 -244 b 278 -164 329 -235 278 -214 b 411 42 278 -44 411 -65 b 257 128 411 104 351 128 l 35 128 b 113 -117 35 128 113 7 b 47 -278 113 -174 96 -232 l 513 -278 b 772 -203 614 -276 689 -257 b 906 18 863 -144 906 -64 b 747 272 906 113 849 208 z "},"t":{"ha":940,"x_min":0,"x_max":0,"o":"m 940 874 l 35 874 b 82 717 61 804 78 751 b 90 636 88 682 90 656 b 85 586 90 617 88 600 b 60 521 78 557 69 535 b 38 493 50 506 42 497 l 206 493 b 240 499 215 493 226 494 b 282 515 254 501 268 507 b 317 551 294 524 307 536 b 331 614 326 567 331 588 b 308 672 331 638 324 657 b 257 713 293 688 275 700 b 203 767 229 729 211 747 b 201 778 201 771 201 774 b 217 810 201 790 207 800 b 268 838 229 822 247 831 b 325 847 289 844 307 847 l 329 847 b 382 835 344 847 363 843 b 433 785 403 825 421 808 b 450 708 444 764 450 739 b 447 667 450 696 450 682 b 350 496 440 618 407 561 b 122 225 243 383 168 293 b 54 10 78 157 54 85 b 56 -17 54 1 56 -8 b 101 -140 60 -65 75 -106 b 185 -221 126 -175 154 -201 b 381 -281 244 -261 310 -281 b 415 -279 392 -281 404 -281 b 638 -237 489 -272 563 -258 b 704 -224 667 -229 689 -225 b 733 -224 718 -224 728 -224 b 774 -226 749 -224 763 -224 b 813 -240 789 -231 803 -235 b 836 -258 822 -247 831 -253 b 849 -275 842 -265 846 -271 b 850 -279 849 -276 849 -278 l 851 -282 b 853 -281 851 -281 851 -281 b 854 -278 853 -279 853 -279 b 864 -264 857 -274 860 -269 b 892 -215 872 -251 882 -236 b 913 -153 901 -194 908 -174 b 919 -97 918 -132 919 -114 b 917 -57 919 -85 919 -71 b 865 65 910 -10 892 31 b 754 128 839 100 801 121 l 747 128 b 738 129 746 128 742 128 b 693 124 726 129 711 128 b 631 96 674 119 653 110 b 561 31 607 81 585 60 b 494 -87 538 1 515 -39 b 446 -175 479 -125 463 -154 b 397 -224 429 -197 413 -214 b 358 -240 381 -233 368 -239 b 335 -243 349 -242 340 -243 b 314 -240 328 -243 321 -242 b 289 -231 303 -237 294 -235 b 282 -228 286 -229 283 -229 l 281 -228 b 279 -226 281 -226 281 -226 b 242 -149 254 -203 242 -178 b 250 -107 242 -136 244 -122 b 315 11 267 -62 289 -24 b 468 200 371 88 422 150 b 558 306 497 233 528 268 b 603 447 588 347 603 394 b 594 517 603 469 600 493 b 514 735 576 599 550 671 b 504 769 507 746 504 758 b 521 811 504 783 510 797 b 628 847 540 835 576 847 l 632 847 b 640 846 635 846 638 846 b 671 840 649 844 658 843 b 708 824 683 836 696 831 b 739 792 721 815 731 804 b 751 740 747 778 751 761 b 739 708 751 728 747 718 b 708 678 731 699 721 688 b 657 614 685 661 668 640 b 651 578 653 600 651 589 b 657 549 651 567 653 557 b 692 511 665 532 676 519 b 761 493 714 499 738 493 l 940 493 b 918 519 936 496 928 504 b 896 574 908 533 900 551 b 889 635 890 596 889 615 b 893 699 889 654 890 675 b 940 874 900 744 915 803 z "},"u":{"ha":881,"x_min":0,"x_max":0,"o":"m 710 874 b 547 750 657 874 576 835 b 539 676 547 750 539 725 b 665 318 539 604 560 479 b 774 25 747 193 774 96 b 735 -104 774 -39 753 -82 b 564 -192 715 -126 651 -192 b 354 18 482 -192 354 -151 l 354 642 b 407 863 354 718 372 794 l 413 874 l 35 874 l 36 869 b 92 642 72 800 92 721 l 92 99 b 442 -278 92 -99 244 -268 l 458 -278 b 825 89 661 -278 825 -114 l 825 638 b 881 874 825 719 844 800 z "},"v":{"ha":974,"x_min":0,"x_max":0,"o":"m 567 801 b 543 726 550 776 543 751 b 600 600 543 679 569 635 b 710 265 692 496 710 351 b 708 233 710 254 708 243 b 699 160 708 208 706 183 b 621 -112 699 160 624 -108 b 433 663 615 -112 433 663 b 424 746 429 681 424 711 b 479 874 424 794 435 847 l 35 874 b 161 649 89 831 133 763 l 332 -86 b 340 -167 338 -117 340 -143 b 317 -262 340 -208 332 -240 l 303 -278 l 714 -278 b 671 -119 714 -278 671 -233 b 694 42 671 -76 678 -24 l 860 681 b 974 874 872 725 917 849 l 729 874 b 567 801 729 874 614 874 z "},"w":{"ha":1443,"x_min":0,"x_max":0,"o":"m 1039 801 b 1017 726 1024 776 1017 751 b 1072 600 1017 679 1042 635 b 1181 260 1167 493 1181 344 l 1181 233 b 1169 160 1179 208 1176 183 b 1093 -112 1169 160 1096 -108 b 906 663 1088 -112 906 663 b 897 726 903 676 899 700 l 897 738 b 940 853 897 781 911 822 b 968 874 950 863 958 869 l 725 874 b 569 808 725 874 618 874 b 564 801 567 806 565 804 b 540 726 547 776 540 751 b 597 600 540 679 567 635 b 706 260 692 493 706 344 l 706 233 b 694 160 704 208 701 183 b 618 -112 694 160 621 -108 b 431 663 613 -112 431 663 b 421 746 426 681 421 711 b 476 874 421 794 432 847 l 35 874 b 160 649 89 831 132 763 l 329 -86 b 339 -168 335 -117 339 -144 b 314 -262 339 -210 329 -240 l 301 -278 l 710 -278 b 668 -119 710 -278 668 -233 b 690 42 668 -76 674 -22 l 735 214 l 804 -86 b 814 -168 810 -117 814 -144 b 789 -262 814 -210 804 -240 l 776 -278 l 1185 -278 b 1143 -119 1185 -278 1143 -233 b 1165 42 1143 -76 1149 -22 l 1331 681 b 1443 874 1343 725 1388 849 l 1201 874 b 1039 801 1201 874 1086 874 z "},"x":{"ha":1039,"x_min":0,"x_max":0,"o":"m 785 874 b 579 743 628 874 579 813 b 654 575 579 681 619 611 b 724 458 694 533 724 501 b 554 313 724 340 600 317 b 549 311 553 311 551 311 l 524 311 b 519 313 522 311 521 313 b 350 458 474 317 350 340 b 418 575 350 501 385 547 b 488 728 456 607 488 669 b 289 874 488 803 438 874 l 35 874 b 124 721 104 835 124 774 b 100 613 124 663 100 613 b 86 542 90 588 86 564 b 354 300 86 418 229 336 b 81 49 232 272 81 189 b 99 -37 81 22 86 -7 b 117 -133 99 -37 117 -81 b 35 -278 117 -183 100 -242 l 375 -278 b 501 -121 411 -278 501 -212 b 424 25 501 -76 481 -26 b 350 138 390 54 350 94 b 519 283 350 256 474 279 b 538 285 531 285 538 285 b 554 283 538 285 543 285 b 724 138 600 279 724 256 b 650 19 724 94 681 50 b 578 -125 597 -32 578 -82 b 690 -278 578 -214 653 -278 l 1039 -278 b 954 -118 972 -231 954 -169 b 978 -11 954 -58 978 -11 b 993 76 989 21 993 50 b 721 300 993 233 819 288 b 992 533 842 335 992 399 b 967 635 992 563 985 597 b 953 714 967 635 953 669 b 1039 874 953 764 969 828 z "},"y":{"ha":1022,"x_min":0,"x_max":0,"o":"m 768 874 b 608 725 654 874 608 803 b 674 567 608 668 633 607 b 760 386 735 504 760 442 b 688 242 760 325 729 274 b 674 232 683 239 678 235 b 660 225 669 229 664 228 b 619 208 646 218 632 213 b 538 197 593 201 565 197 b 490 201 522 197 506 199 b 397 226 461 206 426 213 b 385 232 393 228 389 231 b 369 242 379 235 375 239 b 297 386 328 274 297 325 b 383 567 297 442 322 504 b 449 725 424 607 449 668 b 289 874 449 803 403 874 l 35 874 b 96 699 85 817 96 750 b 85 610 96 647 85 610 b 76 538 79 585 76 561 b 304 232 76 382 197 276 l 317 225 b 397 92 367 199 397 147 l 397 -46 b 340 -278 397 -126 378 -207 l 717 -278 b 660 -46 679 -207 660 -126 l 660 93 b 740 226 660 149 690 200 b 753 232 747 229 751 232 b 981 538 860 276 981 382 b 972 610 981 561 978 585 b 961 699 972 610 961 647 b 1022 874 961 750 974 817 z "},"z":{"ha":913,"x_min":0,"x_max":0,"o":"m 718 7 b 490 -242 614 -35 588 -242 b 393 -193 451 -242 417 -224 b 321 29 356 -149 321 -64 b 519 331 321 139 369 257 b 914 826 872 501 914 729 b 910 874 914 856 910 874 l 264 874 b 51 914 106 874 51 914 l 51 711 b 172 561 51 682 57 561 b 253 576 194 561 221 565 b 454 782 332 604 404 731 b 540 843 493 825 514 843 b 594 753 575 843 593 804 l 594 739 b 407 374 594 653 569 465 b 35 -162 89 193 35 -29 b 50 -278 35 -232 50 -278 l 696 -278 b 910 -319 854 -278 910 -319 l 910 -124 b 785 21 910 -94 885 21 b 718 7 765 21 743 17 z "},"{":{"ha":729,"x_min":0,"x_max":0,"o":"m 471 778 b 729 1036 471 921 586 1036 l 729 1063 l 507 1063 b 208 764 342 1063 208 929 l 208 557 b 35 299 208 443 140 342 l 35 297 b 208 39 140 254 208 153 l 208 -168 b 507 -467 208 -333 342 -467 l 729 -467 l 729 -440 b 471 -182 586 -440 471 -325 l 471 -147 b 197 260 471 32 363 192 l 104 299 l 197 336 b 471 743 363 404 471 565 z "},"|":{"ha":61,"x_min":0,"x_max":0,"o":"m 61 -278 l 61 874 l 35 874 l 35 -278 z "},"}":{"ha":729,"x_min":0,"x_max":0,"o":"m 293 -182 b 35 -440 293 -325 178 -440 l 35 -467 l 257 -467 b 556 -168 421 -467 556 -333 l 556 39 b 729 297 556 153 624 254 b 556 557 624 342 556 443 l 556 764 b 257 1063 556 929 421 1063 l 35 1063 l 35 1036 b 293 778 178 1036 293 921 l 293 743 b 565 336 293 564 401 404 l 660 297 l 565 260 b 293 -147 401 192 293 31 z "},"~":{"ha":549,"x_min":0,"x_max":0,"o":"m 35 292 l 57 276 l 61 281 b 74 292 64 283 68 288 b 124 322 85 301 101 314 b 158 332 135 328 146 331 b 197 328 171 332 183 332 b 215 321 203 326 210 325 b 235 310 222 318 229 315 b 254 297 242 306 249 303 l 274 279 l 293 263 b 319 244 300 257 311 250 b 347 231 328 238 338 235 b 376 222 357 226 367 225 b 399 219 385 221 392 219 b 435 224 411 219 424 222 b 482 244 453 229 469 236 b 533 293 508 261 524 279 b 544 310 539 300 542 306 b 549 317 547 314 549 317 l 526 331 l 522 326 b 510 315 519 324 515 319 b 460 283 499 306 482 293 b 425 274 450 278 438 275 b 411 272 421 274 415 272 b 388 276 403 272 396 274 b 350 293 375 279 361 285 l 340 299 l 336 301 l 332 306 l 290 342 b 265 360 283 349 274 354 b 238 374 257 365 247 369 b 208 382 229 378 218 379 b 182 385 200 383 190 385 b 150 382 171 385 160 383 b 125 374 142 379 132 376 b 103 363 117 369 110 367 b 50 314 76 346 60 328 b 39 299 44 307 42 301 b 35 292 36 294 35 292 z "},"¡":{"ha":413,"x_min":0,"x_max":0,"o":"m 93 285 b 225 154 93 213 153 154 b 356 285 297 154 356 213 b 225 415 356 357 297 415 b 93 285 153 415 93 357 z m 35 -737 l 413 -737 l 411 -733 b 225 114 374 -662 225 114 b 36 -733 225 114 74 -662 z "},"¢":{"ha":933,"x_min":0,"x_max":0,"o":"m 563 526 b 538 496 554 515 544 506 b 506 456 525 482 515 468 b 465 326 479 417 465 371 b 538 190 465 271 489 218 b 563 178 544 185 554 181 b 629 167 582 171 604 167 l 910 167 b 826 463 874 218 826 317 b 849 642 826 515 833 575 b 933 875 878 772 933 875 l 563 875 l 563 1029 l 538 1029 l 538 875 l 524 875 l 499 874 b 35 293 240 860 35 604 b 522 -289 35 -29 253 -289 l 538 -289 l 538 -433 l 563 -433 l 563 -289 b 904 -36 675 -283 811 -251 b 649 -197 885 -71 794 -197 b 563 -183 622 -197 593 -193 b 554 -181 560 -183 557 -182 b 538 -174 549 -178 543 -176 b 326 293 446 -131 326 4 b 538 828 326 542 408 763 b 563 839 546 833 554 836 b 619 849 581 846 600 849 l 633 849 b 726 751 697 849 726 803 b 686 651 726 717 713 679 b 563 526 640 606 599 564 z "},"£":{"ha":882,"x_min":0,"x_max":0,"o":"m 561 -46 b 568 -94 561 -62 564 -79 b 572 -125 571 -104 572 -115 b 442 -251 572 -193 514 -251 l 217 -251 b 204 -240 210 -251 204 -246 b 210 -231 204 -236 206 -233 b 378 150 265 -187 378 -74 l 378 285 l 550 285 l 550 311 l 378 311 l 378 721 b 485 849 378 836 454 849 b 497 847 493 849 497 847 b 578 757 557 847 578 808 b 568 690 578 736 574 714 b 561 642 564 675 561 658 b 721 493 561 497 706 493 l 882 493 b 781 765 868 507 781 624 b 799 874 781 800 786 838 l 460 874 b 115 529 269 874 115 719 l 115 311 l 35 311 l 35 285 l 115 285 l 115 -46 b 60 -274 115 -125 96 -204 l 57 -278 l 853 -278 b 806 -74 818 -193 806 -126 b 882 103 806 46 869 92 l 721 103 b 561 -46 706 103 561 99 z "},"¤":{"ha":492,"x_min":0,"x_max":0,"o":"m 492 297 b 433 450 492 356 469 410 l 488 504 l 469 522 l 415 468 b 263 526 374 504 321 526 b 111 468 204 526 151 504 l 57 522 l 39 504 l 93 450 b 35 297 57 410 35 356 b 92 146 35 239 56 186 l 39 92 l 57 74 l 110 126 b 263 68 150 90 204 68 b 417 126 322 68 375 90 l 469 74 l 488 92 l 435 146 b 492 297 471 186 492 239 z m 397 146 b 263 94 361 114 314 94 b 129 146 211 94 164 114 b 110 164 122 151 117 157 b 60 297 79 200 60 246 b 111 432 60 349 79 396 l 129 450 b 263 500 165 481 213 500 b 396 450 314 500 361 481 b 415 432 403 444 410 438 b 467 297 447 396 467 349 b 415 164 467 246 447 200 b 397 146 410 157 404 151 z "},"¥":{"ha":1021,"x_min":0,"x_max":0,"o":"m 960 699 b 1021 874 960 750 972 817 l 768 874 b 608 725 654 874 608 803 b 674 567 608 668 633 607 b 760 388 735 506 760 443 b 688 242 760 325 729 274 b 672 232 682 239 678 236 b 658 225 668 229 664 228 b 618 210 646 218 632 213 b 538 199 592 201 564 199 b 490 201 521 199 506 200 b 397 226 461 206 426 213 b 383 232 393 228 388 231 b 369 242 379 236 374 239 b 297 388 328 274 297 325 b 383 567 297 443 322 506 b 449 725 424 607 449 668 b 288 874 449 803 401 874 l 35 874 b 96 699 83 817 96 750 b 83 611 96 647 83 611 b 75 540 78 586 75 563 b 304 232 75 382 197 276 b 317 225 304 232 315 226 b 392 131 354 206 382 171 l 224 131 l 224 104 l 396 104 b 397 92 397 100 397 96 l 397 29 l 224 29 l 224 3 l 397 3 l 397 -46 b 339 -278 397 -126 378 -206 l 717 -278 b 658 -46 679 -206 658 -126 l 658 3 l 832 3 l 832 29 l 658 29 l 658 93 b 660 104 658 97 660 100 l 832 104 l 832 131 l 664 131 b 740 226 674 171 701 206 b 753 232 746 229 751 232 b 981 539 860 276 981 382 b 972 611 981 561 978 586 b 960 699 972 611 960 647 z "},"¦":{"ha":61,"x_min":0,"x_max":0,"o":"m 35 874 l 35 368 l 61 368 l 61 874 z m 35 -278 l 61 -278 l 61 228 l 35 228 z "},"§":{"ha":976,"x_min":0,"x_max":0,"o":"m 840 85 b 807 104 831 92 818 99 b 813 107 808 106 811 106 b 840 122 822 113 832 117 b 936 265 906 163 936 214 b 836 419 936 321 901 376 b 789 446 822 429 806 438 l 711 482 l 685 496 l 567 550 l 504 581 l 485 590 b 367 728 413 625 367 676 b 417 813 367 758 382 788 b 539 846 449 836 494 846 b 685 786 614 846 685 819 b 563 651 685 719 563 713 l 563 646 b 697 585 568 601 607 585 l 911 585 b 828 767 911 585 828 676 b 885 874 828 804 842 843 l 504 874 b 401 868 468 874 433 872 b 119 647 222 847 119 749 b 203 501 119 596 146 543 b 231 483 211 494 221 489 b 203 464 221 476 211 471 b 121 317 150 422 121 369 l 121 304 b 183 186 122 263 143 222 b 263 135 204 167 231 150 l 299 117 l 347 94 l 464 39 l 514 15 l 522 11 b 667 -143 606 -28 667 -85 b 631 -215 667 -167 656 -192 b 531 -251 607 -236 564 -246 b 482 -254 514 -254 499 -254 b 442 -253 468 -254 454 -254 b 347 -197 396 -247 347 -232 b 474 -50 347 -112 474 -126 b 328 11 474 -6 417 11 l 119 11 b 192 -162 119 11 192 -75 b 131 -278 192 -204 176 -244 l 568 -278 b 813 -225 663 -278 735 -264 b 938 -68 897 -183 938 -125 b 840 85 938 -14 903 42 z m 426 293 b 368 378 396 319 375 349 b 367 394 367 383 367 389 b 369 415 367 401 367 408 l 522 343 b 663 211 594 308 650 261 b 665 190 665 204 665 197 b 664 172 665 185 665 178 l 663 174 l 485 258 b 467 267 478 261 472 264 b 426 293 451 275 439 285 z "},"¨":{"ha":603,"x_min":0,"x_max":0,"o":"m 296 1143 b 165 1274 296 1215 238 1274 b 35 1143 93 1274 35 1215 b 165 1013 35 1071 93 1013 b 296 1143 238 1013 296 1071 z m 603 1143 b 472 1274 603 1215 544 1274 b 342 1143 400 1274 342 1215 b 472 1013 342 1071 400 1013 b 603 1143 544 1013 603 1071 z "},"©":{"ha":1125,"x_min":0,"x_max":0,"o":"m 579 838 b 35 293 279 838 35 593 b 579 -253 35 -8 279 -253 b 1125 293 881 -253 1125 -8 b 579 838 1125 593 881 838 z m 579 -226 b 60 293 293 -226 60 7 b 579 811 60 579 293 811 b 1099 293 865 811 1099 579 b 579 -226 1099 7 865 -226 z m 567 640 l 551 639 b 275 293 397 631 275 479 b 565 -54 275 101 406 -54 b 794 99 636 -54 732 -47 b 642 1 785 81 732 1 b 585 13 625 1 606 6 b 449 293 529 32 449 110 b 624 624 449 471 519 624 l 632 624 b 688 565 669 624 688 596 b 664 507 688 544 679 522 b 556 389 619 463 579 424 b 532 313 540 365 532 339 b 629 218 532 263 563 218 l 797 218 b 747 396 776 247 747 308 b 760 501 747 428 751 463 b 811 640 778 579 811 640 z "},"ª":{"ha":413,"x_min":0,"x_max":0,"o":"m 400 538 b 371 511 400 538 394 511 b 344 538 346 511 344 538 l 344 779 b 290 857 344 825 317 847 b 240 867 265 867 240 867 l 125 867 b 53 882 71 867 53 882 l 53 818 b 68 785 53 806 58 793 b 100 772 75 778 85 772 b 132 779 108 772 119 775 b 208 850 168 792 181 832 b 231 856 214 854 222 856 b 256 842 240 856 251 851 b 263 810 261 831 263 819 b 154 731 263 749 164 733 b 35 593 63 704 35 651 b 168 471 35 529 83 471 b 188 472 174 471 181 472 b 246 508 231 476 246 508 b 264 483 250 497 257 490 b 310 468 283 468 310 468 b 413 531 400 468 413 531 z m 246 593 b 188 482 246 529 236 482 b 133 593 158 483 133 531 b 199 722 133 632 142 694 l 246 746 z "},"«":{"ha":840,"x_min":0,"x_max":0,"o":"m 479 464 l 479 493 l 35 303 l 479 113 l 479 142 l 101 303 z m 840 464 l 840 493 l 396 303 l 840 113 l 840 142 l 463 303 z "},"¬":{"ha":883,"x_min":0,"x_max":0,"o":"m 35 311 l 35 285 l 857 285 l 857 72 l 883 72 l 883 311 z "},"®":{"ha":1125,"x_min":0,"x_max":0,"o":"m 579 846 b 35 300 279 846 35 601 b 579 -244 35 0 279 -244 b 1125 300 881 -244 1125 0 b 579 846 1125 601 881 846 z m 579 -219 b 60 300 293 -219 60 14 b 579 819 60 586 293 819 b 1099 300 865 819 1099 586 b 579 -219 1099 14 865 -219 z m 500 361 b 811 500 692 361 811 394 b 668 644 811 579 747 644 l 311 644 l 315 638 b 346 506 335 596 346 551 l 346 96 b 311 -43 346 47 335 0 l 574 -43 b 501 131 504 8 501 100 l 501 136 b 503 140 503 139 503 140 b 404 349 503 263 444 322 b 397 361 400 351 397 357 b 408 376 397 368 401 374 b 503 506 447 392 503 425 l 503 507 b 550 628 503 594 525 628 b 613 514 579 628 613 578 b 438 367 613 399 496 375 b 433 361 435 367 433 364 b 438 356 433 358 435 357 b 647 210 507 339 606 321 b 653 175 650 204 653 190 b 631 113 653 156 649 132 b 606 42 617 96 606 68 b 710 -43 606 -1 632 -43 l 847 -43 b 808 14 847 -43 808 -22 b 817 44 808 24 811 33 b 847 147 836 72 847 107 b 500 361 847 293 667 361 z "},"¯":{"ha":357,"x_min":0,"x_max":0,"o":"m 35 1132 l 357 1132 l 357 1158 l 35 1158 z "},"°":{"ha":296,"x_min":0,"x_max":0,"o":"m 165 1013 b 296 1143 238 1013 296 1071 b 165 1274 296 1215 238 1274 b 35 1143 93 1274 35 1215 b 165 1013 35 1071 93 1013 z m 165 1253 b 256 1143 226 1253 256 1204 b 165 1032 256 1082 226 1032 b 76 1143 104 1032 76 1082 b 165 1253 76 1204 104 1253 z "},"±":{"ha":643,"x_min":0,"x_max":0,"o":"m 643 311 l 351 311 l 351 603 l 326 603 l 326 311 l 35 311 l 35 285 l 326 285 l 326 -7 l 351 -7 l 351 285 l 643 285 z m 35 -69 l 643 -69 l 643 -43 l 35 -43 z "},"²":{"ha":332,"x_min":0,"x_max":0,"o":"m 250 550 b 179 483 218 539 203 500 b 164 478 174 479 168 478 b 129 507 149 478 135 490 b 126 532 126 515 126 524 b 174 621 126 565 140 604 b 332 753 238 657 332 674 b 189 882 332 825 268 882 b 78 840 151 882 106 874 b 57 782 69 828 57 806 b 67 747 57 771 60 758 b 150 708 89 711 135 708 l 154 708 b 135 782 147 719 135 749 l 135 792 b 189 874 138 832 161 874 b 242 753 218 874 242 819 b 161 631 242 751 242 672 b 58 489 71 583 58 519 b 60 468 58 476 60 468 l 256 468 b 324 454 306 468 324 454 l 324 514 b 310 546 324 525 318 538 b 279 556 303 551 293 556 b 250 550 271 556 261 554 z "},"³":{"ha":324,"x_min":0,"x_max":0,"o":"m 190 724 b 299 868 290 771 299 868 l 117 868 b 50 882 67 868 50 882 l 50 824 b 64 792 50 811 54 800 b 89 782 69 786 78 782 b 115 788 97 782 106 783 b 185 858 151 800 149 850 b 190 860 186 858 189 860 b 213 846 200 860 208 854 b 219 813 217 838 219 825 b 208 765 219 796 215 778 b 139 718 192 739 161 725 b 131 715 136 717 133 717 b 118 710 126 714 122 713 b 94 697 110 707 101 701 l 138 665 b 176 714 140 706 161 714 b 233 594 213 713 233 660 b 181 474 233 528 210 474 b 126 556 153 474 129 515 l 126 565 b 146 639 126 597 139 626 l 143 639 b 58 600 132 639 82 636 b 49 564 51 588 49 576 b 69 507 49 540 61 518 b 181 464 97 472 143 464 b 324 593 260 464 324 522 b 190 724 324 663 265 719 z "},"´":{"ha":261,"x_min":0,"x_max":0,"o":"m 54 1013 l 261 1239 l 215 1275 l 35 1028 z "},"µ":{"ha":881,"x_min":0,"x_max":0,"o":"m 354 18 l 354 642 b 407 863 354 718 372 792 l 413 874 l 35 874 l 36 869 b 92 642 74 797 92 721 l 92 -239 b 35 -471 92 -319 72 -397 l 413 -471 b 354 -262 378 -404 358 -335 b 442 -278 382 -271 411 -276 l 450 -278 b 714 -174 554 -278 642 -243 b 825 89 788 -103 825 -15 l 825 638 b 881 874 825 719 843 799 l 710 874 b 621 844 683 874 654 864 b 547 750 588 824 563 793 l 547 749 b 546 746 547 747 547 747 b 542 721 546 742 544 733 b 539 685 540 711 539 699 b 542 635 539 669 540 653 b 574 499 544 597 556 551 b 665 318 592 444 622 385 b 774 42 738 203 774 110 l 774 36 b 735 -104 771 -35 758 -81 b 701 -136 728 -112 717 -124 b 643 -174 686 -150 667 -162 b 564 -192 619 -186 593 -192 b 474 -174 536 -192 506 -186 b 390 -111 442 -162 414 -142 b 354 18 367 -82 354 -39 z "},"¶":{"ha":722,"x_min":0,"x_max":0,"o":"m 460 874 l 460 -278 l 722 -278 l 722 874 z m 35 601 b 307 329 35 450 157 329 l 399 329 l 399 -278 l 425 -278 l 425 874 l 307 874 b 35 601 157 874 35 751 z "},"·":{"ha":296,"x_min":0,"x_max":0,"o":"m 296 365 b 258 458 296 401 283 432 b 165 496 232 483 201 496 b 74 458 129 496 99 483 b 35 365 47 432 35 401 b 74 274 35 329 47 299 b 165 235 99 247 129 235 b 258 274 201 235 232 247 b 296 365 283 299 296 329 z "},"∙":{"ha":296,"x_min":0,"x_max":0,"o":"m 296 365 b 258 458 296 401 283 432 b 165 496 232 483 201 496 b 74 458 129 496 99 483 b 35 365 47 432 35 401 b 74 274 35 329 47 299 b 165 235 99 247 129 235 b 258 274 201 235 232 247 b 296 365 283 299 296 329 z "},"¸":{"ha":539,"x_min":0,"x_max":0,"o":"m 297 61 l 271 61 l 271 -176 b 297 -175 275 -175 293 -175 b 474 -321 417 -181 474 -240 b 285 -462 474 -404 410 -462 b 99 -326 168 -462 113 -401 l 35 -347 b 285 -493 53 -429 158 -493 b 539 -321 425 -493 539 -415 b 297 -149 539 -229 432 -153 z "},"¹":{"ha":165,"x_min":0,"x_max":0,"o":"m 165 468 b 146 550 153 493 146 521 l 146 868 l 35 824 b 56 767 56 811 56 778 l 56 550 b 35 468 56 521 49 493 z "},"º":{"ha":342,"x_min":0,"x_max":0,"o":"m 189 872 b 35 669 103 872 35 781 b 189 465 35 557 103 465 b 342 669 272 465 342 557 b 189 872 342 781 272 872 z m 188 475 b 126 669 157 475 126 561 b 188 863 126 776 157 863 b 250 669 219 863 250 776 b 188 475 250 561 219 475 z "},"»":{"ha":840,"x_min":0,"x_max":0,"o":"m 396 464 l 774 303 l 396 142 l 396 113 l 840 303 l 396 493 z m 35 464 l 413 303 l 35 142 l 35 113 l 479 303 l 35 493 z "},"¼":{"ha":736,"x_min":0,"x_max":0,"o":"m 506 874 l 89 -278 l 117 -278 l 533 874 z m 200 371 b 174 474 183 403 174 438 l 174 875 l 35 818 b 60 751 58 804 60 769 l 60 474 b 35 371 60 438 51 403 z m 736 -144 l 736 -133 l 696 -133 l 696 90 l 582 64 l 582 -133 l 392 -133 b 575 113 486 -72 547 8 b 578 142 578 122 578 132 b 511 225 578 185 556 225 l 424 225 b 446 110 424 225 442 160 b 447 85 446 101 447 93 b 356 -125 447 -64 356 -125 l 364 -144 l 582 -144 l 582 -176 b 556 -278 582 -211 572 -247 l 721 -278 b 696 -176 704 -247 696 -211 l 696 -144 z "},"½":{"ha":721,"x_min":0,"x_max":0,"o":"m 506 874 l 89 -278 l 117 -278 l 533 874 z m 200 371 b 175 474 183 403 175 438 l 175 875 l 35 818 b 61 747 61 803 61 761 l 61 474 b 35 371 61 438 51 403 z m 617 -175 b 528 -260 576 -189 557 -237 b 507 -267 521 -264 514 -267 b 465 -229 489 -267 471 -250 b 461 -197 463 -219 461 -208 b 519 -86 461 -157 479 -108 b 721 81 601 -40 721 -21 b 540 243 721 171 640 243 b 400 190 493 243 435 233 b 374 118 389 175 374 149 b 386 72 374 103 376 88 b 492 24 415 26 476 24 l 496 24 b 471 118 486 39 471 76 l 471 128 b 540 232 475 179 504 232 b 606 79 576 232 606 164 b 504 -75 606 79 606 -22 b 374 -253 390 -135 374 -214 b 376 -278 374 -268 376 -278 l 624 -278 b 708 -296 688 -278 708 -296 l 708 -221 b 692 -182 708 -206 703 -192 b 653 -168 683 -174 671 -168 b 617 -175 643 -168 631 -169 z "},"¾":{"ha":872,"x_min":0,"x_max":0,"o":"m 399 529 b 231 692 399 615 325 686 b 368 875 356 753 368 875 l 139 875 b 54 893 75 875 54 893 l 54 818 b 71 778 54 803 60 788 b 106 767 79 771 90 767 b 136 772 114 767 125 768 b 224 863 182 789 179 853 b 231 864 226 863 228 864 b 258 847 242 864 253 857 b 268 806 265 836 268 821 b 253 746 268 783 263 761 b 165 685 232 713 194 694 b 157 682 163 683 160 683 b 140 676 150 681 146 678 b 110 658 129 671 119 665 l 164 619 b 211 681 168 667 192 681 l 214 681 b 285 529 258 679 285 613 b 219 378 285 446 256 378 b 150 481 183 378 154 429 l 150 494 b 175 586 150 535 165 571 l 174 586 b 65 536 161 586 94 583 b 51 490 56 521 51 506 b 79 419 51 460 68 433 b 219 365 114 375 171 365 b 399 529 318 365 399 439 z m 642 874 l 225 -278 l 253 -278 l 671 874 z m 872 -144 l 872 -133 l 833 -133 l 833 90 l 718 64 l 718 -133 l 529 -133 b 711 113 624 -72 685 8 b 715 142 714 122 715 132 b 649 225 715 185 692 225 l 561 225 b 582 110 561 225 579 160 b 583 82 583 100 583 90 b 493 -125 583 -65 493 -125 l 501 -144 l 718 -144 l 718 -176 b 693 -278 718 -211 710 -247 l 858 -278 b 833 -176 842 -247 833 -211 l 833 -144 z "},"¿":{"ha":800,"x_min":0,"x_max":0,"o":"m 458 168 b 585 294 528 168 585 225 b 458 419 585 364 528 419 b 332 294 389 419 332 364 b 458 168 332 225 389 168 z m 431 -728 b 739 -611 536 -728 664 -706 b 800 -451 764 -579 800 -519 b 771 -351 800 -419 792 -385 b 538 -244 708 -251 574 -244 l 528 -244 b 585 -450 551 -278 585 -357 b 583 -475 585 -458 583 -467 b 431 -703 575 -587 510 -703 b 288 -414 353 -703 288 -596 l 288 -408 b 413 -153 288 -368 289 -278 b 499 -15 474 -93 499 -58 b 493 28 499 -1 497 13 b 464 129 481 76 464 129 b 453 72 464 129 458 108 b 331 -72 439 -19 392 -46 b 35 -412 182 -137 35 -246 b 431 -728 35 -611 213 -728 z "},"À":{"ha":963,"x_min":0,"x_max":0,"o":"m 669 682 b 660 764 664 713 660 739 b 685 858 660 804 669 836 l 697 874 l 292 874 b 333 714 292 874 333 828 b 311 554 333 671 328 618 l 147 -85 b 35 -278 135 -129 90 -253 l 276 -278 b 436 -206 276 -278 390 -278 b 460 -131 453 -181 460 -156 b 403 -4 460 -83 433 -39 b 296 336 310 101 296 251 l 296 363 b 307 436 297 388 300 413 b 383 708 307 436 379 703 b 568 -67 389 708 568 -67 b 578 -150 572 -85 578 -117 b 524 -278 578 -199 567 -251 l 963 -278 b 838 -53 908 -235 865 -167 z m 549 942 l 568 957 l 389 1204 l 342 1168 z "},"Á":{"ha":963,"x_min":0,"x_max":0,"o":"m 669 682 b 660 764 664 713 660 739 b 685 858 660 804 669 836 l 697 874 l 292 874 b 333 714 292 874 333 828 b 311 554 333 671 328 618 l 147 -85 b 35 -278 135 -129 90 -253 l 276 -278 b 436 -206 276 -278 390 -278 b 460 -131 453 -181 460 -156 b 403 -4 460 -83 433 -39 b 296 336 310 101 296 251 l 296 363 b 307 436 297 388 300 413 b 383 708 307 436 379 703 b 568 -67 389 708 568 -67 b 578 -150 572 -85 578 -117 b 524 -278 578 -199 567 -251 l 963 -278 b 838 -53 908 -235 865 -167 z m 436 942 l 643 1168 l 597 1204 l 417 957 z "},"Â":{"ha":963,"x_min":0,"x_max":0,"o":"m 669 682 b 660 764 664 713 660 739 b 685 858 660 804 669 836 l 697 874 l 292 874 b 333 714 292 874 333 828 b 311 554 333 671 328 618 l 147 -85 b 35 -278 135 -129 90 -253 l 276 -278 b 436 -206 276 -278 390 -278 b 460 -131 453 -181 460 -156 b 403 -4 460 -83 433 -39 b 296 336 310 101 296 251 l 296 363 b 307 436 297 388 300 413 b 383 708 307 436 379 703 b 568 -67 389 708 568 -67 b 578 -150 572 -85 578 -117 b 524 -278 578 -199 567 -251 l 963 -278 b 838 -53 908 -235 865 -167 z m 493 1203 l 275 958 l 293 942 l 493 1125 l 693 942 l 711 958 z "},"Ã":{"ha":963,"x_min":0,"x_max":0,"o":"m 669 682 b 660 764 664 713 660 739 b 685 858 660 804 669 836 l 697 874 l 292 874 b 333 714 292 874 333 828 b 311 554 333 671 328 618 l 147 -85 b 35 -278 135 -129 90 -253 l 276 -278 b 436 -206 276 -278 390 -278 b 460 -131 453 -181 460 -156 b 403 -4 460 -83 433 -39 b 296 336 310 101 296 251 l 296 363 b 307 436 297 388 300 413 b 383 708 307 436 379 703 b 568 -67 389 708 568 -67 b 578 -150 572 -85 578 -117 b 524 -278 578 -199 567 -251 l 963 -278 b 838 -53 908 -235 865 -167 z m 236 1064 l 258 1049 l 263 1053 b 275 1064 265 1056 269 1060 b 325 1094 286 1074 303 1086 b 360 1104 336 1100 347 1103 b 399 1100 372 1104 385 1104 b 417 1093 404 1099 411 1097 b 436 1082 424 1090 431 1088 b 456 1069 443 1078 450 1075 l 475 1051 l 494 1035 b 521 1017 501 1029 513 1022 b 549 1003 529 1010 539 1007 b 578 994 558 999 568 997 b 600 992 586 993 593 992 b 636 996 613 992 625 994 b 683 1017 654 1001 671 1008 b 735 1065 710 1033 725 1051 b 746 1082 740 1072 743 1078 b 750 1089 749 1086 750 1089 l 728 1103 l 724 1099 b 711 1088 721 1096 717 1092 b 661 1056 700 1078 683 1065 b 626 1046 651 1050 639 1047 b 613 1044 622 1046 617 1044 b 589 1049 604 1044 597 1046 b 551 1065 576 1051 563 1057 l 542 1071 l 538 1074 l 533 1078 l 492 1114 b 467 1132 485 1121 475 1126 b 439 1146 458 1138 449 1142 b 410 1154 431 1150 419 1151 b 383 1157 401 1156 392 1157 b 351 1154 372 1157 361 1156 b 326 1146 343 1151 333 1149 b 304 1135 318 1142 311 1139 b 251 1086 278 1118 261 1100 b 240 1071 246 1079 243 1074 b 236 1064 238 1067 236 1064 z "},"Ä":{"ha":963,"x_min":0,"x_max":0,"o":"m 669 682 b 660 764 664 713 660 739 b 685 858 660 804 669 836 l 697 874 l 292 874 b 333 714 292 874 333 828 b 311 554 333 671 328 618 l 147 -85 b 35 -278 135 -129 90 -253 l 276 -278 b 436 -206 276 -278 390 -278 b 460 -131 453 -181 460 -156 b 403 -4 460 -83 433 -39 b 296 336 310 101 296 251 l 296 363 b 307 436 297 388 300 413 b 383 708 307 436 379 703 b 568 -67 389 708 568 -67 b 578 -150 572 -85 578 -117 b 524 -278 578 -199 567 -251 l 963 -278 b 838 -53 908 -235 865 -167 z m 471 1072 b 340 1203 471 1144 413 1203 b 210 1072 268 1203 210 1144 b 340 942 210 1000 268 942 b 471 1072 413 942 471 1000 z m 778 1072 b 647 1203 778 1144 719 1203 b 517 1072 575 1203 517 1144 b 647 942 517 1000 575 942 b 778 1072 719 942 778 1000 z "},"Å":{"ha":963,"x_min":0,"x_max":0,"o":"m 669 682 b 660 764 664 713 660 739 b 685 858 660 804 669 836 l 697 874 l 292 874 b 333 714 292 874 333 828 b 311 554 333 671 328 618 l 147 -85 b 35 -278 135 -129 90 -253 l 276 -278 b 436 -206 276 -278 390 -278 b 460 -131 453 -181 460 -156 b 403 -4 460 -83 433 -39 b 296 336 310 101 296 251 l 296 363 b 307 436 297 388 300 413 b 383 708 307 436 379 703 b 568 -67 389 708 568 -67 b 578 -150 572 -85 578 -117 b 524 -278 578 -199 567 -251 l 963 -278 b 838 -53 908 -235 865 -167 z m 493 942 b 624 1072 565 942 624 1000 b 493 1203 624 1144 565 1203 b 363 1072 421 1203 363 1144 b 493 942 363 1000 421 942 z m 493 1182 b 583 1072 554 1182 583 1133 b 493 961 583 1011 554 961 b 404 1072 432 961 404 1011 b 493 1182 404 1133 432 1182 z "},"Æ":{"ha":1396,"x_min":0,"x_max":0,"o":"m 763 274 l 768 274 b 856 250 792 271 821 263 b 956 190 890 238 924 217 b 999 175 968 179 982 175 l 1006 175 b 1051 197 1024 176 1039 183 b 1110 251 1069 218 1089 236 b 1160 285 1129 267 1146 278 b 1178 294 1169 289 1175 293 b 1179 296 1179 294 1179 294 l 1181 296 b 1051 389 1124 321 1081 351 b 1017 413 1039 404 1026 411 b 1001 414 1007 414 1001 414 b 953 394 983 414 968 407 b 863 335 929 374 900 353 b 756 306 832 319 796 310 l 738 382 b 813 460 765 401 790 428 b 849 593 836 494 849 539 l 849 642 b 854 728 849 668 850 697 b 883 808 858 758 868 785 b 957 847 899 831 922 843 b 982 849 965 849 974 849 b 1068 818 1015 849 1043 839 b 1097 761 1088 801 1097 782 b 1088 721 1097 749 1094 735 b 1057 672 1078 703 1067 686 b 1036 633 1044 656 1038 643 b 1035 610 1035 625 1035 617 b 1042 571 1035 594 1036 582 b 1074 529 1049 553 1060 539 b 1114 506 1086 518 1100 510 b 1150 496 1128 500 1140 497 b 1158 494 1154 494 1157 494 b 1161 493 1160 493 1160 493 l 1397 493 b 1393 496 1396 494 1394 494 b 1351 547 1382 503 1368 521 b 1324 629 1333 574 1325 600 b 1322 678 1322 657 1322 674 b 1368 874 1322 729 1338 794 l 292 874 l 293 872 l 294 868 b 303 857 296 865 299 861 b 325 801 310 844 318 826 b 335 703 332 776 335 743 b 311 554 333 663 326 613 l 147 -85 b 125 -149 143 -100 135 -122 b 86 -226 115 -175 101 -201 b 35 -278 71 -251 53 -268 l 283 -278 b 294 -276 286 -276 290 -276 b 339 -268 307 -275 321 -272 b 392 -247 357 -264 374 -257 b 436 -206 410 -237 424 -224 b 460 -128 451 -179 460 -153 b 456 -96 460 -117 458 -106 b 403 -4 446 -61 428 -31 b 311 185 353 58 322 122 b 294 333 300 247 294 296 b 296 363 294 343 294 353 b 307 436 297 388 300 413 l 307 438 b 308 440 307 439 307 439 b 315 467 310 444 311 454 l 315 468 b 317 471 317 469 317 469 l 317 474 b 318 476 318 475 318 475 b 344 569 325 503 335 535 b 371 664 354 604 363 636 b 383 708 378 690 382 706 b 404 631 385 707 392 682 b 451 439 417 579 433 515 b 506 208 469 363 488 285 b 550 14 524 132 538 67 b 568 -65 560 -32 567 -58 l 568 -67 b 578 -131 572 -82 576 -104 l 578 -135 b 532 -272 568 -182 553 -228 l 524 -278 l 1368 -278 b 1322 -82 1338 -199 1322 -133 l 1322 -69 b 1351 49 1324 -17 1333 22 b 1393 99 1368 75 1382 92 l 1397 103 l 1160 103 b 1156 101 1158 103 1157 103 b 1146 100 1154 101 1150 101 b 1107 89 1135 99 1122 94 b 1065 63 1092 83 1078 75 b 1039 25 1051 50 1043 38 b 1035 -10 1036 11 1035 0 b 1042 -57 1035 -24 1036 -39 b 1053 -75 1043 -61 1047 -68 b 1069 -101 1058 -83 1064 -92 b 1088 -128 1078 -112 1083 -121 b 1096 -167 1093 -142 1096 -154 b 1072 -219 1096 -186 1089 -204 b 976 -253 1050 -242 1018 -253 l 957 -251 b 926 -244 946 -250 936 -249 b 851 -100 897 -210 872 -162 b 849 -46 850 -83 849 -65 l 849 -10 b 813 124 849 44 836 89 b 790 153 806 133 797 143 z "},"Ç":{"ha":933,"x_min":0,"x_max":0,"o":"m 521 -290 l 521 -467 b 529 -465 522 -465 525 -465 b 540 -465 533 -465 536 -465 b 547 -465 544 -465 546 -465 b 681 -511 607 -469 651 -485 b 724 -611 710 -537 724 -571 b 676 -712 724 -653 708 -686 b 535 -753 644 -739 597 -753 b 403 -714 476 -753 432 -740 b 349 -617 374 -687 356 -656 l 285 -637 b 371 -742 294 -681 324 -715 b 535 -783 417 -769 472 -783 b 715 -732 606 -783 665 -767 b 789 -611 764 -699 789 -658 b 719 -493 789 -565 765 -525 b 547 -439 674 -461 615 -443 l 547 -290 b 649 -276 579 -289 613 -283 b 785 -210 694 -268 740 -246 b 904 -35 829 -174 869 -115 b 851 -104 897 -49 881 -72 b 751 -175 822 -136 789 -160 b 651 -199 714 -190 681 -199 b 553 -182 621 -199 589 -193 b 453 -112 521 -171 488 -147 b 363 39 418 -78 388 -26 b 325 292 338 104 325 189 b 363 567 325 390 338 482 b 465 771 386 651 421 719 b 618 847 508 822 560 847 l 632 847 b 706 815 668 847 693 836 b 726 749 719 794 726 772 b 725 731 726 743 726 736 b 685 650 721 700 707 674 l 651 617 b 504 454 589 557 539 503 b 465 361 479 414 467 383 b 465 325 465 339 465 326 b 504 215 465 282 478 246 b 628 167 531 183 571 167 l 910 167 b 847 304 882 201 861 247 b 825 454 832 361 825 411 b 847 642 825 510 833 572 b 903 807 864 707 882 763 l 933 874 l 522 874 l 497 872 b 167 690 365 861 254 800 b 35 292 79 581 35 447 b 100 -1 35 185 57 86 b 276 -211 143 -89 203 -160 b 521 -290 350 -264 431 -290 z "},"È":{"ha":903,"x_min":0,"x_max":0,"o":"m 540 633 b 539 614 539 626 539 619 b 668 493 539 504 668 493 l 903 493 b 826 671 890 504 826 550 b 872 874 826 722 839 789 l 35 874 l 40 863 b 92 642 74 794 92 718 l 92 -32 b 35 -278 92 -118 72 -201 l 872 -278 b 826 -75 839 -193 826 -126 b 903 103 826 46 890 92 l 667 103 b 539 -10 667 103 539 92 b 547 -57 539 -24 542 -39 b 593 -128 551 -72 586 -114 b 601 -164 599 -140 601 -153 b 485 -253 601 -214 554 -253 b 463 -251 478 -253 469 -253 b 383 -197 428 -249 401 -233 b 354 -46 364 -162 354 -111 l 354 -10 b 156 249 354 150 217 224 b 144 264 156 249 144 253 l 144 265 b 161 278 144 272 151 278 l 235 278 b 460 190 235 278 365 274 b 504 174 472 179 488 174 b 556 197 524 174 543 182 b 685 296 611 261 685 296 b 557 389 628 318 585 356 b 506 413 543 406 525 413 b 458 394 489 413 471 407 b 235 304 411 353 336 306 l 157 304 b 144 319 151 304 144 310 b 156 335 144 331 156 335 b 354 593 217 360 354 432 l 354 642 b 463 847 354 722 357 839 b 488 850 471 849 479 850 b 603 758 546 850 603 810 b 593 721 603 746 600 733 b 540 633 571 679 543 651 z m 524 942 l 543 957 l 364 1204 l 317 1168 z "},"É":{"ha":903,"x_min":0,"x_max":0,"o":"m 540 633 b 539 614 539 626 539 619 b 668 493 539 504 668 493 l 903 493 b 826 671 890 504 826 550 b 872 874 826 722 839 789 l 35 874 l 40 863 b 92 642 74 794 92 718 l 92 -32 b 35 -278 92 -118 72 -201 l 872 -278 b 826 -75 839 -193 826 -126 b 903 103 826 46 890 92 l 667 103 b 539 -10 667 103 539 92 b 547 -57 539 -24 542 -39 b 593 -128 551 -72 586 -114 b 601 -164 599 -140 601 -153 b 485 -253 601 -214 554 -253 b 463 -251 478 -253 469 -253 b 383 -197 428 -249 401 -233 b 354 -46 364 -162 354 -111 l 354 -10 b 156 249 354 150 217 224 b 144 264 156 249 144 253 l 144 265 b 161 278 144 272 151 278 l 235 278 b 460 190 235 278 365 274 b 504 174 472 179 488 174 b 556 197 524 174 543 182 b 685 296 611 261 685 296 b 557 389 628 318 585 356 b 506 413 543 406 525 413 b 458 394 489 413 471 407 b 235 304 411 353 336 306 l 157 304 b 144 319 151 304 144 310 b 156 335 144 331 156 335 b 354 593 217 360 354 432 l 354 642 b 463 847 354 722 357 839 b 488 850 471 849 479 850 b 603 758 546 850 603 810 b 593 721 603 746 600 733 b 540 633 571 679 543 651 z m 411 942 l 618 1168 l 572 1204 l 392 957 z "},"Ê":{"ha":903,"x_min":0,"x_max":0,"o":"m 540 633 b 539 614 539 626 539 619 b 668 493 539 504 668 493 l 903 493 b 826 671 890 504 826 550 b 872 874 826 722 839 789 l 35 874 l 40 863 b 92 642 74 794 92 718 l 92 -32 b 35 -278 92 -118 72 -201 l 872 -278 b 826 -75 839 -193 826 -126 b 903 103 826 46 890 92 l 667 103 b 539 -10 667 103 539 92 b 547 -57 539 -24 542 -39 b 593 -128 551 -72 586 -114 b 601 -164 599 -140 601 -153 b 485 -253 601 -214 554 -253 b 463 -251 478 -253 469 -253 b 383 -197 428 -249 401 -233 b 354 -46 364 -162 354 -111 l 354 -10 b 156 249 354 150 217 224 b 144 264 156 249 144 253 l 144 265 b 161 278 144 272 151 278 l 235 278 b 460 190 235 278 365 274 b 504 174 472 179 488 174 b 556 197 524 174 543 182 b 685 296 611 261 685 296 b 557 389 628 318 585 356 b 506 413 543 406 525 413 b 458 394 489 413 471 407 b 235 304 411 353 336 306 l 157 304 b 144 319 151 304 144 310 b 156 335 144 331 156 335 b 354 593 217 360 354 432 l 354 642 b 463 847 354 722 357 839 b 488 850 471 849 479 850 b 603 758 546 850 603 810 b 593 721 603 746 600 733 b 540 633 571 679 543 651 z m 468 1203 l 250 958 l 268 942 l 468 1125 l 668 942 l 686 958 z "},"Ë":{"ha":903,"x_min":0,"x_max":0,"o":"m 540 633 b 539 614 539 626 539 619 b 668 493 539 504 668 493 l 903 493 b 826 671 890 504 826 550 b 872 874 826 722 839 789 l 35 874 l 40 863 b 92 642 74 794 92 718 l 92 -32 b 35 -278 92 -118 72 -201 l 872 -278 b 826 -75 839 -193 826 -126 b 903 103 826 46 890 92 l 667 103 b 539 -10 667 103 539 92 b 547 -57 539 -24 542 -39 b 593 -128 551 -72 586 -114 b 601 -164 599 -140 601 -153 b 485 -253 601 -214 554 -253 b 463 -251 478 -253 469 -253 b 383 -197 428 -249 401 -233 b 354 -46 364 -162 354 -111 l 354 -10 b 156 249 354 150 217 224 b 144 264 156 249 144 253 l 144 265 b 161 278 144 272 151 278 l 235 278 b 460 190 235 278 365 274 b 504 174 472 179 488 174 b 556 197 524 174 543 182 b 685 296 611 261 685 296 b 557 389 628 318 585 356 b 506 413 543 406 525 413 b 458 394 489 413 471 407 b 235 304 411 353 336 306 l 157 304 b 144 319 151 304 144 310 b 156 335 144 331 156 335 b 354 593 217 360 354 432 l 354 642 b 463 847 354 722 357 839 b 488 850 471 849 479 850 b 603 758 546 850 603 810 b 593 721 603 746 600 733 b 540 633 571 679 543 651 z m 446 1072 b 315 1203 446 1144 388 1203 b 185 1072 243 1203 185 1144 b 315 942 185 1000 243 942 b 446 1072 388 942 446 1000 z m 753 1072 b 622 1203 753 1144 694 1203 b 492 1072 550 1203 492 1144 b 622 942 492 1000 550 942 b 753 1072 694 942 753 1000 z "},"Ì":{"ha":413,"x_min":0,"x_max":0,"o":"m 413 -278 b 354 -46 374 -207 354 -126 l 354 642 b 410 871 354 721 374 800 l 413 874 l 35 874 l 36 871 b 92 642 74 800 92 721 l 92 -46 b 35 -278 92 -126 72 -207 z m 279 942 l 299 957 l 119 1204 l 72 1168 z "},"Í":{"ha":413,"x_min":0,"x_max":0,"o":"m 413 -278 b 354 -46 374 -207 354 -126 l 354 642 b 410 871 354 721 374 800 l 413 874 l 35 874 l 36 871 b 92 642 74 800 92 721 l 92 -46 b 35 -278 92 -126 72 -207 z m 167 942 l 374 1168 l 328 1204 l 147 957 z "},"Î":{"ha":413,"x_min":0,"x_max":0,"o":"m 413 -278 b 354 -46 374 -207 354 -126 l 354 642 b 410 871 354 721 374 800 l 413 874 l 35 874 l 36 871 b 92 642 74 800 92 721 l 92 -46 b 35 -278 92 -126 72 -207 z m 224 1203 l 6 958 l 24 942 l 224 1125 l 424 942 l 442 958 z "},"Ï":{"ha":413,"x_min":0,"x_max":0,"o":"m 413 -278 b 354 -46 374 -207 354 -126 l 354 642 b 410 871 354 721 374 800 l 413 874 l 35 874 l 36 871 b 92 642 74 800 92 721 l 92 -46 b 35 -278 92 -126 72 -207 z m 201 1072 b 71 1203 201 1144 143 1203 b -60 1072 -1 1203 -60 1144 b 71 942 -60 1000 -1 942 b 201 1072 143 942 201 1000 z m 508 1072 b 378 1203 508 1144 450 1203 b 247 1072 306 1203 247 1144 b 378 942 247 1000 306 942 b 508 1072 450 942 508 1000 z "},"Ð":{"ha":942,"x_min":0,"x_max":0,"o":"m 354 285 l 449 285 l 449 311 l 354 311 l 354 643 b 356 646 356 644 356 644 b 357 683 356 658 356 671 b 358 694 357 688 357 690 b 364 735 360 707 361 721 l 364 738 b 365 743 365 739 365 742 b 399 819 372 775 383 800 b 471 847 414 838 439 847 l 479 847 b 499 843 483 847 490 846 b 526 825 507 839 517 833 b 558 789 536 817 547 804 b 590 725 569 772 581 751 b 618 626 600 699 610 665 b 636 488 625 588 632 542 b 643 297 640 433 643 369 b 621 58 642 201 635 122 b 567 -97 606 -7 588 -58 b 497 -186 544 -136 521 -165 b 429 -226 474 -207 450 -219 b 375 -237 407 -233 389 -237 l 354 -237 z m 93 311 l -160 311 l -160 285 l 93 285 l 93 -46 b 86 -124 93 -72 90 -97 l 86 -129 b 85 -135 85 -131 85 -133 b 83 -139 85 -136 85 -137 l 83 -143 b 82 -150 82 -144 82 -147 b 78 -165 81 -154 79 -160 l 78 -168 b 35 -278 68 -206 53 -243 l 465 -278 b 510 -274 471 -276 486 -275 l 513 -274 b 629 -244 544 -271 583 -261 b 768 -158 675 -228 721 -199 b 886 13 814 -118 854 -61 b 938 297 918 86 935 181 l 938 304 b 838 704 938 468 904 601 b 546 874 769 808 672 864 l 35 874 b 93 642 74 800 93 722 z "},"Ñ":{"ha":865,"x_min":0,"x_max":0,"o":"m 682 874 b 590 835 647 874 614 861 b 557 751 574 815 557 790 b 572 675 557 731 561 706 b 785 196 633 503 785 494 l 785 -43 b 782 -99 785 -61 783 -79 l 354 810 b 254 874 336 849 297 874 l 35 874 l 49 846 l 49 844 b 90 638 76 779 90 710 l 90 -43 b 35 -278 90 -124 72 -206 l 219 -278 b 311 -239 254 -278 288 -265 b 342 -151 328 -219 342 -192 b 325 -67 342 -128 338 -100 b 117 456 263 113 117 104 l 117 638 b 119 693 117 657 118 675 l 556 -232 b 628 -278 568 -260 596 -278 l 865 -278 l 853 -250 b 810 -43 825 -185 810 -114 l 810 638 b 865 874 810 719 829 800 z m 193 1064 l 215 1049 l 219 1053 b 232 1064 222 1056 226 1060 b 282 1094 243 1074 260 1086 b 317 1104 293 1100 304 1103 b 356 1100 329 1104 342 1104 b 374 1093 361 1099 368 1097 b 393 1082 381 1090 388 1088 b 413 1069 400 1078 407 1075 l 432 1051 l 451 1035 b 478 1017 458 1029 469 1022 b 506 1003 486 1010 496 1007 b 535 994 515 999 525 997 b 557 992 543 993 550 992 b 593 996 569 992 582 994 b 640 1017 611 1001 628 1008 b 692 1065 667 1033 682 1051 b 703 1082 697 1072 700 1078 b 707 1089 706 1086 707 1089 l 685 1103 l 681 1099 b 668 1088 678 1096 674 1092 b 618 1056 657 1078 640 1065 b 583 1046 608 1050 596 1047 b 569 1044 579 1046 574 1044 b 546 1049 561 1044 554 1046 b 508 1065 533 1051 519 1057 l 499 1071 l 494 1074 l 490 1078 l 449 1114 b 424 1132 442 1121 432 1126 b 396 1146 415 1138 406 1142 b 367 1154 388 1150 376 1151 b 340 1157 358 1156 349 1157 b 308 1154 329 1157 318 1156 b 283 1146 300 1151 290 1149 b 261 1135 275 1142 268 1139 b 208 1086 235 1118 218 1100 b 197 1071 203 1079 200 1074 b 193 1064 194 1067 193 1064 z "},"Ò":{"ha":983,"x_min":0,"x_max":0,"o":"m 508 882 b 35 296 247 882 35 619 b 508 -289 35 -28 247 -289 b 983 296 771 -289 983 -28 b 508 882 983 619 771 882 z m 592 -203 b 510 -264 565 -242 538 -264 b 318 296 413 -264 318 -12 b 333 501 318 369 324 438 b 485 256 351 424 392 325 b 533 215 503 242 518 228 b 643 -31 604 151 643 61 b 592 -203 643 -90 626 -150 z m 678 46 b 500 276 658 126 600 200 b 450 322 482 290 465 306 b 376 553 393 390 376 475 b 407 747 376 633 394 706 b 447 822 415 775 428 801 b 510 856 468 844 489 856 b 700 296 606 856 700 606 b 678 46 700 206 692 121 z m 564 1013 l 583 1028 l 404 1275 l 357 1239 z "},"Ó":{"ha":983,"x_min":0,"x_max":0,"o":"m 508 882 b 35 296 247 882 35 619 b 508 -289 35 -28 247 -289 b 983 296 771 -289 983 -28 b 508 882 983 619 771 882 z m 592 -203 b 510 -264 565 -242 538 -264 b 318 296 413 -264 318 -12 b 333 501 318 369 324 438 b 485 256 351 424 392 325 b 533 215 503 242 518 228 b 643 -31 604 151 643 61 b 592 -203 643 -90 626 -150 z m 678 46 b 500 276 658 126 600 200 b 450 322 482 290 465 306 b 376 553 393 390 376 475 b 407 747 376 633 394 706 b 447 822 415 775 428 801 b 510 856 468 844 489 856 b 700 296 606 856 700 606 b 678 46 700 206 692 121 z m 451 1013 l 658 1239 l 613 1275 l 432 1028 z "},"Ô":{"ha":983,"x_min":0,"x_max":0,"o":"m 508 882 b 35 296 247 882 35 619 b 508 -289 35 -28 247 -289 b 983 296 771 -289 983 -28 b 508 882 983 619 771 882 z m 592 -203 b 510 -264 565 -242 538 -264 b 318 296 413 -264 318 -12 b 333 501 318 369 324 438 b 485 256 351 424 392 325 b 533 215 503 242 518 228 b 643 -31 604 151 643 61 b 592 -203 643 -90 626 -150 z m 678 46 b 500 276 658 126 600 200 b 450 322 482 290 465 306 b 376 553 393 390 376 475 b 407 747 376 633 394 706 b 447 822 415 775 428 801 b 510 856 468 844 489 856 b 700 296 606 856 700 606 b 678 46 700 206 692 121 z m 508 1274 l 290 1029 l 308 1013 l 508 1196 l 708 1013 l 726 1029 z "},"Õ":{"ha":983,"x_min":0,"x_max":0,"o":"m 508 882 b 35 296 247 882 35 619 b 508 -289 35 -28 247 -289 b 983 296 771 -289 983 -28 b 508 882 983 619 771 882 z m 592 -203 b 510 -264 565 -242 538 -264 b 318 296 413 -264 318 -12 b 333 501 318 369 324 438 b 485 256 351 424 392 325 b 533 215 503 242 518 228 b 643 -31 604 151 643 61 b 592 -203 643 -90 626 -150 z m 678 46 b 500 276 658 126 600 200 b 450 322 482 290 465 306 b 376 553 393 390 376 475 b 407 747 376 633 394 706 b 447 822 415 775 428 801 b 510 856 468 844 489 856 b 700 296 606 856 700 606 b 678 46 700 206 692 121 z m 251 1135 l 274 1119 l 278 1124 b 290 1135 281 1126 285 1131 b 340 1165 301 1144 318 1157 b 375 1175 351 1171 363 1174 b 414 1171 388 1175 400 1175 b 432 1164 419 1169 426 1168 b 451 1153 439 1161 446 1158 b 471 1140 458 1149 465 1146 l 490 1122 l 510 1106 b 536 1088 517 1100 528 1093 b 564 1074 544 1081 554 1078 b 593 1065 574 1069 583 1068 b 615 1063 601 1064 608 1063 b 651 1067 628 1063 640 1065 b 699 1088 669 1072 686 1079 b 750 1136 725 1104 740 1122 b 761 1153 756 1143 758 1149 b 765 1160 764 1157 765 1160 l 743 1174 l 739 1169 b 726 1158 736 1167 732 1163 b 676 1126 715 1149 699 1136 b 642 1117 667 1121 654 1118 b 628 1115 638 1117 632 1115 b 604 1119 619 1115 613 1117 b 567 1136 592 1122 578 1128 l 557 1142 l 553 1144 l 549 1149 l 507 1185 b 482 1203 500 1192 490 1197 b 454 1217 474 1208 464 1213 b 425 1225 446 1221 435 1222 b 399 1228 417 1226 407 1228 b 367 1225 388 1228 376 1226 b 342 1217 358 1222 349 1219 b 319 1206 333 1213 326 1210 b 267 1157 293 1189 276 1171 b 256 1142 261 1150 258 1144 b 251 1135 253 1138 251 1135 z "},"Ö":{"ha":983,"x_min":0,"x_max":0,"o":"m 508 882 b 35 296 247 882 35 619 b 508 -289 35 -28 247 -289 b 983 296 771 -289 983 -28 b 508 882 983 619 771 882 z m 592 -203 b 510 -264 565 -242 538 -264 b 318 296 413 -264 318 -12 b 333 501 318 369 324 438 b 485 256 351 424 392 325 b 533 215 503 242 518 228 b 643 -31 604 151 643 61 b 592 -203 643 -90 626 -150 z m 678 46 b 500 276 658 126 600 200 b 450 322 482 290 465 306 b 376 553 393 390 376 475 b 407 747 376 633 394 706 b 447 822 415 775 428 801 b 510 856 468 844 489 856 b 700 296 606 856 700 606 b 678 46 700 206 692 121 z m 486 1143 b 356 1274 486 1215 428 1274 b 225 1143 283 1274 225 1215 b 356 1013 225 1071 283 1013 b 486 1143 428 1013 486 1071 z m 793 1143 b 663 1274 793 1215 735 1274 b 532 1143 590 1274 532 1215 b 663 1013 532 1071 590 1013 b 793 1143 735 1013 793 1071 z "},"×":{"ha":485,"x_min":0,"x_max":0,"o":"m 485 504 l 465 522 l 260 317 l 54 522 l 35 504 l 242 299 l 35 92 l 54 74 l 260 279 l 465 74 l 485 92 l 278 299 z "},"Ø":{"ha":983,"x_min":0,"x_max":0,"o":"m 522 1031 l 496 1031 l 496 878 b 35 293 240 869 35 611 b 496 -293 35 -25 240 -283 l 496 -433 l 522 -433 l 522 -293 b 983 293 778 -285 983 -25 b 522 878 983 611 778 869 z m 496 -265 b 318 293 404 -244 318 -3 b 496 850 318 588 404 829 z m 522 850 b 700 293 614 829 700 588 b 522 -265 700 -1 614 -243 z "},"Ù":{"ha":881,"x_min":0,"x_max":0,"o":"m 710 874 b 547 750 657 874 576 835 b 539 676 547 750 539 725 b 665 318 539 604 560 479 b 774 25 747 193 774 96 b 735 -104 774 -39 753 -82 b 564 -192 715 -126 651 -192 b 354 18 482 -192 354 -151 l 354 642 b 407 863 354 718 372 794 l 413 874 l 35 874 l 36 869 b 92 642 72 800 92 721 l 92 99 b 442 -278 92 -99 244 -268 l 458 -278 b 825 89 661 -278 825 -114 l 825 638 b 881 874 825 719 844 800 z m 513 942 l 532 957 l 353 1204 l 306 1168 z "},"Ú":{"ha":881,"x_min":0,"x_max":0,"o":"m 710 874 b 547 750 657 874 576 835 b 539 676 547 750 539 725 b 665 318 539 604 560 479 b 774 25 747 193 774 96 b 735 -104 774 -39 753 -82 b 564 -192 715 -126 651 -192 b 354 18 482 -192 354 -151 l 354 642 b 407 863 354 718 372 794 l 413 874 l 35 874 l 36 869 b 92 642 72 800 92 721 l 92 99 b 442 -278 92 -99 244 -268 l 458 -278 b 825 89 661 -278 825 -114 l 825 638 b 881 874 825 719 844 800 z m 400 942 l 607 1168 l 561 1204 l 381 957 z "},"Û":{"ha":881,"x_min":0,"x_max":0,"o":"m 710 874 b 547 750 657 874 576 835 b 539 676 547 750 539 725 b 665 318 539 604 560 479 b 774 25 747 193 774 96 b 735 -104 774 -39 753 -82 b 564 -192 715 -126 651 -192 b 354 18 482 -192 354 -151 l 354 642 b 407 863 354 718 372 794 l 413 874 l 35 874 l 36 869 b 92 642 72 800 92 721 l 92 99 b 442 -278 92 -99 244 -268 l 458 -278 b 825 89 661 -278 825 -114 l 825 638 b 881 874 825 719 844 800 z m 457 1203 l 239 958 l 257 942 l 457 1125 l 657 942 l 675 958 z "},"Ü":{"ha":881,"x_min":0,"x_max":0,"o":"m 710 874 b 547 750 657 874 576 835 b 539 676 547 750 539 725 b 665 318 539 604 560 479 b 774 25 747 193 774 96 b 735 -104 774 -39 753 -82 b 564 -192 715 -126 651 -192 b 354 18 482 -192 354 -151 l 354 642 b 407 863 354 718 372 794 l 413 874 l 35 874 l 36 869 b 92 642 72 800 92 721 l 92 99 b 442 -278 92 -99 244 -268 l 458 -278 b 825 89 661 -278 825 -114 l 825 638 b 881 874 825 719 844 800 z m 435 1072 b 304 1203 435 1144 376 1203 b 174 1072 232 1203 174 1144 b 304 942 174 1000 232 942 b 435 1072 376 942 435 1000 z m 742 1072 b 611 1203 742 1144 683 1203 b 481 1072 539 1203 481 1144 b 611 942 481 1000 539 942 b 742 1072 683 942 742 1000 z "},"Ý":{"ha":1022,"x_min":0,"x_max":0,"o":"m 768 874 b 608 725 654 874 608 803 b 674 567 608 668 633 607 b 760 386 735 504 760 442 b 688 242 760 325 729 274 b 674 232 683 239 678 235 b 660 225 669 229 664 228 b 619 208 646 218 632 213 b 538 197 593 201 565 197 b 490 201 522 197 506 199 b 397 226 461 206 426 213 b 385 232 393 228 389 231 b 369 242 379 235 375 239 b 297 386 328 274 297 325 b 383 567 297 442 322 504 b 449 725 424 607 449 668 b 289 874 449 803 403 874 l 35 874 b 96 699 85 817 96 750 b 85 610 96 647 85 610 b 76 538 79 585 76 561 b 304 232 76 382 197 276 l 317 225 b 397 92 367 199 397 147 l 397 -46 b 340 -278 397 -126 378 -207 l 717 -278 b 660 -46 679 -207 660 -126 l 660 93 b 740 226 660 149 690 200 b 753 232 747 229 751 232 b 981 538 860 276 981 382 b 972 610 981 561 978 585 b 961 699 972 610 961 647 b 1022 874 961 750 974 817 z m 472 942 l 679 1168 l 633 1204 l 453 957 z "},"Þ":{"ha":874,"x_min":0,"x_max":0,"o":"m 356 874 l 356 892 b 411 1121 356 971 374 1047 l 414 1124 l 36 1124 l 38 1121 b 93 892 75 1047 93 971 l 93 -46 b 35 -278 93 -126 74 -204 l 504 -278 b 413 -181 464 -249 433 -215 b 368 -79 392 -146 376 -111 b 356 -1 360 -47 356 -22 b 354 25 354 11 354 21 l 354 29 b 328 201 354 97 346 156 b 263 314 310 247 288 285 b 192 379 238 343 214 364 b 181 399 183 385 181 392 l 181 404 b 197 426 182 414 188 422 b 267 464 219 433 243 446 b 329 532 290 481 311 503 b 354 642 346 561 354 597 l 354 643 b 381 806 354 725 363 779 b 433 847 397 833 415 847 b 447 844 438 847 443 846 b 511 782 471 838 493 817 b 539 657 529 747 539 706 b 508 538 539 608 529 568 b 431 465 488 507 461 483 b 335 425 399 447 367 433 b 246 408 301 417 272 411 b 236 403 239 407 236 406 l 236 399 b 246 390 236 394 239 392 l 249 390 b 289 386 254 389 268 388 l 292 386 b 378 379 322 382 351 381 b 429 379 406 379 422 379 b 560 386 469 379 514 382 b 711 421 613 392 663 403 b 828 499 758 439 797 464 b 874 633 858 533 874 578 b 803 804 874 700 850 757 b 633 874 756 850 699 874 z "},"ß":{"ha":933,"x_min":0,"x_max":0,"o":"m 638 -46 b 501 -246 638 -124 606 -246 b 354 8 365 -246 354 -56 l 354 29 b 190 379 354 235 257 335 b 179 401 182 385 179 393 b 197 426 179 411 185 422 b 354 642 263 451 354 508 l 354 643 b 433 846 354 789 392 846 b 539 657 483 846 539 764 b 246 408 539 463 344 424 b 239 400 240 407 239 404 b 244 390 239 396 240 392 b 638 -46 403 354 638 263 z m 351 401 b 874 633 672 401 874 457 b 632 874 874 767 765 874 l 389 874 b 93 578 225 874 93 742 l 93 -46 b 35 -278 93 -126 72 -206 l 585 -278 b 933 42 776 -278 933 -151 b 351 401 933 286 629 401 z "},"à":{"ha":963,"x_min":0,"x_max":0,"o":"m 669 682 b 660 764 664 713 660 739 b 685 858 660 804 669 836 l 697 874 l 292 874 b 333 714 292 874 333 828 b 311 554 333 671 328 618 l 147 -85 b 35 -278 135 -129 90 -253 l 276 -278 b 436 -206 276 -278 390 -278 b 460 -131 453 -181 460 -156 b 403 -4 460 -83 433 -39 b 296 336 310 101 296 251 l 296 363 b 307 436 297 388 300 413 b 383 708 307 436 379 703 b 568 -67 389 708 568 -67 b 578 -150 572 -85 578 -117 b 524 -278 578 -199 567 -251 l 963 -278 b 838 -53 908 -235 865 -167 z m 549 942 l 568 957 l 389 1204 l 342 1168 z "},"á":{"ha":963,"x_min":0,"x_max":0,"o":"m 669 682 b 660 764 664 713 660 739 b 685 858 660 804 669 836 l 697 874 l 292 874 b 333 714 292 874 333 828 b 311 554 333 671 328 618 l 147 -85 b 35 -278 135 -129 90 -253 l 276 -278 b 436 -206 276 -278 390 -278 b 460 -131 453 -181 460 -156 b 403 -4 460 -83 433 -39 b 296 336 310 101 296 251 l 296 363 b 307 436 297 388 300 413 b 383 708 307 436 379 703 b 568 -67 389 708 568 -67 b 578 -150 572 -85 578 -117 b 524 -278 578 -199 567 -251 l 963 -278 b 838 -53 908 -235 865 -167 z m 436 942 l 643 1168 l 597 1204 l 417 957 z "},"â":{"ha":963,"x_min":0,"x_max":0,"o":"m 669 682 b 660 764 664 713 660 739 b 685 858 660 804 669 836 l 697 874 l 292 874 b 333 714 292 874 333 828 b 311 554 333 671 328 618 l 147 -85 b 35 -278 135 -129 90 -253 l 276 -278 b 436 -206 276 -278 390 -278 b 460 -131 453 -181 460 -156 b 403 -4 460 -83 433 -39 b 296 336 310 101 296 251 l 296 363 b 307 436 297 388 300 413 b 383 708 307 436 379 703 b 568 -67 389 708 568 -67 b 578 -150 572 -85 578 -117 b 524 -278 578 -199 567 -251 l 963 -278 b 838 -53 908 -235 865 -167 z m 493 1203 l 275 958 l 293 942 l 493 1125 l 693 942 l 711 958 z "},"ã":{"ha":963,"x_min":0,"x_max":0,"o":"m 669 682 b 660 764 664 713 660 739 b 685 858 660 804 669 836 l 697 874 l 292 874 b 333 714 292 874 333 828 b 311 554 333 671 328 618 l 147 -85 b 35 -278 135 -129 90 -253 l 276 -278 b 436 -206 276 -278 390 -278 b 460 -131 453 -181 460 -156 b 403 -4 460 -83 433 -39 b 296 336 310 101 296 251 l 296 363 b 307 436 297 388 300 413 b 383 708 307 436 379 703 b 568 -67 389 708 568 -67 b 578 -150 572 -85 578 -117 b 524 -278 578 -199 567 -251 l 963 -278 b 838 -53 908 -235 865 -167 z m 236 1064 l 258 1049 l 263 1053 b 275 1064 265 1056 269 1060 b 325 1094 286 1074 303 1086 b 360 1104 336 1100 347 1103 b 399 1100 372 1104 385 1104 b 417 1093 404 1099 411 1097 b 436 1082 424 1090 431 1088 b 456 1069 443 1078 450 1075 l 475 1051 l 494 1035 b 521 1017 501 1029 513 1022 b 549 1003 529 1010 539 1007 b 578 994 558 999 568 997 b 600 992 586 993 593 992 b 636 996 613 992 625 994 b 683 1017 654 1001 671 1008 b 735 1065 710 1033 725 1051 b 746 1082 740 1072 743 1078 b 750 1089 749 1086 750 1089 l 728 1103 l 724 1099 b 711 1088 721 1096 717 1092 b 661 1056 700 1078 683 1065 b 626 1046 651 1050 639 1047 b 613 1044 622 1046 617 1044 b 589 1049 604 1044 597 1046 b 551 1065 576 1051 563 1057 l 542 1071 l 538 1074 l 533 1078 l 492 1114 b 467 1132 485 1121 475 1126 b 439 1146 458 1138 449 1142 b 410 1154 431 1150 419 1151 b 383 1157 401 1156 392 1157 b 351 1154 372 1157 361 1156 b 326 1146 343 1151 333 1149 b 304 1135 318 1142 311 1139 b 251 1086 278 1118 261 1100 b 240 1071 246 1079 243 1074 b 236 1064 238 1067 236 1064 z "},"ä":{"ha":963,"x_min":0,"x_max":0,"o":"m 669 682 b 660 764 664 713 660 739 b 685 858 660 804 669 836 l 697 874 l 292 874 b 333 714 292 874 333 828 b 311 554 333 671 328 618 l 147 -85 b 35 -278 135 -129 90 -253 l 276 -278 b 436 -206 276 -278 390 -278 b 460 -131 453 -181 460 -156 b 403 -4 460 -83 433 -39 b 296 336 310 101 296 251 l 296 363 b 307 436 297 388 300 413 b 383 708 307 436 379 703 b 568 -67 389 708 568 -67 b 578 -150 572 -85 578 -117 b 524 -278 578 -199 567 -251 l 963 -278 b 838 -53 908 -235 865 -167 z m 471 1072 b 340 1203 471 1144 413 1203 b 210 1072 268 1203 210 1144 b 340 942 210 1000 268 942 b 471 1072 413 942 471 1000 z m 778 1072 b 647 1203 778 1144 719 1203 b 517 1072 575 1203 517 1144 b 647 942 517 1000 575 942 b 778 1072 719 942 778 1000 z "},"å":{"ha":963,"x_min":0,"x_max":0,"o":"m 669 682 b 660 764 664 713 660 739 b 685 858 660 804 669 836 l 697 874 l 292 874 b 333 714 292 874 333 828 b 311 554 333 671 328 618 l 147 -85 b 35 -278 135 -129 90 -253 l 276 -278 b 436 -206 276 -278 390 -278 b 460 -131 453 -181 460 -156 b 403 -4 460 -83 433 -39 b 296 336 310 101 296 251 l 296 363 b 307 436 297 388 300 413 b 383 708 307 436 379 703 b 568 -67 389 708 568 -67 b 578 -150 572 -85 578 -117 b 524 -278 578 -199 567 -251 l 963 -278 b 838 -53 908 -235 865 -167 z m 493 942 b 624 1072 565 942 624 1000 b 493 1203 624 1144 565 1203 b 363 1072 421 1203 363 1144 b 493 942 363 1000 421 942 z m 493 1182 b 583 1072 554 1182 583 1133 b 493 961 583 1011 554 961 b 404 1072 432 961 404 1011 b 493 1182 404 1133 432 1182 z "},"æ":{"ha":1396,"x_min":0,"x_max":0,"o":"m 763 274 l 768 274 b 856 250 792 271 821 263 b 956 190 890 238 924 217 b 999 175 968 179 982 175 l 1006 175 b 1051 197 1024 176 1039 183 b 1110 251 1069 218 1089 236 b 1160 285 1129 267 1146 278 b 1178 294 1169 289 1175 293 b 1179 296 1179 294 1179 294 l 1181 296 b 1051 389 1124 321 1081 351 b 1017 413 1039 404 1026 411 b 1001 414 1007 414 1001 414 b 953 394 983 414 968 407 b 863 335 929 374 900 353 b 756 306 832 319 796 310 l 738 382 b 813 460 765 401 790 428 b 849 593 836 494 849 539 l 849 642 b 854 728 849 668 850 697 b 883 808 858 758 868 785 b 957 847 899 831 922 843 b 982 849 965 849 974 849 b 1068 818 1015 849 1043 839 b 1097 761 1088 801 1097 782 b 1088 721 1097 749 1094 735 b 1057 672 1078 703 1067 686 b 1036 633 1044 656 1038 643 b 1035 610 1035 625 1035 617 b 1042 571 1035 594 1036 582 b 1074 529 1049 553 1060 539 b 1114 506 1086 518 1100 510 b 1150 496 1128 500 1140 497 b 1158 494 1154 494 1157 494 b 1161 493 1160 493 1160 493 l 1397 493 b 1393 496 1396 494 1394 494 b 1351 547 1382 503 1368 521 b 1324 629 1333 574 1325 600 b 1322 678 1322 657 1322 674 b 1368 874 1322 729 1338 794 l 292 874 l 293 872 l 294 868 b 303 857 296 865 299 861 b 325 801 310 844 318 826 b 335 703 332 776 335 743 b 311 554 333 663 326 613 l 147 -85 b 125 -149 143 -100 135 -122 b 86 -226 115 -175 101 -201 b 35 -278 71 -251 53 -268 l 283 -278 b 294 -276 286 -276 290 -276 b 339 -268 307 -275 321 -272 b 392 -247 357 -264 374 -257 b 436 -206 410 -237 424 -224 b 460 -128 451 -179 460 -153 b 456 -96 460 -117 458 -106 b 403 -4 446 -61 428 -31 b 311 185 353 58 322 122 b 294 333 300 247 294 296 b 296 363 294 343 294 353 b 307 436 297 388 300 413 l 307 438 b 308 440 307 439 307 439 b 315 467 310 444 311 454 l 315 468 b 317 471 317 469 317 469 l 317 474 b 318 476 318 475 318 475 b 344 569 325 503 335 535 b 371 664 354 604 363 636 b 383 708 378 690 382 706 b 404 631 385 707 392 682 b 451 439 417 579 433 515 b 506 208 469 363 488 285 b 550 14 524 132 538 67 b 568 -65 560 -32 567 -58 l 568 -67 b 578 -131 572 -82 576 -104 l 578 -135 b 532 -272 568 -182 553 -228 l 524 -278 l 1368 -278 b 1322 -82 1338 -199 1322 -133 l 1322 -69 b 1351 49 1324 -17 1333 22 b 1393 99 1368 75 1382 92 l 1397 103 l 1160 103 b 1156 101 1158 103 1157 103 b 1146 100 1154 101 1150 101 b 1107 89 1135 99 1122 94 b 1065 63 1092 83 1078 75 b 1039 25 1051 50 1043 38 b 1035 -10 1036 11 1035 0 b 1042 -57 1035 -24 1036 -39 b 1053 -75 1043 -61 1047 -68 b 1069 -101 1058 -83 1064 -92 b 1088 -128 1078 -112 1083 -121 b 1096 -167 1093 -142 1096 -154 b 1072 -219 1096 -186 1089 -204 b 976 -253 1050 -242 1018 -253 l 957 -251 b 926 -244 946 -250 936 -249 b 851 -100 897 -210 872 -162 b 849 -46 850 -83 849 -65 l 849 -10 b 813 124 849 44 836 89 b 790 153 806 133 797 143 z "},"ç":{"ha":933,"x_min":0,"x_max":0,"o":"m 521 -290 l 521 -467 b 529 -465 522 -465 525 -465 b 540 -465 533 -465 536 -465 b 547 -465 544 -465 546 -465 b 681 -511 607 -469 651 -485 b 724 -611 710 -537 724 -571 b 676 -712 724 -653 708 -686 b 535 -753 644 -739 597 -753 b 403 -714 476 -753 432 -740 b 349 -617 374 -687 356 -656 l 285 -637 b 371 -742 294 -681 324 -715 b 535 -783 417 -769 472 -783 b 715 -732 606 -783 665 -767 b 789 -611 764 -699 789 -658 b 719 -493 789 -565 765 -525 b 547 -439 674 -461 615 -443 l 547 -290 b 649 -276 579 -289 613 -283 b 785 -210 694 -268 740 -246 b 904 -35 829 -174 869 -115 b 851 -104 897 -49 881 -72 b 751 -175 822 -136 789 -160 b 651 -199 714 -190 681 -199 b 553 -182 621 -199 589 -193 b 453 -112 521 -171 488 -147 b 363 39 418 -78 388 -26 b 325 292 338 104 325 189 b 363 567 325 390 338 482 b 465 771 386 651 421 719 b 618 847 508 822 560 847 l 632 847 b 706 815 668 847 693 836 b 726 749 719 794 726 772 b 725 731 726 743 726 736 b 685 650 721 700 707 674 l 651 617 b 504 454 589 557 539 503 b 465 361 479 414 467 383 b 465 325 465 339 465 326 b 504 215 465 282 478 246 b 628 167 531 183 571 167 l 910 167 b 847 304 882 201 861 247 b 825 454 832 361 825 411 b 847 642 825 510 833 572 b 903 807 864 707 882 763 l 933 874 l 522 874 l 497 872 b 167 690 365 861 254 800 b 35 292 79 581 35 447 b 100 -1 35 185 57 86 b 276 -211 143 -89 203 -160 b 521 -290 350 -264 431 -290 z "},"è":{"ha":903,"x_min":0,"x_max":0,"o":"m 540 633 b 539 614 539 626 539 619 b 668 493 539 504 668 493 l 903 493 b 826 671 890 504 826 550 b 872 874 826 722 839 789 l 35 874 l 40 863 b 92 642 74 794 92 718 l 92 -32 b 35 -278 92 -118 72 -201 l 872 -278 b 826 -75 839 -193 826 -126 b 903 103 826 46 890 92 l 667 103 b 539 -10 667 103 539 92 b 547 -57 539 -24 542 -39 b 593 -128 551 -72 586 -114 b 601 -164 599 -140 601 -153 b 485 -253 601 -214 554 -253 b 463 -251 478 -253 469 -253 b 383 -197 428 -249 401 -233 b 354 -46 364 -162 354 -111 l 354 -10 b 156 249 354 150 217 224 b 144 264 156 249 144 253 l 144 265 b 161 278 144 272 151 278 l 235 278 b 460 190 235 278 365 274 b 504 174 472 179 488 174 b 556 197 524 174 543 182 b 685 296 611 261 685 296 b 557 389 628 318 585 356 b 506 413 543 406 525 413 b 458 394 489 413 471 407 b 235 304 411 353 336 306 l 157 304 b 144 319 151 304 144 310 b 156 335 144 331 156 335 b 354 593 217 360 354 432 l 354 642 b 463 847 354 722 357 839 b 488 850 471 849 479 850 b 603 758 546 850 603 810 b 593 721 603 746 600 733 b 540 633 571 679 543 651 z m 510 942 l 529 957 l 350 1204 l 303 1168 z "},"é":{"ha":903,"x_min":0,"x_max":0,"o":"m 540 633 b 539 614 539 626 539 619 b 668 493 539 504 668 493 l 903 493 b 826 671 890 504 826 550 b 872 874 826 722 839 789 l 35 874 l 40 863 b 92 642 74 794 92 718 l 92 -32 b 35 -278 92 -118 72 -201 l 872 -278 b 826 -75 839 -193 826 -126 b 903 103 826 46 890 92 l 667 103 b 539 -10 667 103 539 92 b 547 -57 539 -24 542 -39 b 593 -128 551 -72 586 -114 b 601 -164 599 -140 601 -153 b 485 -253 601 -214 554 -253 b 463 -251 478 -253 469 -253 b 383 -197 428 -249 401 -233 b 354 -46 364 -162 354 -111 l 354 -10 b 156 249 354 150 217 224 b 144 264 156 249 144 253 l 144 265 b 161 278 144 272 151 278 l 235 278 b 460 190 235 278 365 274 b 504 174 472 179 488 174 b 556 197 524 174 543 182 b 685 296 611 261 685 296 b 557 389 628 318 585 356 b 506 413 543 406 525 413 b 458 394 489 413 471 407 b 235 304 411 353 336 306 l 157 304 b 144 319 151 304 144 310 b 156 335 144 331 156 335 b 354 593 217 360 354 432 l 354 642 b 463 847 354 722 357 839 b 488 850 471 849 479 850 b 603 758 546 850 603 810 b 593 721 603 746 600 733 b 540 633 571 679 543 651 z m 397 942 l 604 1168 l 558 1204 l 378 957 z "},"ê":{"ha":903,"x_min":0,"x_max":0,"o":"m 540 633 b 539 614 539 626 539 619 b 668 493 539 504 668 493 l 903 493 b 826 671 890 504 826 550 b 872 874 826 722 839 789 l 35 874 l 40 863 b 92 642 74 794 92 718 l 92 -32 b 35 -278 92 -118 72 -201 l 872 -278 b 826 -75 839 -193 826 -126 b 903 103 826 46 890 92 l 667 103 b 539 -10 667 103 539 92 b 547 -57 539 -24 542 -39 b 593 -128 551 -72 586 -114 b 601 -164 599 -140 601 -153 b 485 -253 601 -214 554 -253 b 463 -251 478 -253 469 -253 b 383 -197 428 -249 401 -233 b 354 -46 364 -162 354 -111 l 354 -10 b 156 249 354 150 217 224 b 144 264 156 249 144 253 l 144 265 b 161 278 144 272 151 278 l 235 278 b 460 190 235 278 365 274 b 504 174 472 179 488 174 b 556 197 524 174 543 182 b 685 296 611 261 685 296 b 557 389 628 318 585 356 b 506 413 543 406 525 413 b 458 394 489 413 471 407 b 235 304 411 353 336 306 l 157 304 b 144 319 151 304 144 310 b 156 335 144 331 156 335 b 354 593 217 360 354 432 l 354 642 b 463 847 354 722 357 839 b 488 850 471 849 479 850 b 603 758 546 850 603 810 b 593 721 603 746 600 733 b 540 633 571 679 543 651 z m 454 1203 l 236 958 l 254 942 l 454 1125 l 654 942 l 672 958 z "},"ë":{"ha":903,"x_min":0,"x_max":0,"o":"m 540 633 b 539 614 539 626 539 619 b 668 493 539 504 668 493 l 903 493 b 826 671 890 504 826 550 b 872 874 826 722 839 789 l 35 874 l 40 863 b 92 642 74 794 92 718 l 92 -32 b 35 -278 92 -118 72 -201 l 872 -278 b 826 -75 839 -193 826 -126 b 903 103 826 46 890 92 l 667 103 b 539 -10 667 103 539 92 b 547 -57 539 -24 542 -39 b 593 -128 551 -72 586 -114 b 601 -164 599 -140 601 -153 b 485 -253 601 -214 554 -253 b 463 -251 478 -253 469 -253 b 383 -197 428 -249 401 -233 b 354 -46 364 -162 354 -111 l 354 -10 b 156 249 354 150 217 224 b 144 264 156 249 144 253 l 144 265 b 161 278 144 272 151 278 l 235 278 b 460 190 235 278 365 274 b 504 174 472 179 488 174 b 556 197 524 174 543 182 b 685 296 611 261 685 296 b 557 389 628 318 585 356 b 506 413 543 406 525 413 b 458 394 489 413 471 407 b 235 304 411 353 336 306 l 157 304 b 144 319 151 304 144 310 b 156 335 144 331 156 335 b 354 593 217 360 354 432 l 354 642 b 463 847 354 722 357 839 b 488 850 471 849 479 850 b 603 758 546 850 603 810 b 593 721 603 746 600 733 b 540 633 571 679 543 651 z m 432 1072 b 301 1203 432 1144 374 1203 b 171 1072 229 1203 171 1144 b 301 942 171 1000 229 942 b 432 1072 374 942 432 1000 z m 739 1072 b 608 1203 739 1144 681 1203 b 478 1072 536 1203 478 1144 b 608 942 478 1000 536 942 b 739 1072 681 942 739 1000 z "},"ì":{"ha":413,"x_min":0,"x_max":0,"o":"m 413 -278 b 354 -46 374 -207 354 -126 l 354 642 b 410 871 354 721 374 800 l 413 874 l 35 874 l 36 871 b 92 642 74 800 92 721 l 92 -46 b 35 -278 92 -126 72 -207 z m 279 942 l 299 957 l 119 1204 l 72 1168 z "},"í":{"ha":413,"x_min":0,"x_max":0,"o":"m 413 -278 b 354 -46 374 -207 354 -126 l 354 642 b 410 871 354 721 374 800 l 413 874 l 35 874 l 36 871 b 92 642 74 800 92 721 l 92 -46 b 35 -278 92 -126 72 -207 z m 167 942 l 374 1168 l 328 1204 l 147 957 z "},"î":{"ha":413,"x_min":0,"x_max":0,"o":"m 413 -278 b 354 -46 374 -207 354 -126 l 354 642 b 410 871 354 721 374 800 l 413 874 l 35 874 l 36 871 b 92 642 74 800 92 721 l 92 -46 b 35 -278 92 -126 72 -207 z m 224 1203 l 6 958 l 24 942 l 224 1125 l 424 942 l 442 958 z "},"ï":{"ha":413,"x_min":0,"x_max":0,"o":"m 413 -278 b 354 -46 374 -207 354 -126 l 354 642 b 410 871 354 721 374 800 l 413 874 l 35 874 l 36 871 b 92 642 74 800 92 721 l 92 -46 b 35 -278 92 -126 72 -207 z m 201 1072 b 71 1203 201 1144 143 1203 b -60 1072 -1 1203 -60 1144 b 71 942 -60 1000 -1 942 b 201 1072 143 942 201 1000 z m 508 1072 b 378 1203 508 1144 450 1203 b 247 1072 306 1203 247 1144 b 378 942 247 1000 306 942 b 508 1072 450 942 508 1000 z "},"ð":{"ha":942,"x_min":0,"x_max":0,"o":"m 354 285 l 449 285 l 449 311 l 354 311 l 354 643 b 356 646 356 644 356 644 b 357 683 356 658 356 671 b 358 694 357 688 357 690 b 364 735 360 707 361 721 l 364 738 b 365 743 365 739 365 742 b 399 819 372 775 383 800 b 471 847 414 838 439 847 l 479 847 b 499 843 483 847 490 846 b 526 825 507 839 517 833 b 558 789 536 817 547 804 b 590 725 569 772 581 751 b 618 626 600 699 610 665 b 636 488 625 588 632 542 b 643 297 640 433 643 369 b 621 58 642 201 635 122 b 567 -97 606 -7 588 -58 b 497 -186 544 -136 521 -165 b 429 -226 474 -207 450 -219 b 375 -237 407 -233 389 -237 l 354 -237 z m 93 311 l -160 311 l -160 285 l 93 285 l 93 -46 b 86 -124 93 -72 90 -97 l 86 -129 b 85 -135 85 -131 85 -133 b 83 -139 85 -136 85 -137 l 83 -143 b 82 -150 82 -144 82 -147 b 78 -165 81 -154 79 -160 l 78 -168 b 35 -278 68 -206 53 -243 l 465 -278 b 510 -274 471 -276 486 -275 l 513 -274 b 629 -244 544 -271 583 -261 b 768 -158 675 -228 721 -199 b 886 13 814 -118 854 -61 b 938 297 918 86 935 181 l 938 304 b 838 704 938 468 904 601 b 546 874 769 808 672 864 l 35 874 b 93 642 74 800 93 722 z "},"ñ":{"ha":865,"x_min":0,"x_max":0,"o":"m 682 874 b 590 835 647 874 614 861 b 557 751 574 815 557 790 b 572 675 557 731 561 706 b 785 196 633 503 785 494 l 785 -43 b 782 -99 785 -61 783 -79 l 354 810 b 254 874 336 849 297 874 l 35 874 l 49 846 l 49 844 b 90 638 76 779 90 710 l 90 -43 b 35 -278 90 -124 72 -206 l 219 -278 b 311 -239 254 -278 288 -265 b 342 -151 328 -219 342 -192 b 325 -67 342 -128 338 -100 b 117 456 263 113 117 104 l 117 638 b 119 693 117 657 118 675 l 556 -232 b 628 -278 568 -260 596 -278 l 865 -278 l 853 -250 b 810 -43 825 -185 810 -114 l 810 638 b 865 874 810 719 829 800 z m 193 1064 l 215 1049 l 219 1053 b 232 1064 222 1056 226 1060 b 282 1094 243 1074 260 1086 b 317 1104 293 1100 304 1103 b 356 1100 329 1104 342 1104 b 374 1093 361 1099 368 1097 b 393 1082 381 1090 388 1088 b 413 1069 400 1078 407 1075 l 432 1051 l 451 1035 b 478 1017 458 1029 469 1022 b 506 1003 486 1010 496 1007 b 535 994 515 999 525 997 b 557 992 543 993 550 992 b 593 996 569 992 582 994 b 640 1017 611 1001 628 1008 b 692 1065 667 1033 682 1051 b 703 1082 697 1072 700 1078 b 707 1089 706 1086 707 1089 l 685 1103 l 681 1099 b 668 1088 678 1096 674 1092 b 618 1056 657 1078 640 1065 b 583 1046 608 1050 596 1047 b 569 1044 579 1046 574 1044 b 546 1049 561 1044 554 1046 b 508 1065 533 1051 519 1057 l 499 1071 l 494 1074 l 490 1078 l 449 1114 b 424 1132 442 1121 432 1126 b 396 1146 415 1138 406 1142 b 367 1154 388 1150 376 1151 b 340 1157 358 1156 349 1157 b 308 1154 329 1157 318 1156 b 283 1146 300 1151 290 1149 b 261 1135 275 1142 268 1139 b 208 1086 235 1118 218 1100 b 197 1071 203 1079 200 1074 b 193 1064 194 1067 193 1064 z "},"ò":{"ha":983,"x_min":0,"x_max":0,"o":"m 508 882 b 35 296 247 882 35 619 b 508 -289 35 -28 247 -289 b 983 296 771 -289 983 -28 b 508 882 983 619 771 882 z m 592 -203 b 510 -264 565 -242 538 -264 b 318 296 413 -264 318 -12 b 333 501 318 369 324 438 b 485 256 351 424 392 325 b 533 215 503 242 518 228 b 643 -31 604 151 643 61 b 592 -203 643 -90 626 -150 z m 678 46 b 500 276 658 126 600 200 b 450 322 482 290 465 306 b 376 553 393 390 376 475 b 407 747 376 633 394 706 b 447 822 415 775 428 801 b 510 856 468 844 489 856 b 700 296 606 856 700 606 b 678 46 700 206 692 121 z m 564 950 l 583 965 l 404 1213 l 357 1176 z "},"ó":{"ha":983,"x_min":0,"x_max":0,"o":"m 508 882 b 35 296 247 882 35 619 b 508 -289 35 -28 247 -289 b 983 296 771 -289 983 -28 b 508 882 983 619 771 882 z m 592 -203 b 510 -264 565 -242 538 -264 b 318 296 413 -264 318 -12 b 333 501 318 369 324 438 b 485 256 351 424 392 325 b 533 215 503 242 518 228 b 643 -31 604 151 643 61 b 592 -203 643 -90 626 -150 z m 678 46 b 500 276 658 126 600 200 b 450 322 482 290 465 306 b 376 553 393 390 376 475 b 407 747 376 633 394 706 b 447 822 415 775 428 801 b 510 856 468 844 489 856 b 700 296 606 856 700 606 b 678 46 700 206 692 121 z m 451 950 l 658 1176 l 613 1213 l 432 965 z "},"ô":{"ha":983,"x_min":0,"x_max":0,"o":"m 508 882 b 35 296 247 882 35 619 b 508 -289 35 -28 247 -289 b 983 296 771 -289 983 -28 b 508 882 983 619 771 882 z m 592 -203 b 510 -264 565 -242 538 -264 b 318 296 413 -264 318 -12 b 333 501 318 369 324 438 b 485 256 351 424 392 325 b 533 215 503 242 518 228 b 643 -31 604 151 643 61 b 592 -203 643 -90 626 -150 z m 678 46 b 500 276 658 126 600 200 b 450 322 482 290 465 306 b 376 553 393 390 376 475 b 407 747 376 633 394 706 b 447 822 415 775 428 801 b 510 856 468 844 489 856 b 700 296 606 856 700 606 b 678 46 700 206 692 121 z m 508 1211 l 290 967 l 308 950 l 508 1133 l 708 950 l 726 967 z "},"õ":{"ha":983,"x_min":0,"x_max":0,"o":"m 508 882 b 35 296 247 882 35 619 b 508 -289 35 -28 247 -289 b 983 296 771 -289 983 -28 b 508 882 983 619 771 882 z m 592 -203 b 510 -264 565 -242 538 -264 b 318 296 413 -264 318 -12 b 333 501 318 369 324 438 b 485 256 351 424 392 325 b 533 215 503 242 518 228 b 643 -31 604 151 643 61 b 592 -203 643 -90 626 -150 z m 678 46 b 500 276 658 126 600 200 b 450 322 482 290 465 306 b 376 553 393 390 376 475 b 407 747 376 633 394 706 b 447 822 415 775 428 801 b 510 856 468 844 489 856 b 700 296 606 856 700 606 b 678 46 700 206 692 121 z m 251 1072 l 274 1057 l 278 1061 b 290 1072 281 1064 285 1068 b 340 1103 301 1082 318 1094 b 375 1113 351 1108 363 1111 b 414 1108 388 1113 400 1113 b 432 1101 419 1107 426 1106 b 451 1090 439 1099 446 1096 b 471 1078 458 1086 465 1083 l 490 1060 l 510 1043 b 536 1025 517 1038 528 1031 b 564 1011 544 1018 554 1015 b 593 1003 574 1007 583 1006 b 615 1000 601 1001 608 1000 b 651 1004 628 1000 640 1003 b 699 1025 669 1010 686 1017 b 750 1074 725 1042 740 1060 b 761 1090 756 1081 758 1086 b 765 1097 764 1094 765 1097 l 743 1111 l 739 1107 b 726 1096 736 1104 732 1100 b 676 1064 715 1086 699 1074 b 642 1054 667 1058 654 1056 b 628 1053 638 1054 632 1053 b 604 1057 619 1053 613 1054 b 567 1074 592 1060 578 1065 l 557 1079 l 553 1082 l 549 1086 l 507 1122 b 482 1140 500 1129 490 1135 b 454 1154 474 1146 464 1150 b 425 1163 446 1158 435 1160 b 399 1165 417 1164 407 1165 b 367 1163 388 1165 376 1164 b 342 1154 358 1160 349 1157 b 319 1143 333 1150 326 1147 b 267 1094 293 1126 276 1108 b 256 1079 261 1088 258 1082 b 251 1072 253 1075 251 1072 z "},"ö":{"ha":983,"x_min":0,"x_max":0,"o":"m 508 882 b 35 296 247 882 35 619 b 508 -289 35 -28 247 -289 b 983 296 771 -289 983 -28 b 508 882 983 619 771 882 z m 592 -203 b 510 -264 565 -242 538 -264 b 318 296 413 -264 318 -12 b 333 501 318 369 324 438 b 485 256 351 424 392 325 b 533 215 503 242 518 228 b 643 -31 604 151 643 61 b 592 -203 643 -90 626 -150 z m 678 46 b 500 276 658 126 600 200 b 450 322 482 290 465 306 b 376 553 393 390 376 475 b 407 747 376 633 394 706 b 447 822 415 775 428 801 b 510 856 468 844 489 856 b 700 296 606 856 700 606 b 678 46 700 206 692 121 z m 486 1081 b 356 1211 486 1153 428 1211 b 225 1081 283 1211 225 1153 b 356 950 225 1008 283 950 b 486 1081 428 950 486 1008 z m 793 1081 b 663 1211 793 1153 735 1211 b 532 1081 590 1211 532 1153 b 663 950 532 1008 590 950 b 793 1081 735 950 793 1008 z "},"÷":{"ha":643,"x_min":0,"x_max":0,"o":"m 35 285 l 643 285 l 643 311 l 35 311 z m 471 42 b 339 172 471 114 411 172 b 208 42 267 172 208 114 b 339 -89 208 -31 267 -89 b 471 42 411 -89 471 -31 z m 471 554 b 339 685 471 626 411 685 b 208 554 267 685 208 626 b 339 424 208 482 267 424 b 471 554 411 424 471 482 z "},"ø":{"ha":983,"x_min":0,"x_max":0,"o":"m 522 1031 l 496 1031 l 496 878 b 35 293 240 869 35 611 b 496 -293 35 -25 240 -283 l 496 -433 l 522 -433 l 522 -293 b 983 293 778 -285 983 -25 b 522 878 983 611 778 869 z m 496 -265 b 318 293 404 -244 318 -3 b 496 850 318 588 404 829 z m 522 850 b 700 293 614 829 700 588 b 522 -265 700 -1 614 -243 z "},"ù":{"ha":881,"x_min":0,"x_max":0,"o":"m 710 874 b 547 750 657 874 576 835 b 539 676 547 750 539 725 b 665 318 539 604 560 479 b 774 25 747 193 774 96 b 735 -104 774 -39 753 -82 b 564 -192 715 -126 651 -192 b 354 18 482 -192 354 -151 l 354 642 b 407 863 354 718 372 794 l 413 874 l 35 874 l 36 869 b 92 642 72 800 92 721 l 92 99 b 442 -278 92 -99 244 -268 l 458 -278 b 825 89 661 -278 825 -114 l 825 638 b 881 874 825 719 844 800 z m 513 942 l 532 957 l 353 1204 l 306 1168 z "},"ú":{"ha":881,"x_min":0,"x_max":0,"o":"m 710 874 b 547 750 657 874 576 835 b 539 676 547 750 539 725 b 665 318 539 604 560 479 b 774 25 747 193 774 96 b 735 -104 774 -39 753 -82 b 564 -192 715 -126 651 -192 b 354 18 482 -192 354 -151 l 354 642 b 407 863 354 718 372 794 l 413 874 l 35 874 l 36 869 b 92 642 72 800 92 721 l 92 99 b 442 -278 92 -99 244 -268 l 458 -278 b 825 89 661 -278 825 -114 l 825 638 b 881 874 825 719 844 800 z m 400 942 l 607 1168 l 561 1204 l 381 957 z "},"û":{"ha":881,"x_min":0,"x_max":0,"o":"m 710 874 b 547 750 657 874 576 835 b 539 676 547 750 539 725 b 665 318 539 604 560 479 b 774 25 747 193 774 96 b 735 -104 774 -39 753 -82 b 564 -192 715 -126 651 -192 b 354 18 482 -192 354 -151 l 354 642 b 407 863 354 718 372 794 l 413 874 l 35 874 l 36 869 b 92 642 72 800 92 721 l 92 99 b 442 -278 92 -99 244 -268 l 458 -278 b 825 89 661 -278 825 -114 l 825 638 b 881 874 825 719 844 800 z m 457 1203 l 239 958 l 257 942 l 457 1125 l 657 942 l 675 958 z "},"ü":{"ha":881,"x_min":0,"x_max":0,"o":"m 710 874 b 547 750 657 874 576 835 b 539 676 547 750 539 725 b 665 318 539 604 560 479 b 774 25 747 193 774 96 b 735 -104 774 -39 753 -82 b 564 -192 715 -126 651 -192 b 354 18 482 -192 354 -151 l 354 642 b 407 863 354 718 372 794 l 413 874 l 35 874 l 36 869 b 92 642 72 800 92 721 l 92 99 b 442 -278 92 -99 244 -268 l 458 -278 b 825 89 661 -278 825 -114 l 825 638 b 881 874 825 719 844 800 z m 435 1072 b 304 1203 435 1144 376 1203 b 174 1072 232 1203 174 1144 b 304 942 174 1000 232 942 b 435 1072 376 942 435 1000 z m 742 1072 b 611 1203 742 1144 683 1203 b 481 1072 539 1203 481 1144 b 611 942 481 1000 539 942 b 742 1072 683 942 742 1000 z "},"ý":{"ha":1022,"x_min":0,"x_max":0,"o":"m 768 874 b 608 725 654 874 608 803 b 674 567 608 668 633 607 b 760 386 735 504 760 442 b 688 242 760 325 729 274 b 674 232 683 239 678 235 b 660 225 669 229 664 228 b 619 208 646 218 632 213 b 538 197 593 201 565 197 b 490 201 522 197 506 199 b 397 226 461 206 426 213 b 385 232 393 228 389 231 b 369 242 379 235 375 239 b 297 386 328 274 297 325 b 383 567 297 442 322 504 b 449 725 424 607 449 668 b 289 874 449 803 403 874 l 35 874 b 96 699 85 817 96 750 b 85 610 96 647 85 610 b 76 538 79 585 76 561 b 304 232 76 382 197 276 l 317 225 b 397 92 367 199 397 147 l 397 -46 b 340 -278 397 -126 378 -207 l 717 -278 b 660 -46 679 -207 660 -126 l 660 93 b 740 226 660 149 690 200 b 753 232 747 229 751 232 b 981 538 860 276 981 382 b 972 610 981 561 978 585 b 961 699 972 610 961 647 b 1022 874 961 750 974 817 z m 472 942 l 679 1168 l 633 1204 l 453 957 z "},"þ":{"ha":874,"x_min":0,"x_max":0,"o":"m 356 874 l 356 892 b 411 1121 356 971 374 1047 l 414 1124 l 36 1124 l 38 1121 b 93 892 75 1047 93 971 l 93 -46 b 35 -278 93 -126 74 -204 l 504 -278 b 413 -181 464 -249 433 -215 b 368 -79 392 -146 376 -111 b 356 -1 360 -47 356 -22 b 354 25 354 11 354 21 l 354 29 b 328 201 354 97 346 156 b 263 314 310 247 288 285 b 192 379 238 343 214 364 b 181 399 183 385 181 392 l 181 404 b 197 426 182 414 188 422 b 267 464 219 433 243 446 b 329 532 290 481 311 503 b 354 642 346 561 354 597 l 354 643 b 381 806 354 725 363 779 b 433 847 397 833 415 847 b 447 844 438 847 443 846 b 511 782 471 838 493 817 b 539 657 529 747 539 706 b 508 538 539 608 529 568 b 431 465 488 507 461 483 b 335 425 399 447 367 433 b 246 408 301 417 272 411 b 236 403 239 407 236 406 l 236 399 b 246 390 236 394 239 392 l 249 390 b 289 386 254 389 268 388 l 292 386 b 378 379 322 382 351 381 b 429 379 406 379 422 379 b 560 386 469 379 514 382 b 711 421 613 392 663 403 b 828 499 758 439 797 464 b 874 633 858 533 874 578 b 803 804 874 700 850 757 b 633 874 756 850 699 874 z "},"ÿ":{"ha":1022,"x_min":0,"x_max":0,"o":"m 768 874 b 608 725 654 874 608 803 b 674 567 608 668 633 607 b 760 386 735 504 760 442 b 688 242 760 325 729 274 b 674 232 683 239 678 235 b 660 225 669 229 664 228 b 619 208 646 218 632 213 b 538 197 593 201 565 197 b 490 201 522 197 506 199 b 397 226 461 206 426 213 b 385 232 393 228 389 231 b 369 242 379 235 375 239 b 297 386 328 274 297 325 b 383 567 297 442 322 504 b 449 725 424 607 449 668 b 289 874 449 803 403 874 l 35 874 b 96 699 85 817 96 750 b 85 610 96 647 85 610 b 76 538 79 585 76 561 b 304 232 76 382 197 276 l 317 225 b 397 92 367 199 397 147 l 397 -46 b 340 -278 397 -126 378 -207 l 717 -278 b 660 -46 679 -207 660 -126 l 660 93 b 740 226 660 149 690 200 b 753 232 747 229 751 232 b 981 538 860 276 981 382 b 972 610 981 561 978 585 b 961 699 972 610 961 647 b 1022 874 961 750 974 817 z m 507 1072 b 376 1203 507 1144 449 1203 b 246 1072 304 1203 246 1144 b 376 942 246 1000 304 942 b 507 1072 449 942 507 1000 z m 814 1072 b 683 1203 814 1144 756 1203 b 553 1072 611 1203 553 1144 b 683 942 553 1000 611 942 b 814 1072 756 942 814 1000 z "},"ı":{"ha":413,"x_min":0,"x_max":0,"o":"m 413 -278 b 354 -46 374 -207 354 -126 l 354 642 b 410 871 354 721 374 800 l 413 874 l 35 874 l 36 871 b 92 642 74 800 92 721 l 92 -46 b 35 -278 92 -126 72 -207 z "},"̀":{"ha":261,"x_min":0,"x_max":0,"o":"m 242 1013 l 261 1028 l 82 1275 l 35 1239 z "},"́":{"ha":261,"x_min":0,"x_max":0,"o":"m 54 1013 l 261 1239 l 215 1275 l 35 1028 z "},"̂":{"ha":471,"x_min":0,"x_max":0,"o":"m 253 1274 l 35 1029 l 53 1013 l 253 1196 l 453 1013 l 471 1029 z "},"̃":{"ha":549,"x_min":0,"x_max":0,"o":"m 35 1135 l 57 1119 l 61 1124 b 74 1135 64 1126 68 1131 b 124 1165 85 1144 101 1157 b 158 1175 135 1171 146 1174 b 197 1171 171 1175 183 1175 b 215 1164 203 1169 210 1168 b 235 1153 222 1161 229 1158 b 254 1140 242 1149 249 1146 l 274 1122 l 293 1106 b 319 1088 300 1100 311 1093 b 347 1074 328 1081 338 1078 b 376 1065 357 1069 367 1068 b 399 1063 385 1064 392 1063 b 435 1067 411 1063 424 1065 b 482 1088 453 1072 469 1079 b 533 1136 508 1104 524 1122 b 544 1153 539 1143 542 1149 b 549 1160 547 1157 549 1160 l 526 1174 l 522 1169 b 510 1158 519 1167 515 1163 b 460 1126 499 1149 482 1136 b 425 1117 450 1121 438 1118 b 411 1115 421 1117 415 1115 b 388 1119 403 1115 396 1117 b 350 1136 375 1122 361 1128 l 340 1142 l 336 1144 l 332 1149 l 290 1185 b 265 1203 283 1192 274 1197 b 238 1217 257 1208 247 1213 b 208 1225 229 1221 218 1222 b 182 1228 200 1226 190 1228 b 150 1225 171 1228 160 1226 b 125 1217 142 1222 132 1219 b 103 1206 117 1213 110 1210 b 50 1157 76 1189 60 1171 b 39 1142 44 1150 42 1144 b 35 1135 36 1138 35 1135 z "},"̄":{"ha":357,"x_min":0,"x_max":0,"o":"m 35 1132 l 357 1132 l 357 1158 l 35 1158 z "},"̇":{"ha":296,"x_min":0,"x_max":0,"o":"m 296 1143 b 258 1236 296 1179 283 1210 b 165 1274 232 1261 201 1274 b 74 1236 129 1274 99 1261 b 35 1143 47 1210 35 1179 b 74 1051 35 1107 47 1076 b 165 1013 99 1025 129 1013 b 258 1051 201 1013 232 1025 b 296 1143 283 1076 296 1107 z "},"̈":{"ha":603,"x_min":0,"x_max":0,"o":"m 296 1143 b 165 1274 296 1215 238 1274 b 35 1143 93 1274 35 1215 b 165 1013 35 1071 93 1013 b 296 1143 238 1013 296 1071 z m 603 1143 b 472 1274 603 1215 544 1274 b 342 1143 400 1274 342 1215 b 472 1013 342 1071 400 1013 b 603 1143 544 1013 603 1071 z "},"̊":{"ha":296,"x_min":0,"x_max":0,"o":"m 165 1013 b 296 1143 238 1013 296 1071 b 165 1274 296 1215 238 1274 b 35 1143 93 1274 35 1215 b 165 1013 35 1071 93 1013 z m 165 1253 b 256 1143 226 1253 256 1204 b 165 1032 256 1082 226 1032 b 76 1143 104 1032 76 1082 b 165 1253 76 1204 104 1253 z "},"̌":{"ha":507,"x_min":0,"x_max":0,"o":"m 254 1013 l 472 1258 l 454 1274 l 254 1090 l 53 1274 l 35 1258 z "},"̧":{"ha":539,"x_min":0,"x_max":0,"o":"m 297 61 l 271 61 l 271 -176 b 297 -175 275 -175 293 -175 b 474 -321 417 -181 474 -240 b 285 -462 474 -404 410 -462 b 99 -326 168 -462 113 -401 l 35 -347 b 285 -493 53 -429 158 -493 b 539 -321 425 -493 539 -415 b 297 -149 539 -229 432 -153 z "},"–":{"ha":643,"x_min":0,"x_max":0,"o":"m 35 285 l 643 285 l 643 311 l 35 311 z "},"—":{"ha":950,"x_min":0,"x_max":0,"o":"m 35 285 l 950 285 l 950 311 l 35 311 z "},"‘":{"ha":308,"x_min":0,"x_max":0,"o":"m 178 476 b 308 607 250 476 308 535 b 185 738 308 676 254 733 b 181 774 182 750 181 763 b 213 874 181 832 213 874 b 47 615 57 806 47 651 l 47 607 b 178 476 47 535 106 476 z "},"’":{"ha":310,"x_min":0,"x_max":0,"o":"m 167 874 b 35 743 94 874 35 815 b 158 613 35 674 90 617 b 163 574 161 599 163 586 b 132 476 163 517 132 476 b 297 735 288 544 297 699 l 297 743 b 167 874 297 815 239 874 z "},"‚":{"ha":310,"x_min":0,"x_max":0,"o":"m 297 -147 b 167 -17 297 -75 239 -17 b 35 -147 94 -17 35 -75 b 158 -278 35 -217 90 -274 b 163 -317 161 -292 163 -304 b 132 -414 163 -374 132 -414 b 297 -156 288 -346 297 -192 z "},"“":{"ha":611,"x_min":0,"x_max":0,"o":"m 481 476 b 611 607 553 476 611 535 b 489 738 611 676 557 733 b 485 776 486 751 485 764 b 515 874 485 833 515 874 b 350 615 360 806 350 651 l 350 607 b 481 476 350 535 408 476 z m 47 607 b 178 476 47 535 106 476 b 308 607 250 476 308 535 b 185 738 308 676 254 733 b 181 774 182 750 181 763 b 213 874 181 832 213 874 b 47 615 57 806 47 651 z "},"”":{"ha":613,"x_min":0,"x_max":0,"o":"m 167 874 b 35 743 94 874 35 815 b 158 613 35 674 90 617 b 163 574 161 599 163 586 b 132 476 163 517 132 476 b 297 735 288 544 297 699 l 297 743 b 167 874 297 815 239 874 z m 600 743 b 469 874 600 815 542 874 b 339 743 397 874 339 815 b 463 613 339 674 393 617 b 467 576 465 600 467 588 b 435 476 467 518 435 476 b 600 735 590 544 600 699 z "},"„":{"ha":613,"x_min":0,"x_max":0,"o":"m 167 -17 b 35 -147 94 -17 35 -75 b 158 -278 35 -217 90 -274 b 163 -317 161 -292 163 -304 b 132 -414 163 -374 132 -414 b 297 -156 288 -346 297 -192 l 297 -147 b 167 -17 297 -75 239 -17 z m 600 -147 b 469 -17 600 -75 542 -17 b 339 -147 397 -17 339 -75 b 463 -278 339 -217 393 -274 b 467 -314 465 -290 467 -303 b 435 -414 467 -372 435 -414 b 600 -156 590 -346 600 -192 z "},"†":{"ha":643,"x_min":0,"x_max":0,"o":"m 643 506 l 351 506 l 351 758 l 325 758 l 325 506 l 35 506 l 35 479 l 325 479 l 325 -249 l 351 -249 l 351 479 l 643 479 z "},"‡":{"ha":643,"x_min":0,"x_max":0,"o":"m 643 478 l 643 504 l 351 504 l 351 760 l 326 760 l 326 504 l 35 504 l 35 478 l 326 478 l 326 35 l 35 35 l 35 8 l 326 8 l 326 -247 l 351 -247 l 351 8 l 643 8 l 643 35 l 351 35 l 351 478 z "},"•":{"ha":438,"x_min":0,"x_max":0,"o":"m 236 286 b 378 344 290 286 338 306 b 438 488 417 385 438 432 b 378 628 438 542 417 589 b 236 688 339 668 292 688 b 94 629 181 688 133 668 b 35 488 56 590 35 543 b 93 344 35 432 54 383 b 236 286 132 306 179 286 z "},"…":{"ha":1389,"x_min":0,"x_max":0,"o":"m 296 -147 b 165 -17 296 -75 238 -17 b 35 -147 93 -17 35 -75 b 165 -278 35 -219 93 -278 b 296 -147 238 -278 296 -219 z m 758 -147 b 628 -17 758 -75 700 -17 b 497 -147 556 -17 497 -75 b 628 -278 497 -219 556 -278 b 758 -147 700 -278 758 -219 z m 1221 -147 b 1090 -17 1221 -75 1163 -17 b 960 -147 1018 -17 960 -75 b 1090 -278 960 -219 1018 -278 b 1221 -147 1163 -278 1221 -219 z "},"‹":{"ha":479,"x_min":0,"x_max":0,"o":"m 479 464 l 479 493 l 35 303 l 479 113 l 479 142 l 101 303 z "},"›":{"ha":479,"x_min":0,"x_max":0,"o":"m 35 142 l 35 113 l 479 303 l 35 493 l 35 464 l 413 303 z "},"⁄":{"ha":479,"x_min":0,"x_max":0,"o":"m 451 874 l 35 -278 l 63 -278 l 479 874 z "},"∕":{"ha":479,"x_min":0,"x_max":0,"o":"m 451 874 l 35 -278 l 63 -278 l 479 874 z "},"₣":{"ha":882,"x_min":0,"x_max":0,"o":"m 561 642 b 721 493 561 497 706 493 l 882 493 b 806 669 869 504 806 550 b 853 874 806 722 818 789 l 57 874 l 60 871 b 115 642 96 800 115 721 l 115 311 l 35 311 l 35 285 l 115 285 l 115 67 b 460 -278 115 -124 269 -278 l 799 -278 b 781 -169 786 -240 781 -204 b 882 103 781 -26 868 89 l 721 103 b 561 -46 706 103 561 99 b 568 -94 561 -62 564 -79 b 578 -161 574 -118 578 -140 b 497 -251 578 -212 557 -251 b 485 -253 497 -251 493 -253 b 378 -124 454 -253 378 -240 l 378 285 l 550 285 l 550 311 l 378 311 l 378 446 b 210 826 378 669 265 783 b 204 836 206 829 204 832 b 217 847 204 842 210 847 l 442 847 b 572 721 514 847 572 789 b 568 690 572 711 571 700 b 561 642 564 675 561 658 z "},"₤":{"ha":879,"x_min":0,"x_max":0,"o":"m 560 -46 b 565 -94 560 -62 561 -79 b 569 -126 568 -106 569 -115 b 440 -251 569 -193 511 -251 l 214 -251 b 201 -240 207 -251 201 -246 b 207 -231 201 -236 203 -233 b 375 150 264 -187 375 -74 l 375 229 l 549 229 l 549 256 l 375 256 l 375 333 l 549 333 l 549 360 l 375 360 l 375 721 b 483 849 375 836 453 849 b 496 847 492 849 496 847 b 575 758 554 847 575 808 b 565 690 575 736 572 714 b 560 642 561 675 560 658 b 718 493 560 497 703 493 l 879 493 b 779 767 865 507 779 625 b 797 874 779 801 785 838 l 458 874 b 114 529 268 874 114 719 l 114 360 l 35 360 l 35 333 l 114 333 l 114 256 l 35 256 l 35 229 l 114 229 l 114 -46 b 57 -274 114 -125 94 -204 l 56 -278 l 850 -278 b 803 -74 815 -193 803 -126 b 879 103 803 46 867 92 l 718 103 b 560 -46 703 103 560 99 z "},"₧":{"ha":2593,"x_min":0,"x_max":0,"o":"m 381 29 b 233 379 381 235 293 335 b 222 401 226 385 222 393 b 239 426 222 411 228 422 b 381 642 297 450 381 508 l 381 643 b 451 846 381 789 414 846 b 546 657 496 846 546 764 b 282 408 546 463 371 421 b 274 400 276 407 274 404 b 282 390 274 396 276 392 b 446 378 282 390 354 378 b 847 633 614 378 847 417 b 631 874 847 767 750 874 l 93 874 l 97 863 b 144 642 129 793 144 718 l 144 -46 b 93 -278 144 -126 126 -207 l 515 -278 b 379 18 389 -176 379 -24 z m 1721 874 l 815 874 b 863 717 842 804 858 751 b 869 636 868 682 869 656 b 865 586 869 617 868 600 b 840 521 858 557 850 535 b 818 493 831 506 822 497 l 986 493 b 1021 499 996 493 1007 494 b 1061 515 1035 501 1049 507 b 1096 551 1075 524 1086 536 b 1111 614 1106 567 1111 588 b 1088 672 1111 638 1103 657 b 1038 713 1072 688 1056 700 b 983 767 1010 729 992 747 b 982 778 982 771 982 774 b 997 810 982 790 988 800 b 1047 838 1010 822 1026 831 b 1106 847 1068 844 1088 847 l 1110 847 b 1163 835 1125 847 1143 843 b 1214 785 1183 825 1201 808 b 1231 708 1225 764 1231 739 b 1228 667 1231 696 1231 682 b 1131 496 1221 618 1188 561 b 903 225 1024 383 949 293 b 835 10 858 157 835 85 b 836 -17 835 1 835 -8 b 881 -140 840 -65 856 -106 b 965 -221 907 -175 935 -201 b 1161 -281 1025 -261 1090 -281 b 1196 -279 1172 -281 1185 -281 b 1418 -237 1269 -272 1343 -258 b 1483 -224 1447 -229 1469 -225 b 1513 -224 1499 -224 1508 -224 b 1554 -226 1529 -224 1542 -224 b 1593 -240 1569 -231 1583 -235 b 1617 -258 1603 -247 1611 -253 b 1629 -275 1622 -265 1626 -271 b 1631 -279 1629 -276 1629 -278 l 1632 -282 b 1633 -281 1632 -281 1632 -281 b 1635 -278 1633 -279 1633 -279 b 1644 -264 1638 -274 1640 -269 b 1671 -215 1653 -251 1661 -236 b 1693 -153 1681 -194 1689 -174 b 1700 -97 1697 -132 1700 -114 b 1697 -57 1700 -85 1699 -71 b 1646 65 1690 -10 1672 31 b 1535 128 1619 100 1582 121 l 1528 128 b 1518 129 1526 128 1522 128 b 1472 124 1507 129 1492 128 b 1410 96 1454 119 1433 110 b 1340 31 1388 81 1364 60 b 1275 -87 1317 1 1296 -39 b 1226 -175 1260 -125 1243 -154 b 1176 -224 1210 -197 1193 -214 b 1138 -240 1161 -233 1147 -239 b 1115 -243 1128 -242 1121 -243 b 1094 -240 1108 -243 1101 -242 b 1069 -231 1083 -237 1075 -235 b 1063 -228 1067 -229 1064 -229 l 1061 -228 b 1060 -226 1061 -226 1061 -226 b 1022 -149 1035 -203 1022 -178 b 1031 -107 1022 -136 1025 -122 b 1096 11 1047 -62 1069 -24 b 1249 200 1151 88 1203 150 b 1339 306 1278 233 1308 268 b 1383 447 1368 347 1383 394 b 1375 517 1383 469 1381 493 b 1294 735 1357 599 1331 671 b 1285 769 1288 746 1285 758 b 1301 811 1285 783 1290 797 b 1408 847 1321 835 1357 847 l 1413 847 b 1421 846 1415 846 1418 846 b 1451 840 1429 844 1439 843 b 1488 824 1464 836 1475 831 b 1519 792 1500 815 1511 804 b 1532 740 1528 778 1532 761 b 1519 708 1532 728 1528 718 b 1489 678 1511 699 1501 688 b 1438 614 1465 661 1449 640 b 1431 578 1433 600 1431 589 b 1438 549 1431 567 1433 557 b 1472 511 1446 532 1457 519 b 1542 493 1494 499 1518 493 l 1721 493 b 1699 519 1717 496 1708 504 b 1676 574 1689 533 1681 551 b 1668 635 1671 596 1668 615 b 1674 699 1668 654 1671 675 b 1721 874 1681 744 1696 803 z m 2354 324 l 2113 475 b 1986 669 2035 522 1986 597 b 2039 788 1986 711 2003 753 b 2169 833 2074 821 2122 833 b 2325 751 2249 833 2325 797 b 2196 563 2325 657 2196 646 l 2196 554 b 2339 467 2201 492 2243 467 l 2567 467 b 2478 722 2567 467 2478 594 b 2539 874 2478 776 2493 829 l 2135 874 b 2024 865 2094 874 2057 871 b 1724 556 1833 838 1724 697 b 1876 301 1724 461 1772 367 l 1914 276 l 2153 128 b 2306 -86 2240 74 2306 -6 b 2267 -189 2306 -121 2293 -156 b 2161 -240 2243 -219 2197 -233 b 2104 -246 2143 -243 2124 -246 b 2067 -243 2092 -246 2079 -244 b 1967 -164 2018 -235 1967 -214 b 2100 42 1967 -44 2100 -65 b 1946 128 2100 104 2040 128 l 1724 128 b 1801 -117 1724 128 1801 7 b 1736 -278 1801 -174 1785 -232 l 2201 -278 b 2461 -203 2303 -276 2378 -257 b 2594 18 2551 -144 2594 -64 b 2436 272 2594 113 2538 208 z "},"€":{"ha":1011,"x_min":0,"x_max":0,"o":"m 600 457 b 567 344 578 422 567 383 b 747 168 567 254 628 168 l 988 168 b 904 464 951 219 904 318 b 926 644 904 518 911 578 b 1011 876 956 774 1011 876 l 601 876 l 575 875 b 117 358 336 861 142 640 l 35 358 l 35 332 l 114 332 b 113 294 114 319 113 307 b 114 256 113 282 114 268 l 35 256 l 35 231 l 115 231 b 599 -287 143 -61 349 -287 b 983 -32 717 -287 879 -276 b 726 -196 967 -61 876 -196 b 632 -179 697 -196 665 -192 b 406 231 546 -149 424 -32 l 499 231 l 499 256 l 404 256 b 403 294 404 268 403 281 b 404 332 403 307 404 319 l 499 332 l 499 358 l 406 358 b 696 850 421 628 533 850 l 711 850 b 804 753 774 850 804 804 b 763 653 804 718 790 681 b 600 457 690 579 639 514 z "},"№":{"ha":1682,"x_min":0,"x_max":0,"o":"m 1365 -29 b 1300 -79 1344 -62 1322 -79 b 1194 53 1261 -79 1226 -35 b 1146 371 1163 140 1146 247 b 1158 536 1146 429 1150 485 b 1197 435 1165 504 1178 469 b 1279 339 1215 400 1243 368 b 1318 306 1294 328 1307 317 b 1399 183 1367 261 1393 221 b 1407 108 1404 146 1407 121 b 1365 -29 1407 61 1393 15 z m 1435 169 b 1292 356 1419 233 1372 296 b 1251 392 1276 367 1264 379 b 1200 499 1222 429 1204 465 b 1193 581 1194 532 1193 560 b 1197 640 1193 601 1194 621 b 1217 733 1203 681 1210 711 b 1250 793 1224 757 1235 776 b 1300 821 1265 811 1282 821 b 1406 689 1338 821 1374 776 b 1453 371 1438 601 1453 494 b 1435 169 1453 299 1447 232 z m 994 -249 l 1603 -249 l 1603 -222 l 994 -222 z m 921 874 l 738 874 b 646 835 703 874 672 861 b 618 790 631 821 622 806 b 613 753 614 774 613 761 b 628 675 613 731 618 706 b 719 529 651 615 682 567 b 778 453 740 506 760 481 b 822 351 796 425 810 392 b 840 196 835 311 840 258 l 840 -43 b 838 -99 840 -61 839 -81 l 410 810 b 310 874 386 853 353 874 l 90 874 l 104 846 l 104 844 b 146 638 132 778 146 708 l 146 -43 b 90 -278 146 -125 128 -203 l 275 -278 b 367 -239 310 -278 340 -265 b 394 -192 382 -224 390 -208 b 399 -154 397 -174 399 -162 b 381 -67 399 -131 393 -101 b 294 75 357 -8 329 39 b 236 157 274 99 254 126 b 190 271 218 186 203 225 b 172 456 178 317 172 379 l 172 638 b 175 693 172 656 174 675 l 611 -232 b 683 -278 628 -262 651 -278 l 921 -278 l 908 -250 b 865 -43 879 -183 865 -114 l 865 638 b 921 874 865 719 883 799 z m 1299 842 b 1107 778 1229 842 1165 821 b 969 608 1050 736 1004 679 b 918 371 935 538 918 458 b 969 135 918 285 935 206 b 1107 -36 1004 63 1050 7 b 1299 -99 1165 -78 1229 -99 b 1490 -36 1369 -99 1433 -78 b 1629 135 1549 7 1594 63 b 1681 371 1663 206 1681 285 b 1629 608 1681 458 1663 538 b 1490 778 1594 679 1549 736 b 1299 842 1433 821 1369 842 z "},"™":{"ha":551,"x_min":0,"x_max":0,"o":"m 535 582 l 535 774 b 550 840 535 797 540 819 l 551 842 l 461 842 l 428 763 b 413 753 425 756 419 753 b 397 763 407 753 400 756 l 364 842 l 283 842 b 285 838 285 840 285 839 l 290 825 b 299 775 296 810 299 792 l 299 583 b 283 517 299 560 294 538 l 340 517 b 383 560 360 517 383 526 b 382 571 383 564 382 567 b 307 756 378 604 307 663 l 307 786 l 321 753 l 321 751 l 326 739 b 375 692 335 721 351 692 b 426 740 403 692 421 728 l 429 746 l 461 822 l 461 582 b 444 517 461 558 456 536 l 551 517 b 535 582 540 536 535 558 z m 172 608 b 140 593 164 599 151 593 b 93 644 117 593 93 614 l 93 646 b 171 732 93 656 96 711 b 264 832 258 756 264 786 l 264 842 l 94 842 b 39 853 53 842 39 853 l 39 804 b 50 779 39 796 43 786 b 75 771 56 775 64 771 b 99 775 82 771 90 772 b 168 825 133 788 133 825 b 190 797 185 825 190 807 b 117 715 190 756 143 732 b 43 632 92 699 56 679 b 40 611 42 625 40 617 b 60 556 40 588 50 568 b 136 517 78 531 106 517 l 169 517 b 239 526 186 517 222 525 l 243 526 b 275 517 263 526 275 517 l 275 579 b 219 628 275 613 247 628 b 172 608 201 628 183 621 z "},"−":{"ha":643,"x_min":0,"x_max":0,"o":"m 35 285 l 643 285 l 643 311 l 35 311 z "},"≈":{"ha":549,"x_min":0,"x_max":0,"o":"m 35 236 l 57 221 l 61 225 b 74 236 64 228 68 232 b 124 267 85 246 101 258 b 158 276 135 272 146 275 b 197 272 171 276 183 276 b 215 265 203 271 210 269 b 235 254 222 263 229 260 b 254 242 242 250 249 247 l 274 224 l 293 207 b 319 189 300 201 311 194 b 347 175 328 182 338 179 b 376 167 357 171 367 169 b 399 164 385 165 392 164 b 435 168 411 164 424 167 b 482 189 453 174 469 181 b 533 238 508 206 524 224 b 544 254 539 244 542 250 b 549 261 547 258 549 261 l 526 275 l 522 271 b 510 260 519 268 515 264 b 460 228 499 250 482 238 b 425 218 450 222 438 219 b 411 217 421 218 415 217 b 388 221 403 217 396 218 b 350 238 375 224 361 229 l 340 243 l 336 246 l 332 250 l 290 286 b 265 304 283 293 274 299 b 238 318 257 310 247 314 b 208 326 229 322 218 324 b 182 329 200 328 190 329 b 150 326 171 329 160 328 b 125 318 142 324 132 321 b 103 307 117 314 110 311 b 50 258 76 290 60 272 b 39 243 44 251 42 246 b 35 236 36 239 35 236 z m 35 389 l 57 374 l 61 378 b 74 389 64 381 68 385 b 124 419 85 399 101 411 b 158 429 135 425 146 428 b 197 425 171 429 183 429 b 215 418 203 424 210 422 b 235 407 222 415 229 413 b 254 394 242 403 249 400 l 274 376 l 293 360 b 319 342 300 354 311 347 b 347 328 328 335 338 332 b 376 319 357 324 367 322 b 399 317 385 318 392 317 b 435 321 411 317 424 319 b 482 342 453 326 469 333 b 533 390 508 358 524 376 b 544 407 539 397 542 403 b 549 414 547 411 549 414 l 526 428 l 522 424 b 510 413 519 421 515 417 b 460 381 499 403 482 390 b 425 371 450 375 438 372 b 411 369 421 371 415 369 b 388 374 403 369 396 371 b 350 390 375 376 361 382 l 340 396 l 336 399 l 332 403 l 290 439 b 265 457 283 446 274 451 b 238 471 257 463 247 467 b 208 479 229 475 218 476 b 182 482 200 481 190 482 b 150 479 171 482 160 481 b 125 471 142 476 132 474 b 103 460 117 467 110 464 b 50 411 76 443 60 425 b 39 396 44 404 42 399 b 35 389 36 392 35 389 z "},"≤":{"ha":479,"x_min":0,"x_max":0,"o":"m 479 464 l 479 493 l 35 303 l 479 113 l 479 142 l 101 303 z m 36 40 l 478 40 l 478 67 l 36 67 z "},"≥":{"ha":479,"x_min":0,"x_max":0,"o":"m 35 464 l 413 303 l 35 142 l 35 113 l 479 303 l 35 493 z m 478 40 l 478 67 l 36 67 l 36 40 z "},"ﬁ":{"ha":1315,"x_min":0,"x_max":0,"o":"m 558 389 b 506 413 544 406 525 413 b 458 394 489 413 472 407 b 236 304 413 353 338 306 l 158 304 b 146 319 153 304 146 310 l 146 321 b 157 335 146 331 157 335 b 279 413 188 346 238 371 b 356 593 321 454 356 513 l 356 642 b 464 847 356 722 358 839 b 492 849 474 849 483 849 b 604 753 561 849 604 813 b 539 614 604 707 539 674 b 676 493 539 496 676 493 l 903 493 b 828 669 892 504 828 550 b 874 874 828 722 839 789 l 35 874 l 40 863 b 93 642 75 794 93 718 l 93 -46 b 35 -278 93 -126 74 -207 l 413 -278 b 356 -46 375 -207 356 -126 l 356 -10 b 157 249 356 150 218 224 b 146 264 157 249 146 253 l 146 265 b 163 278 146 272 153 278 l 236 278 b 461 190 236 278 367 274 b 504 174 474 179 489 174 b 557 197 524 174 543 182 b 686 296 613 261 686 296 b 558 389 628 318 586 356 z m 1315 -278 b 1257 -46 1276 -207 1257 -126 l 1257 642 b 1313 871 1257 721 1276 800 l 1315 874 l 938 874 l 939 871 b 994 642 976 800 994 721 l 994 -46 b 938 -278 994 -126 975 -207 z "},"ﬂ":{"ha":1714,"x_min":0,"x_max":0,"o":"m 558 389 b 506 413 544 406 525 413 b 458 394 489 413 472 407 b 236 304 413 353 338 306 l 158 304 b 146 319 153 304 146 310 l 146 321 b 157 335 146 331 157 335 b 279 413 188 346 238 371 b 356 593 321 454 356 513 l 356 642 b 464 847 356 722 358 839 b 492 849 474 849 483 849 b 604 753 561 849 604 813 b 539 614 604 707 539 674 b 676 493 539 496 676 493 l 903 493 b 828 669 892 504 828 550 b 874 874 828 722 839 789 l 35 874 l 40 863 b 93 642 75 794 93 718 l 93 -46 b 35 -278 93 -126 74 -207 l 413 -278 b 356 -46 375 -207 356 -126 l 356 -10 b 157 249 356 150 218 224 b 146 264 157 249 146 253 l 146 265 b 163 278 146 272 153 278 l 236 278 b 461 190 236 278 367 274 b 504 174 474 179 489 174 b 557 197 524 174 543 182 b 686 296 613 261 686 296 b 558 389 628 318 586 356 z m 1394 -46 b 1400 -94 1394 -62 1396 -79 b 1404 -126 1403 -106 1404 -115 b 1274 -251 1404 -193 1346 -251 l 1096 -251 b 1083 -240 1089 -251 1083 -246 b 1089 -231 1083 -236 1085 -233 b 1257 150 1146 -187 1257 -74 l 1257 642 b 1315 874 1257 722 1276 801 l 938 874 b 994 628 975 797 994 714 l 994 -46 b 939 -275 994 -125 976 -204 l 938 -278 l 1685 -278 b 1638 -74 1650 -193 1638 -126 b 1714 103 1638 46 1701 92 l 1553 103 b 1394 -46 1538 103 1394 99 z "},"Œ":{"ha":1460,"x_min":0,"x_max":0,"o":"m 592 -203 b 510 -264 565 -243 538 -264 b 378 -100 461 -264 418 -210 b 318 296 338 10 318 142 b 333 501 318 369 324 438 b 382 376 342 461 358 419 b 485 256 406 332 439 292 b 533 215 503 242 518 228 b 633 63 593 160 626 108 b 643 -29 640 17 643 -14 b 592 -203 643 -90 626 -147 z m 650 667 l 650 117 b 500 276 621 171 571 224 b 450 322 482 290 465 306 b 386 457 413 369 392 414 b 376 561 379 499 376 533 b 382 632 376 585 378 608 b 407 747 389 681 397 719 b 447 822 415 776 429 801 b 510 856 468 844 489 856 b 642 692 558 856 601 801 z m 604 -278 l 1431 -278 b 1385 -82 1400 -199 1385 -133 l 1385 -69 b 1414 49 1386 -17 1396 22 b 1456 99 1432 75 1446 92 l 1460 103 l 1222 103 b 1218 101 1221 103 1219 103 b 1208 100 1217 101 1213 101 b 1169 89 1197 99 1185 94 b 1128 63 1154 83 1140 75 b 1103 25 1115 50 1107 38 b 1097 -7 1099 13 1097 1 b 1106 -57 1097 -22 1100 -39 b 1117 -75 1107 -61 1111 -68 b 1132 -101 1121 -83 1126 -92 b 1151 -128 1142 -112 1147 -121 b 1160 -165 1157 -142 1160 -154 b 1136 -219 1160 -186 1151 -204 b 1040 -253 1114 -242 1082 -253 l 1021 -251 b 940 -197 986 -250 960 -232 b 913 -46 922 -161 913 -111 l 913 -12 b 919 1 915 -8 918 -3 b 979 218 951 69 972 142 b 1018 190 992 210 1006 200 b 1061 175 1031 179 1044 175 l 1068 175 b 1114 197 1086 176 1101 183 b 1172 251 1133 218 1153 236 b 1222 285 1192 267 1208 278 b 1240 294 1232 289 1238 293 b 1242 296 1242 294 1242 294 l 1243 296 b 1115 389 1186 321 1143 351 b 1079 413 1101 404 1089 411 b 1064 414 1069 414 1064 414 b 1017 394 1046 414 1031 407 b 981 367 1006 385 993 376 b 919 592 974 447 953 522 b 913 606 918 596 915 601 l 913 642 b 918 728 913 668 914 697 b 946 808 921 758 931 785 b 1021 847 961 831 986 843 b 1046 849 1029 849 1038 849 b 1131 818 1078 849 1106 839 b 1160 760 1150 801 1160 782 b 1151 721 1160 747 1157 735 b 1119 672 1140 703 1129 686 b 1099 633 1107 656 1100 643 b 1097 614 1097 626 1097 619 b 1106 571 1097 597 1100 583 b 1136 529 1113 553 1124 539 b 1176 506 1149 518 1163 510 b 1213 496 1190 500 1203 497 b 1221 494 1217 494 1219 494 b 1224 493 1222 493 1222 493 l 1460 493 b 1456 496 1458 494 1457 494 b 1414 547 1446 503 1432 521 b 1386 629 1396 574 1388 600 b 1385 678 1385 657 1385 674 b 1431 874 1385 729 1400 794 l 593 874 b 508 882 567 879 538 882 b 271 803 421 882 342 856 b 99 592 199 750 142 679 b 35 296 56 503 35 404 b 99 1 35 189 56 90 b 271 -210 142 -87 199 -158 b 508 -289 342 -262 421 -289 b 604 -278 542 -289 574 -285 z "},"œ":{"ha":1460,"x_min":0,"x_max":0,"o":"m 592 -203 b 510 -264 565 -243 538 -264 b 378 -100 461 -264 418 -210 b 318 296 338 10 318 142 b 333 501 318 369 324 438 b 382 376 342 461 358 419 b 485 256 406 332 439 292 b 533 215 503 242 518 228 b 633 63 593 160 626 108 b 643 -29 640 17 643 -14 b 592 -203 643 -90 626 -147 z m 650 667 l 650 117 b 500 276 621 171 571 224 b 450 322 482 290 465 306 b 386 457 413 369 392 414 b 376 561 379 499 376 533 b 382 632 376 585 378 608 b 407 747 389 681 397 719 b 447 822 415 776 429 801 b 510 856 468 844 489 856 b 642 692 558 856 601 801 z m 604 -278 l 1431 -278 b 1385 -82 1400 -199 1385 -133 l 1385 -69 b 1414 49 1386 -17 1396 22 b 1456 99 1432 75 1446 92 l 1460 103 l 1222 103 b 1218 101 1221 103 1219 103 b 1208 100 1217 101 1213 101 b 1169 89 1197 99 1185 94 b 1128 63 1154 83 1140 75 b 1103 25 1115 50 1107 38 b 1097 -7 1099 13 1097 1 b 1106 -57 1097 -22 1100 -39 b 1117 -75 1107 -61 1111 -68 b 1132 -101 1121 -83 1126 -92 b 1151 -128 1142 -112 1147 -121 b 1160 -165 1157 -142 1160 -154 b 1136 -219 1160 -186 1151 -204 b 1040 -253 1114 -242 1082 -253 l 1021 -251 b 940 -197 986 -250 960 -232 b 913 -46 922 -161 913 -111 l 913 -12 b 919 1 915 -8 918 -3 b 979 218 951 69 972 142 b 1018 190 992 210 1006 200 b 1061 175 1031 179 1044 175 l 1068 175 b 1114 197 1086 176 1101 183 b 1172 251 1133 218 1153 236 b 1222 285 1192 267 1208 278 b 1240 294 1232 289 1238 293 b 1242 296 1242 294 1242 294 l 1243 296 b 1115 389 1186 321 1143 351 b 1079 413 1101 404 1089 411 b 1064 414 1069 414 1064 414 b 1017 394 1046 414 1031 407 b 981 367 1006 385 993 376 b 919 592 974 447 953 522 b 913 606 918 596 915 601 l 913 642 b 918 728 913 668 914 697 b 946 808 921 758 931 785 b 1021 847 961 831 986 843 b 1046 849 1029 849 1038 849 b 1131 818 1078 849 1106 839 b 1160 760 1150 801 1160 782 b 1151 721 1160 747 1157 735 b 1119 672 1140 703 1129 686 b 1099 633 1107 656 1100 643 b 1097 614 1097 626 1097 619 b 1106 571 1097 597 1100 583 b 1136 529 1113 553 1124 539 b 1176 506 1149 518 1163 510 b 1213 496 1190 500 1203 497 b 1221 494 1217 494 1219 494 b 1224 493 1222 493 1222 493 l 1460 493 b 1456 496 1458 494 1457 494 b 1414 547 1446 503 1432 521 b 1386 629 1396 574 1388 600 b 1385 678 1385 657 1385 674 b 1431 874 1385 729 1400 794 l 593 874 b 508 882 567 879 538 882 b 271 803 421 882 342 856 b 99 592 199 750 142 679 b 35 296 56 503 35 404 b 99 1 35 189 56 90 b 271 -210 142 -87 199 -158 b 508 -289 342 -262 421 -289 b 604 -278 542 -289 574 -285 z "},"Š":{"ha":906,"x_min":0,"x_max":0,"o":"m 665 324 l 424 475 b 297 669 346 522 297 597 b 350 788 297 711 314 753 b 481 833 385 821 433 833 b 636 751 560 833 636 797 b 507 563 636 657 507 646 l 507 554 b 650 467 513 492 554 467 l 878 467 b 789 722 878 467 789 594 b 850 874 789 776 804 829 l 446 874 b 335 865 406 874 368 871 b 35 556 144 838 35 697 b 188 301 35 461 83 367 l 225 276 l 464 128 b 617 -86 551 74 617 -6 b 578 -189 617 -121 604 -156 b 472 -240 554 -219 508 -233 b 415 -246 454 -243 435 -246 b 378 -243 403 -246 390 -244 b 278 -164 329 -235 278 -214 b 411 42 278 -44 411 -65 b 257 128 411 104 351 128 l 35 128 b 113 -117 35 128 113 7 b 47 -278 113 -174 96 -232 l 513 -278 b 772 -203 614 -276 689 -257 b 906 18 863 -144 906 -64 b 747 272 906 113 849 208 z m 471 942 l 689 1188 l 671 1203 l 471 1019 l 269 1203 l 251 1188 z "},"š":{"ha":906,"x_min":0,"x_max":0,"o":"m 665 324 l 424 475 b 297 669 346 522 297 597 b 350 788 297 711 314 753 b 481 833 385 821 433 833 b 636 751 560 833 636 797 b 507 563 636 657 507 646 l 507 554 b 650 467 513 492 554 467 l 878 467 b 789 722 878 467 789 594 b 850 874 789 776 804 829 l 446 874 b 335 865 406 874 368 871 b 35 556 144 838 35 697 b 188 301 35 461 83 367 l 225 276 l 464 128 b 617 -86 551 74 617 -6 b 578 -189 617 -121 604 -156 b 472 -240 554 -219 508 -233 b 415 -246 454 -243 435 -246 b 378 -243 403 -246 390 -244 b 278 -164 329 -235 278 -214 b 411 42 278 -44 411 -65 b 257 128 411 104 351 128 l 35 128 b 113 -117 35 128 113 7 b 47 -278 113 -174 96 -232 l 513 -278 b 772 -203 614 -276 689 -257 b 906 18 863 -144 906 -64 b 747 272 906 113 849 208 z m 471 942 l 689 1188 l 671 1203 l 471 1019 l 269 1203 l 251 1188 z "},"Ÿ":{"ha":1022,"x_min":0,"x_max":0,"o":"m 768 874 b 608 725 654 874 608 803 b 674 567 608 668 633 607 b 760 386 735 504 760 442 b 688 242 760 325 729 274 b 674 232 683 239 678 235 b 660 225 669 229 664 228 b 619 208 646 218 632 213 b 538 197 593 201 565 197 b 490 201 522 197 506 199 b 397 226 461 206 426 213 b 385 232 393 228 389 231 b 369 242 379 235 375 239 b 297 386 328 274 297 325 b 383 567 297 442 322 504 b 449 725 424 607 449 668 b 289 874 449 803 403 874 l 35 874 b 96 699 85 817 96 750 b 85 610 96 647 85 610 b 76 538 79 585 76 561 b 304 232 76 382 197 276 l 317 225 b 397 92 367 199 397 147 l 397 -46 b 340 -278 397 -126 378 -207 l 717 -278 b 660 -46 679 -207 660 -126 l 660 93 b 740 226 660 149 690 200 b 753 232 747 229 751 232 b 981 538 860 276 981 382 b 972 610 981 561 978 585 b 961 699 972 610 961 647 b 1022 874 961 750 974 817 z m 507 1072 b 376 1203 507 1144 449 1203 b 246 1072 304 1203 246 1144 b 376 942 246 1000 304 942 b 507 1072 449 942 507 1000 z m 814 1072 b 683 1203 814 1144 756 1203 b 553 1072 611 1203 553 1144 b 683 942 553 1000 611 942 b 814 1072 756 942 814 1000 z "},"ž":{"ha":913,"x_min":0,"x_max":0,"o":"m 718 7 b 490 -242 614 -35 588 -242 b 393 -193 451 -242 417 -224 b 321 29 356 -149 321 -64 b 519 331 321 139 369 257 b 914 826 872 501 914 729 b 910 874 914 856 910 874 l 264 874 b 51 914 106 874 51 914 l 51 711 b 172 561 51 682 57 561 b 253 576 194 561 221 565 b 454 782 332 604 404 731 b 540 843 493 825 514 843 b 594 753 575 843 593 804 l 594 739 b 407 374 594 653 569 465 b 35 -162 89 193 35 -29 b 50 -278 35 -232 50 -278 l 696 -278 b 910 -319 854 -278 910 -319 l 910 -124 b 785 21 910 -94 885 21 b 718 7 765 21 743 17 z m 474 982 l 692 1228 l 674 1243 l 474 1060 l 272 1243 l 254 1228 z "},"‰":{"ha":1317,"x_min":0,"x_max":0,"o":"m 646 874 l 228 -278 l 256 -278 l 674 874 z m 422 624 b 228 879 422 765 335 879 b 35 624 122 879 35 765 b 228 368 35 482 122 368 b 422 624 335 368 422 482 z m 150 624 b 228 868 150 758 189 868 b 306 624 268 868 306 758 b 228 379 306 489 268 379 b 150 624 189 379 150 489 z m 683 233 b 490 -22 576 233 490 119 b 683 -278 490 -164 576 -278 b 876 -22 790 -278 876 -164 b 683 233 876 119 790 233 z m 683 -267 b 606 -22 644 -267 606 -157 b 683 222 606 113 644 222 b 761 -22 722 222 761 113 b 683 -267 761 -157 722 -267 z m 1124 233 b 931 -22 1017 233 931 119 b 1124 -278 931 -164 1017 -278 b 1317 -22 1231 -278 1317 -164 b 1124 233 1317 119 1231 233 z m 1124 -267 b 1046 -22 1085 -267 1046 -157 b 1124 222 1046 113 1085 222 b 1201 -22 1163 222 1201 113 b 1124 -267 1201 -157 1163 -267 z "},"":{"ha":933,"x_min":0,"x_max":0,"o":"m 957 -532 b 875 -387 892 -508 875 -451 b 886 -279 875 -353 881 -314 b 892 -244 888 -268 889 -256 b 933 40 907 -160 933 -61 b 351 400 933 286 629 400 b 874 632 672 400 874 456 b 633 874 874 765 765 874 l 35 874 l 40 861 b 93 640 75 793 93 718 l 93 -46 b 35 -279 93 -128 74 -207 l 475 -279 b 354 7 360 -196 354 -47 l 354 29 b 192 378 354 233 257 333 b 179 400 183 383 179 392 b 197 425 179 411 186 421 b 354 640 263 450 354 507 l 354 643 b 433 846 354 789 392 846 b 540 656 485 846 540 763 b 246 407 540 461 344 424 b 239 399 242 407 239 403 b 246 390 239 394 242 390 b 563 251 418 390 553 261 b 632 60 603 207 632 167 b 603 -182 632 3 622 -74 b 589 -318 593 -231 589 -275 b 907 -624 589 -501 679 -624 b 965 -621 926 -624 944 -622 b 1283 -401 965 -621 1225 -608 b 1040 -547 1283 -401 1189 -547 b 957 -532 1014 -547 986 -543 z "},"":{"ha":933,"x_min":0,"x_max":0,"o":"m 957 -532 b 875 -386 892 -508 875 -450 b 885 -279 875 -351 879 -314 b 892 -244 886 -268 889 -256 b 933 40 907 -160 933 -61 b 474 393 933 250 711 364 l 469 393 b 351 400 429 397 390 400 b 874 632 672 400 874 456 b 863 703 874 657 869 681 l 858 715 b 849 767 851 735 849 751 b 922 874 849 843 922 874 l 660 874 b 517 754 607 874 517 836 b 574 565 517 651 574 632 b 571 540 574 557 572 549 b 440 438 564 500 513 463 b 231 415 392 421 282 415 l 188 415 b 174 428 179 415 174 421 b 181 439 174 432 176 436 b 354 640 244 474 354 546 l 354 647 b 410 869 356 725 375 801 l 413 874 l 35 874 l 36 869 b 93 632 74 796 93 714 l 93 -46 b 35 -279 93 -128 72 -207 l 467 -279 b 354 13 358 -204 354 -37 l 354 29 b 183 371 354 222 235 331 b 179 378 181 372 179 375 b 189 389 179 383 183 389 l 250 389 b 443 336 311 389 381 374 b 617 -33 443 336 617 239 b 601 -182 617 -79 613 -128 b 588 -318 592 -231 588 -275 b 907 -624 588 -500 679 -624 b 964 -621 925 -624 944 -622 b 1283 -401 964 -621 1224 -608 b 1040 -547 1278 -411 1185 -547 b 957 -532 1014 -547 986 -543 z "},"":{"ha":963,"x_min":0,"x_max":0,"o":"m 1124 -564 b 890 -279 938 -564 890 -279 l 856 -132 l 685 613 l 669 681 b 661 764 664 711 661 739 b 685 858 661 804 669 836 l 697 874 l 292 874 b 333 714 292 874 333 828 b 311 553 333 671 328 617 l 147 -86 b 35 -279 136 -129 92 -254 l 276 -279 b 436 -207 276 -279 390 -279 b 460 -131 453 -182 460 -156 b 404 -6 460 -83 435 -39 b 296 338 310 101 296 253 l 296 363 b 307 435 297 386 300 411 b 383 708 307 435 381 703 l 383 707 l 503 215 l 507 194 l 515 161 l 622 -279 l 640 -356 l 640 -357 b 986 -701 647 -378 710 -669 b 1035 -704 1003 -703 1018 -704 b 1385 -393 1311 -704 1379 -418 b 1124 -564 1379 -412 1321 -564 z "},"":{"ha":903,"x_min":0,"x_max":0,"o":"m 557 389 b 506 413 543 404 525 413 b 458 394 489 413 472 407 b 236 304 411 353 336 304 l 157 304 b 144 319 153 304 144 310 b 157 333 144 331 157 333 b 278 413 188 346 236 371 b 354 592 319 454 354 513 l 354 640 b 463 847 354 721 357 838 b 492 849 472 849 482 849 b 603 751 561 849 603 811 b 538 613 603 707 538 672 b 675 492 538 494 675 492 l 903 492 b 826 668 890 504 826 549 b 874 874 826 721 839 788 l 35 874 l 40 863 b 93 640 75 793 93 717 l 93 -606 b 413 -279 93 -606 196 -392 b 354 -46 374 -207 354 -128 l 354 -11 b 157 249 354 150 218 222 b 144 264 157 249 144 251 b 161 278 146 272 151 278 l 236 278 b 461 190 236 278 367 272 b 506 174 474 179 489 174 b 557 197 525 174 543 182 b 685 294 613 261 685 294 b 557 389 628 317 585 354 z "},"":{"ha":972,"x_min":0,"x_max":0,"o":"m -117 1157 b 118 874 71 1157 118 874 l 151 726 l 151 725 l 322 -18 l 338 -87 b 347 -169 343 -118 347 -146 b 324 -264 347 -211 339 -242 l 310 -279 l 715 -279 b 674 -119 715 -279 674 -233 b 696 42 674 -76 679 -22 l 861 679 b 972 874 872 724 917 847 l 732 874 b 571 800 732 874 618 874 b 549 725 556 775 549 750 b 604 599 549 678 574 633 b 711 258 697 493 711 343 l 711 232 b 701 160 711 207 707 183 b 624 -114 701 160 628 -108 l 506 378 l 500 399 l 386 874 l 367 950 l 367 951 b 21 1294 360 972 297 1264 b -28 1299 6 1296 -11 1299 b -378 988 -303 1299 -372 1013 b -117 1157 -371 1007 -312 1157 z "},"":{"ha":935,"x_min":0,"x_max":0,"o":"m 551 644 b 506 525 519 606 506 563 b 622 401 506 457 550 401 l 935 401 b 847 631 879 485 849 526 l 847 638 b 935 874 847 781 935 874 l 513 874 l 486 872 b 35 292 235 857 35 603 b 510 -290 35 -31 247 -290 b 635 -279 547 -290 590 -287 b 665 -276 644 -278 656 -276 b 735 -290 689 -276 713 -282 b 913 -482 831 -329 913 -482 l 913 282 l 429 282 b 650 24 429 282 650 243 l 650 -190 b 603 -261 646 -244 626 -261 b 511 -215 569 -261 528 -228 b 318 292 424 -149 318 28 b 604 847 318 589 433 847 l 618 847 b 683 790 663 847 683 821 b 672 750 683 776 679 763 b 551 644 651 715 590 690 z "}}}
